<svg width="20" height="20" viewBox="0 0 20 20" fill="none" xmlns="http://www.w3.org/2000/svg">
<g id="Folder / Default / On ">
<path id="Vector" d="M11.1411 3.77778H16.4559C16.6699 3.77778 16.8752 3.87143 17.0265 4.03813C17.1778 4.20483 17.2629 4.43092 17.2629 4.66667V5.55556H2.73714V2.88889C2.73714 2.65314 2.82216 2.42705 2.9735 2.26035C3.12484 2.09365 3.3301 2 3.54412 2H9.52711L11.1411 3.77778ZM2.80735 7.33333H17.1927C17.3043 7.33328 17.4147 7.35874 17.517 7.40812C17.6193 7.45749 17.7111 7.52971 17.7867 7.62018C17.8623 7.71067 17.9201 7.81744 17.9563 7.93377C17.9926 8.0501 18.0065 8.17344 17.9972 8.296L17.3242 17.1849C17.3074 17.407 17.2155 17.6141 17.0666 17.765C16.9177 17.916 16.7228 17.9999 16.5204 18H3.47957C3.27721 17.9999 3.08228 17.916 2.93342 17.765C2.78455 17.6141 2.69261 17.407 2.67581 17.1849L2.00278 8.296C1.99352 8.17344 2.00744 8.0501 2.04367 7.93377C2.0799 7.81744 2.13765 7.71067 2.21327 7.62018C2.28889 7.52971 2.38074 7.45749 2.48299 7.40812C2.58525 7.35874 2.6957 7.33328 2.80735 7.33333Z" fill="#4876F9"/>
</g>
</svg>
