<?xml version="1.0" encoding="iso-8859-1"?>
<!-- Generator: Adobe Illustrator 25.0.0, SVG Export Plug-In . SVG Version: 6.00 Build 0)  -->
<svg version="1.1" baseProfile="basic" id="Layer_1"
	 xmlns="http://www.w3.org/2000/svg" xmlns:xlink="http://www.w3.org/1999/xlink" x="0px" y="0px" viewBox="0 0 64 64"
	 xml:space="preserve">
<path d="M52,28H12v-4h40V28z"/>
<path d="M48,17c3.309,0,6,2.691,6,6v22c0,3.309-2.691,6-6,6H16c-3.309,0-6-2.691-6-6V19c0-3.309,2.691-6,6-6h3.896
	c1.81,0,3.585,0.623,4.998,1.753l1.713,1.37C27.312,16.689,28.199,17,29.104,17H48z M50,45V23c0-1.103-0.897-2-2-2H29.104
	c-1.81,0-3.585-0.623-4.998-1.753l-1.712-1.37C21.688,17.311,20.801,17,19.896,17H16c-1.103,0-2,0.897-2,2v26c0,1.103,0.897,2,2,2
	h32C49.103,47,50,46.103,50,45z"/>
</svg>