<svg width="18" height="18" viewBox="0 0 18 18" fill="none" xmlns="http://www.w3.org/2000/svg">
<path id="Shape" fill-rule="evenodd" clip-rule="evenodd" d="M8.41058 0.910582C8.73602 0.585145 9.26366 0.585145 9.58909 0.910582L13.7558 5.07725C14.0812 5.40268 14.0812 5.93032 13.7558 6.25576C13.4303 6.5812 12.9027 6.5812 12.5772 6.25576L9.83317 3.51168V11.4998C9.83317 11.9601 9.46008 12.3332 8.99984 12.3332C8.5396 12.3332 8.1665 11.9601 8.1665 11.4998V3.51168L5.42243 6.25576C5.09699 6.5812 4.56935 6.5812 4.24392 6.25576C3.91848 5.93032 3.91848 5.40268 4.24392 5.07725L8.41058 0.910582ZM1.49984 10.6665C1.96008 10.6665 2.33317 11.0396 2.33317 11.4998V12.4998C2.33317 13.2137 2.33382 13.6989 2.36446 14.074C2.39431 14.4393 2.44842 14.6262 2.51483 14.7565C2.67462 15.0701 2.92958 15.3251 3.24319 15.4848C3.37352 15.5513 3.56036 15.6054 3.9257 15.6352C4.30078 15.6659 4.78602 15.6665 5.49984 15.6665H12.4998C13.2137 15.6665 13.6989 15.6659 14.074 15.6352C14.4393 15.6054 14.6262 15.5513 14.7565 15.4848C15.0701 15.3251 15.3251 15.0701 15.4848 14.7565C15.5513 14.6262 15.6054 14.4393 15.6352 14.074C15.6659 13.6989 15.6665 13.2137 15.6665 12.4998V11.4998C15.6665 11.0396 16.0396 10.6665 16.4998 10.6665C16.9601 10.6665 17.3332 11.0396 17.3332 11.4998V12.5343C17.3332 13.2051 17.3332 13.7587 17.2963 14.2097C17.2581 14.6781 17.1759 15.1087 16.9699 15.5131C16.6503 16.1403 16.1403 16.6503 15.5131 16.9699C15.1087 17.1759 14.6781 17.2581 14.2097 17.2963C13.7587 17.3332 13.2051 17.3332 12.5343 17.3332H5.4654C4.7946 17.3332 4.24097 17.3332 3.78998 17.2963C3.32157 17.2581 2.89098 17.1759 2.48654 16.9699C1.85933 16.6503 1.34939 16.1403 1.02982 15.5131C0.823741 15.1087 0.741604 14.6781 0.703333 14.2097C0.666485 13.7587 0.666494 13.2051 0.666504 12.5343L0.666505 11.4998C0.666505 11.0396 1.0396 10.6665 1.49984 10.6665Z" fill="#A2A8B4"/>
</svg>
