<svg width="20" height="30" viewBox="0 0 20 30" fill="none" xmlns="http://www.w3.org/2000/svg">
<g clip-path="url(#clip0_463_202528)">
<path d="M1.72614 26.2744V22.6666L2.4026 22.2156V7.78443L1.72614 7.33345V3.72565H6.71908L10.0692 12.262L13.4193 3.72565H18.4122V7.33345L17.7358 7.78443V22.2156L18.4122 22.6666V26.2744H13.0005V22.6666L13.677 22.2156V14.1947L11.6798 19.2843H8.45856L6.46138 14.1947V22.2156L7.13784 22.6666V26.2744H1.72614ZM20.345 26.2744V22.6666L21.0214 22.2156V7.78443L20.345 7.33345V3.72565H32.0703V8.46089H28.4625L28.0116 7.78443H25.0802V12.9706H30.2664V17.0294H25.0802V22.2156H28.0116L28.4625 21.5392H32.0703V26.2744H20.345ZM34.0031 26.2744V22.6666L34.6796 22.2156V7.78443L34.0031 7.33345V3.72565H38.996L42.3461 12.262L45.6962 3.72565H50.6892V7.33345L50.0127 7.78443V22.2156L50.6892 22.6666V26.2744H45.2775V22.6666L45.9539 22.2156V14.1947L43.9568 19.2843H40.7355L38.7383 14.1947V22.2156L39.4148 22.6666V26.2744H34.0031ZM52.6219 26.2744V22.6666L53.2984 22.2156V7.78443L52.6219 7.33345V3.72565H64.3473V8.46089H60.7395L60.2885 7.78443H57.3572V12.9706H62.5434V17.0294H57.3572V22.2156H60.2885L60.7395 21.5392H64.3473V26.2744H52.6219ZM70.3388 26.2744V22.6666L71.0153 22.2156V7.78443H70.3388L69.8879 8.46089H66.2801V3.72565H79.8093V8.46089H76.2015L75.7505 7.78443H75.0741V22.2156L75.7505 22.6666V26.2744H70.3388ZM81.7421 26.2744V22.6666L82.4185 22.2156V7.78443L81.7421 7.33345V3.72565H92.0501L95.0459 6.72141V14.9356L93.3064 16.7073L94.6915 22.0868L95.4968 22.6666V26.2744H89.9563V22.6666L90.5361 22.2801L89.4087 17.9314H86.4773V22.2156L87.1538 22.6666V26.2744H81.7421ZM86.4773 13.8726H90.375L90.9871 13.2606V8.39646L90.375 7.78443H86.4773V13.8726ZM97.1397 26.2744V22.6666L97.8161 22.2156V7.78443L97.1397 7.33345V3.72565H102.551V7.33345L101.875 7.78443V22.2156L102.551 22.6666V26.2744H97.1397ZM107.48 26.2744L104.484 23.2787V6.72141L107.48 3.72565H114.567L117.562 6.72141V10.9413H113.504V8.39646L112.892 7.78443H109.155L108.543 8.39646V21.6036L109.155 22.2156H112.892L113.504 21.6036V19.0588H117.562V23.2787L114.567 26.2744H107.48ZM122.491 26.2744L119.495 23.2787V19.0588H123.554V21.6036L124.166 22.2156H127.452L128.064 21.6036V17.6415L127.452 17.0294H122.491L119.495 14.0337V6.72141L122.491 3.72565H129.127L132.122 6.72141V10.9413H128.064V8.39646L127.452 7.78443H124.166L123.554 8.39646V12.3586L124.166 12.9706H129.127L132.122 15.9664V23.2787L129.127 26.2744H122.491Z" fill="#1C1C1C"/>
</g>
<defs>
<clipPath id="clip0_463_202528">
<rect width="20" height="30" fill="white"/>
</clipPath>
</defs>
</svg>
