<svg width="136" height="30" viewBox="0 0 136 30" fill="none" xmlns="http://www.w3.org/2000/svg">
<path d="M1.77515 26.2764V22.6689L2.4703 22.218V7.78796L1.77515 7.33702V3.72952H6.90608L10.3488 12.2651L13.7915 3.72952H18.9224V7.33702L18.2272 7.78796V22.218L18.9224 22.6689V26.2764H13.3611V22.6689L14.0563 22.218V14.1977L12.0039 19.2869H8.69363L6.64125 14.1977V22.218L7.33641 22.6689V26.2764H1.77515ZM20.9085 26.2764V22.6689L21.6037 22.218V7.78796L20.9085 7.33702V3.72952H32.958V8.46436H29.2504L28.787 7.78796H25.7747V12.9737H31.1042V17.0322H25.7747V22.218H28.787L29.2504 21.5415H32.958V26.2764H20.9085ZM34.9441 26.2764V22.6689L35.6393 22.218V7.78796L34.9441 7.33702V3.72952H40.075L43.5177 12.2651L46.9604 3.72952H52.0914V7.33702L51.3962 7.78796V22.218L52.0914 22.6689V26.2764H46.5301V22.6689L47.2252 22.218V14.1977L45.1729 19.2869H41.8626L39.8102 14.1977V22.218L40.5054 22.6689V26.2764H34.9441ZM54.0775 26.2764V22.6689L54.7727 22.218V7.78796L54.0775 7.33702V3.72952H66.1269V8.46436H62.4194L61.956 7.78796H58.9436V12.9737H64.2732V17.0322H58.9436V22.218H61.956L62.4194 21.5415H66.1269V26.2764H54.0775ZM72.284 26.2764V22.6689L72.9792 22.218V7.78796H72.284L71.8206 8.46436H68.1131V3.72952H82.0163V8.46436H78.3087L77.8453 7.78796H77.1501V22.218L77.8453 22.6689V26.2764H72.284ZM84.0024 26.2764V22.6689L84.6976 22.218V7.78796L84.0024 7.33702V3.72952H94.5953L97.6739 6.72504V14.9385L95.8863 16.7101L97.3097 22.0891L98.1373 22.6689V26.2764H92.4436V22.6689L93.0395 22.2824L91.8809 17.934H88.8685V22.218L89.5637 22.6689V26.2764H84.0024ZM88.8685 13.8756H92.874L93.5029 13.2636V8.39995L92.874 7.78796H88.8685V13.8756ZM99.8255 26.2764V22.6689L100.521 22.218V7.78796L99.8255 7.33702V3.72952H105.387V7.33702L104.692 7.78796V22.218L105.387 22.6689V26.2764H99.8255ZM110.452 26.2764L107.373 23.2809V6.72504L110.452 3.72952H117.734L120.813 6.72504V10.9445H116.642V8.39995L116.013 7.78796H112.173L111.544 8.39995V21.606L112.173 22.218H116.013L116.642 21.606V19.0614H120.813V23.2809L117.734 26.2764H110.452ZM125.877 26.2764L122.799 23.2809V19.0614H126.97V21.606L127.599 22.218H130.975L131.604 21.606V17.6442L130.975 17.0322H125.877L122.799 14.0367V6.72504L125.877 3.72952H132.697L135.775 6.72504V10.9445H131.604V8.39995L130.975 7.78796H127.599L126.97 8.39995V12.3618L127.599 12.9737H132.697L135.775 15.9693V23.2809L132.697 26.2764H125.877Z" fill="#1C1C1C"/>
</svg>
