<svg width="18" height="18" viewBox="0 0 18 18" fill="none" xmlns="http://www.w3.org/2000/svg">
<g id="i24 / Menu / Messenger">
<path id="Vector" d="M4.59783 13.5941L5.16771 13.7493C5.2287 13.5252 5.15278 13.2863 4.97368 13.1385L4.59783 13.5941ZM4.01087 15.75L3.44099 15.5948C3.38052 15.8169 3.45459 16.0539 3.63077 16.2021C3.80695 16.3502 4.05313 16.3825 4.26155 16.2848L4.01087 15.75ZM6.3587 14.6495L6.58105 14.1023C6.42853 14.0403 6.25707 14.0448 6.10801 14.1147L6.3587 14.6495ZM5.14439 11.0674C4.95479 11.3329 5.01627 11.7017 5.28171 11.8913C5.54714 12.0809 5.91602 12.0194 6.10561 11.754L5.14439 11.0674ZM8.03571 8.03571L8.39009 7.56321L7.90647 7.2005L7.5551 7.69242L8.03571 8.03571ZM9.96429 9.48214L9.60991 9.95464L10.0588 10.2913L10.418 9.86025L9.96429 9.48214ZM12.8287 6.96739C13.0376 6.71681 13.0037 6.34438 12.7531 6.13556C12.5025 5.92673 12.1301 5.96059 11.9213 6.21118L12.8287 6.96739ZM9 1.65938C4.97045 1.65938 1.65938 4.79013 1.65938 8.70652H2.84062C2.84062 5.49139 5.57286 2.84062 9 2.84062V1.65938ZM1.65938 8.70652C1.65938 10.8518 2.66191 12.7627 4.22198 14.0497L4.97368 13.1385C3.66352 12.0577 2.84062 10.4715 2.84062 8.70652H1.65938ZM4.02794 13.439L3.44099 15.5948L4.58075 15.9052L5.16771 13.7493L4.02794 13.439ZM4.26155 16.2848L6.60938 15.1842L6.10801 14.1147L3.76019 15.2152L4.26155 16.2848ZM6.13634 15.1966C7.01734 15.5546 7.98493 15.7537 9 15.7537V14.5724C8.14033 14.5724 7.32357 14.404 6.58105 14.1023L6.13634 15.1966ZM9 15.7537C13.0296 15.7537 16.3406 12.6229 16.3406 8.70652H15.1594C15.1594 11.9216 12.4271 14.5724 9 14.5724V15.7537ZM16.3406 8.70652C16.3406 4.79013 13.0296 1.65938 9 1.65938V2.84062C12.4271 2.84062 15.1594 5.49139 15.1594 8.70652H16.3406ZM6.10561 11.754L8.51633 8.37901L7.5551 7.69242L5.14439 11.0674L6.10561 11.754ZM7.68134 8.50821L9.60991 9.95464L10.3187 9.00964L8.39009 7.56321L7.68134 8.50821ZM10.418 9.86025L12.8287 6.96739L11.9213 6.21118L9.51056 9.10403L10.418 9.86025Z" fill="white"/>
</g>
</svg>
