<svg width="24" height="24" viewBox="0 0 24 24" fill="none" xmlns="http://www.w3.org/2000/svg">
<path d="M6.13043 18.1255L6.85409 18.3225C6.93155 18.038 6.83514 17.7346 6.6077 17.5469L6.13043 18.1255ZM5.34783 21L4.62417 20.803C4.54738 21.085 4.64144 21.3859 4.86516 21.574C5.08888 21.7622 5.40149 21.8032 5.66615 21.6791L5.34783 21ZM8.47826 19.5326L8.76061 18.8378C8.56694 18.7591 8.34922 18.7648 8.15994 18.8535L8.47826 19.5326ZM6.8897 14.7784C6.64894 15.1154 6.72701 15.5838 7.06407 15.8246C7.40113 16.0653 7.86954 15.9873 8.1103 15.6502L6.8897 14.7784ZM10.7143 10.7143L11.1643 10.1143L10.5502 9.6537L10.104 10.2784L10.7143 10.7143ZM13.2857 12.6429L12.8357 13.2429L13.4057 13.6704L13.8619 13.123L13.2857 12.6429ZM17.0762 9.26585C17.3413 8.94765 17.2983 8.47472 16.9801 8.20955C16.6619 7.94438 16.189 7.98737 15.9238 8.30558L17.0762 9.26585ZM12 2.25C6.64639 2.25 2.25 6.4091 2.25 11.6087H3.75C3.75 7.2996 7.41135 3.75 12 3.75V2.25ZM2.25 11.6087C2.25 14.457 3.58101 16.9946 5.65317 18.704L6.6077 17.5469C4.8529 16.0993 3.75 13.9741 3.75 11.6087H2.25ZM5.40678 17.9285L4.62417 20.803L6.07149 21.197L6.85409 18.3225L5.40678 17.9285ZM5.66615 21.6791L8.79659 20.2117L8.15994 18.8535L5.0295 20.3209L5.66615 21.6791ZM8.19591 20.2274C9.36618 20.703 10.6515 20.9674 12 20.9674V19.4674C10.8488 19.4674 9.75504 19.2419 8.76061 18.8378L8.19591 20.2274ZM12 20.9674C17.3536 20.9674 21.75 16.8083 21.75 11.6087H20.25C20.25 15.9178 16.5886 19.4674 12 19.4674V20.9674ZM21.75 11.6087C21.75 6.4091 17.3536 2.25 12 2.25V3.75C16.5886 3.75 20.25 7.2996 20.25 11.6087H21.75ZM8.1103 15.6502L11.3246 11.1502L10.104 10.2784L6.8897 14.7784L8.1103 15.6502ZM10.2643 11.3143L12.8357 13.2429L13.7357 12.0429L11.1643 10.1143L10.2643 11.3143ZM13.8619 13.123L17.0762 9.26585L15.9238 8.30558L12.7095 12.1627L13.8619 13.123Z" fill="#1C1C1C"/>
</svg>
