<svg width="128" height="32" viewBox="0 0 128 32" fill="none" xmlns="http://www.w3.org/2000/svg">
<rect width="128" height="32" rx="16" fill="#4876F9"/>
<path d="M21.53 21.126C20.55 21.126 19.71 20.9207 19.01 20.51C18.31 20.0993 17.7687 19.516 17.386 18.76C17.0127 17.9947 16.826 17.094 16.826 16.058C16.826 15.2833 16.9333 14.588 17.148 13.972C17.3627 13.3467 17.6707 12.8147 18.072 12.376C18.4733 11.928 18.9633 11.5873 19.542 11.354C20.13 11.1207 20.7927 11.004 21.53 11.004C22.09 11.004 22.6267 11.0833 23.14 11.242C23.6627 11.4007 24.1107 11.6247 24.484 11.914C24.6333 12.0167 24.7313 12.1333 24.778 12.264C24.8247 12.3947 24.8293 12.5207 24.792 12.642C24.764 12.754 24.7033 12.852 24.61 12.936C24.526 13.0107 24.4187 13.0527 24.288 13.062C24.1573 13.062 24.0173 13.0107 23.868 12.908C23.5413 12.656 23.182 12.474 22.79 12.362C22.4073 12.2407 21.9967 12.18 21.558 12.18C20.8393 12.18 20.228 12.334 19.724 12.642C19.2293 12.9407 18.8513 13.3793 18.59 13.958C18.338 14.5273 18.212 15.2273 18.212 16.058C18.212 16.8793 18.338 17.584 18.59 18.172C18.8513 18.7507 19.2293 19.194 19.724 19.502C20.228 19.8007 20.8393 19.95 21.558 19.95C21.9967 19.95 22.412 19.8893 22.804 19.768C23.2053 19.6467 23.574 19.46 23.91 19.208C24.0593 19.1053 24.1947 19.0587 24.316 19.068C24.4467 19.0773 24.554 19.1193 24.638 19.194C24.722 19.2593 24.778 19.3527 24.806 19.474C24.8433 19.586 24.8433 19.7027 24.806 19.824C24.7687 19.9453 24.6847 20.0527 24.554 20.146C24.1713 20.4727 23.714 20.72 23.182 20.888C22.6593 21.0467 22.1087 21.126 21.53 21.126ZM29.0212 21.126C28.4705 21.126 28.0085 21.0233 27.6352 20.818C27.2712 20.6127 27.0005 20.3093 26.8232 19.908C26.6459 19.5067 26.5572 19.0027 26.5572 18.396V14.728C26.5572 14.5133 26.6085 14.3547 26.7112 14.252C26.8232 14.14 26.9819 14.084 27.1872 14.084C27.3925 14.084 27.5512 14.14 27.6632 14.252C27.7752 14.3547 27.8312 14.5133 27.8312 14.728V18.396C27.8312 18.9747 27.9479 19.404 28.1812 19.684C28.4145 19.9547 28.7832 20.09 29.2872 20.09C29.8472 20.09 30.2999 19.9033 30.6452 19.53C30.9999 19.1567 31.1772 18.662 31.1772 18.046V14.728C31.1772 14.5133 31.2285 14.3547 31.3312 14.252C31.4432 14.14 31.6019 14.084 31.8072 14.084C32.0125 14.084 32.1712 14.14 32.2832 14.252C32.3952 14.3547 32.4512 14.5133 32.4512 14.728V20.44C32.4512 20.8787 32.2459 21.098 31.8352 21.098C31.6299 21.098 31.4712 21.042 31.3592 20.93C31.2565 20.818 31.2052 20.6547 31.2052 20.44V19.222L31.3872 19.46C31.2005 20.0013 30.8972 20.4167 30.4772 20.706C30.0665 20.986 29.5812 21.126 29.0212 21.126ZM37.1332 21.126C36.7132 21.126 36.2886 21.0793 35.8592 20.986C35.4392 20.8833 35.0426 20.7107 34.6692 20.468C34.5666 20.4027 34.4919 20.3233 34.4452 20.23C34.4079 20.1273 34.3939 20.0293 34.4032 19.936C34.4219 19.8333 34.4639 19.7447 34.5292 19.67C34.5946 19.5953 34.6739 19.5533 34.7672 19.544C34.8699 19.5253 34.9772 19.5487 35.0892 19.614C35.4532 19.8193 35.8032 19.964 36.1392 20.048C36.4846 20.132 36.8252 20.174 37.1612 20.174C37.6746 20.174 38.0619 20.0807 38.3232 19.894C38.5846 19.7073 38.7152 19.46 38.7152 19.152C38.7152 18.8907 38.6266 18.69 38.4492 18.55C38.2812 18.4007 38.0152 18.2887 37.6512 18.214L36.3492 17.948C35.7706 17.8173 35.3319 17.6027 35.0332 17.304C34.7439 16.996 34.5992 16.604 34.5992 16.128C34.5992 15.708 34.7112 15.344 34.9352 15.036C35.1686 14.7187 35.4906 14.476 35.9012 14.308C36.3119 14.14 36.7832 14.056 37.3152 14.056C37.7259 14.056 38.1132 14.112 38.4772 14.224C38.8506 14.3267 39.1866 14.4853 39.4852 14.7C39.5972 14.7653 39.6672 14.8493 39.6952 14.952C39.7326 15.0453 39.7372 15.1433 39.7092 15.246C39.6906 15.3393 39.6486 15.4187 39.5832 15.484C39.5179 15.5493 39.4339 15.5913 39.3312 15.61C39.2286 15.6193 39.1166 15.5913 38.9952 15.526C38.7246 15.3393 38.4446 15.2087 38.1552 15.134C37.8752 15.05 37.5952 15.008 37.3152 15.008C36.8112 15.008 36.4286 15.106 36.1672 15.302C35.9152 15.498 35.7892 15.7547 35.7892 16.072C35.7892 16.3147 35.8639 16.5153 36.0132 16.674C36.1719 16.8327 36.4192 16.9493 36.7552 17.024L38.0572 17.29C38.6639 17.4207 39.1212 17.6307 39.4292 17.92C39.7372 18.2 39.8912 18.5827 39.8912 19.068C39.8912 19.7027 39.6392 20.2067 39.1352 20.58C38.6406 20.944 37.9732 21.126 37.1332 21.126ZM44.5884 21.126C44.0378 21.126 43.5758 21.028 43.2024 20.832C42.8384 20.636 42.5631 20.3513 42.3764 19.978C42.1991 19.6047 42.1104 19.1473 42.1104 18.606V15.162H41.2144C41.0464 15.162 40.9158 15.12 40.8224 15.036C40.7291 14.9427 40.6824 14.8213 40.6824 14.672C40.6824 14.5133 40.7291 14.392 40.8224 14.308C40.9158 14.224 41.0464 14.182 41.2144 14.182H42.1104V12.656C42.1104 12.4413 42.1664 12.2827 42.2784 12.18C42.3904 12.068 42.5491 12.012 42.7544 12.012C42.9598 12.012 43.1138 12.068 43.2164 12.18C43.3284 12.2827 43.3844 12.4413 43.3844 12.656V14.182H45.0784C45.2558 14.182 45.3911 14.224 45.4844 14.308C45.5778 14.392 45.6244 14.5133 45.6244 14.672C45.6244 14.8213 45.5778 14.9427 45.4844 15.036C45.3911 15.12 45.2558 15.162 45.0784 15.162H43.3844V18.494C43.3844 19.0073 43.4918 19.3947 43.7064 19.656C43.9211 19.9173 44.2758 20.048 44.7704 20.048C44.9478 20.048 45.0971 20.034 45.2184 20.006C45.3398 19.9687 45.4471 19.95 45.5404 19.95C45.6244 19.9407 45.6944 19.9687 45.7504 20.034C45.8158 20.0993 45.8484 20.2207 45.8484 20.398C45.8484 20.5287 45.8251 20.65 45.7784 20.762C45.7411 20.8647 45.6618 20.9347 45.5404 20.972C45.4284 21.0093 45.2791 21.042 45.0924 21.07C44.9058 21.1073 44.7378 21.126 44.5884 21.126ZM49.8877 21.126C49.2157 21.126 48.6323 20.9813 48.1377 20.692C47.643 20.4027 47.2603 19.992 46.9897 19.46C46.719 18.928 46.5837 18.3027 46.5837 17.584C46.5837 17.0427 46.6583 16.5573 46.8077 16.128C46.9663 15.6893 47.1903 15.316 47.4797 15.008C47.769 14.7 48.1143 14.4667 48.5157 14.308C48.9263 14.14 49.3837 14.056 49.8877 14.056C50.5597 14.056 51.143 14.2007 51.6377 14.49C52.1323 14.7793 52.515 15.19 52.7857 15.722C53.0563 16.2447 53.1917 16.8653 53.1917 17.584C53.1917 18.1253 53.1123 18.6153 52.9537 19.054C52.8043 19.4927 52.585 19.866 52.2957 20.174C52.0063 20.482 51.6563 20.72 51.2457 20.888C50.8443 21.0467 50.3917 21.126 49.8877 21.126ZM49.8877 20.118C50.2983 20.118 50.653 20.02 50.9517 19.824C51.2597 19.628 51.493 19.3433 51.6517 18.97C51.8197 18.5967 51.9037 18.1347 51.9037 17.584C51.9037 16.7627 51.7217 16.1373 51.3577 15.708C50.9937 15.2787 50.5037 15.064 49.8877 15.064C49.4863 15.064 49.1317 15.162 48.8237 15.358C48.525 15.5447 48.2917 15.8247 48.1237 16.198C47.9557 16.5713 47.8717 17.0333 47.8717 17.584C47.8717 18.4053 48.0537 19.0353 48.4177 19.474C48.791 19.9033 49.281 20.118 49.8877 20.118ZM55.7616 21.098C55.5656 21.098 55.4116 21.042 55.2996 20.93C55.1876 20.818 55.1316 20.6547 55.1316 20.44V14.728C55.1316 14.5133 55.1876 14.3547 55.2996 14.252C55.4116 14.14 55.5656 14.084 55.7616 14.084C55.9576 14.084 56.107 14.14 56.2096 14.252C56.3216 14.3547 56.3776 14.5133 56.3776 14.728V15.918L56.2236 15.666C56.401 15.1527 56.6856 14.756 57.0776 14.476C57.479 14.196 57.955 14.056 58.5056 14.056C59.0843 14.056 59.551 14.196 59.9056 14.476C60.2603 14.7467 60.4983 15.162 60.6196 15.722H60.4236C60.5916 15.2087 60.8903 14.8027 61.3196 14.504C61.7583 14.2053 62.267 14.056 62.8456 14.056C63.359 14.056 63.779 14.1587 64.1056 14.364C64.4416 14.56 64.6936 14.8587 64.8616 15.26C65.0296 15.652 65.1136 16.156 65.1136 16.772V20.44C65.1136 20.6547 65.0576 20.818 64.9456 20.93C64.8336 21.042 64.6796 21.098 64.4836 21.098C64.2783 21.098 64.1196 21.042 64.0076 20.93C63.8956 20.818 63.8396 20.6547 63.8396 20.44V16.828C63.8396 16.2307 63.737 15.792 63.5316 15.512C63.3263 15.232 62.981 15.092 62.4956 15.092C61.9636 15.092 61.539 15.2787 61.2216 15.652C60.9136 16.016 60.7596 16.52 60.7596 17.164V20.44C60.7596 20.6547 60.7036 20.818 60.5916 20.93C60.489 21.042 60.335 21.098 60.1296 21.098C59.9243 21.098 59.7656 21.042 59.6536 20.93C59.5416 20.818 59.4856 20.6547 59.4856 20.44V16.828C59.4856 16.2307 59.383 15.792 59.1776 15.512C58.9723 15.232 58.627 15.092 58.1416 15.092C57.6096 15.092 57.185 15.2787 56.8676 15.652C56.5596 16.016 56.4056 16.52 56.4056 17.164V20.44C56.4056 20.8787 56.191 21.098 55.7616 21.098ZM70.5922 21.126C69.8549 21.126 69.2202 20.986 68.6882 20.706C68.1656 20.4167 67.7596 20.0107 67.4702 19.488C67.1809 18.956 67.0362 18.3307 67.0362 17.612C67.0362 16.9027 67.1762 16.282 67.4562 15.75C67.7456 15.218 68.1376 14.8027 68.6322 14.504C69.1362 14.2053 69.7102 14.056 70.3542 14.056C70.8116 14.056 71.2222 14.1353 71.5862 14.294C71.9596 14.4433 72.2769 14.6627 72.5382 14.952C72.7996 15.2413 72.9956 15.596 73.1262 16.016C73.2662 16.4267 73.3362 16.8933 73.3362 17.416C73.3362 17.5653 73.2896 17.682 73.1962 17.766C73.1122 17.8407 72.9862 17.878 72.8182 17.878H68.0302V17.066H72.4962L72.2582 17.262C72.2582 16.7767 72.1836 16.366 72.0342 16.03C71.8942 15.6847 71.6842 15.4233 71.4042 15.246C71.1336 15.0687 70.7929 14.98 70.3822 14.98C69.9342 14.98 69.5516 15.0873 69.2342 15.302C68.9169 15.5073 68.6742 15.8013 68.5062 16.184C68.3382 16.5573 68.2542 16.9913 68.2542 17.486V17.57C68.2542 18.41 68.4549 19.0447 68.8562 19.474C69.2576 19.9033 69.8362 20.118 70.5922 20.118C70.8909 20.118 71.1942 20.0807 71.5022 20.006C71.8196 19.9313 72.1229 19.796 72.4122 19.6C72.5522 19.516 72.6782 19.4787 72.7902 19.488C72.9116 19.488 73.0096 19.5253 73.0842 19.6C73.1589 19.6653 73.2056 19.7493 73.2242 19.852C73.2429 19.9453 73.2289 20.048 73.1822 20.16C73.1356 20.272 73.0469 20.37 72.9162 20.454C72.6082 20.6687 72.2396 20.8367 71.8102 20.958C71.3902 21.07 70.9842 21.126 70.5922 21.126ZM75.8587 21.098C75.6441 21.098 75.4807 21.042 75.3687 20.93C75.2567 20.818 75.2007 20.6547 75.2007 20.44V14.728C75.2007 14.5133 75.2567 14.3547 75.3687 14.252C75.4807 14.14 75.6347 14.084 75.8307 14.084C76.0267 14.084 76.1761 14.14 76.2787 14.252C76.3907 14.3547 76.4467 14.5133 76.4467 14.728V15.806H76.3067C76.4561 15.246 76.7361 14.8213 77.1467 14.532C77.5574 14.2427 78.0754 14.0793 78.7007 14.042C78.8501 14.0327 78.9714 14.07 79.0647 14.154C79.1581 14.2287 79.2094 14.3593 79.2187 14.546C79.2281 14.7233 79.1861 14.868 79.0927 14.98C78.9994 15.0827 78.8547 15.1433 78.6587 15.162L78.4067 15.176C77.7907 15.2413 77.3147 15.442 76.9787 15.778C76.6521 16.114 76.4887 16.576 76.4887 17.164V20.44C76.4887 20.6547 76.4327 20.818 76.3207 20.93C76.2181 21.042 76.0641 21.098 75.8587 21.098ZM82.8777 21.126C82.4577 21.126 82.033 21.0793 81.6037 20.986C81.1837 20.8833 80.787 20.7107 80.4137 20.468C80.311 20.4027 80.2363 20.3233 80.1897 20.23C80.1523 20.1273 80.1383 20.0293 80.1477 19.936C80.1663 19.8333 80.2083 19.7447 80.2737 19.67C80.339 19.5953 80.4183 19.5533 80.5117 19.544C80.6143 19.5253 80.7217 19.5487 80.8337 19.614C81.1977 19.8193 81.5477 19.964 81.8837 20.048C82.229 20.132 82.5697 20.174 82.9057 20.174C83.419 20.174 83.8063 20.0807 84.0677 19.894C84.329 19.7073 84.4597 19.46 84.4597 19.152C84.4597 18.8907 84.371 18.69 84.1937 18.55C84.0257 18.4007 83.7597 18.2887 83.3957 18.214L82.0937 17.948C81.515 17.8173 81.0763 17.6027 80.7777 17.304C80.4883 16.996 80.3437 16.604 80.3437 16.128C80.3437 15.708 80.4557 15.344 80.6797 15.036C80.913 14.7187 81.235 14.476 81.6457 14.308C82.0563 14.14 82.5277 14.056 83.0597 14.056C83.4703 14.056 83.8577 14.112 84.2217 14.224C84.595 14.3267 84.931 14.4853 85.2297 14.7C85.3417 14.7653 85.4117 14.8493 85.4397 14.952C85.477 15.0453 85.4817 15.1433 85.4537 15.246C85.435 15.3393 85.393 15.4187 85.3277 15.484C85.2623 15.5493 85.1783 15.5913 85.0757 15.61C84.973 15.6193 84.861 15.5913 84.7397 15.526C84.469 15.3393 84.189 15.2087 83.8997 15.134C83.6197 15.05 83.3397 15.008 83.0597 15.008C82.5557 15.008 82.173 15.106 81.9117 15.302C81.6597 15.498 81.5337 15.7547 81.5337 16.072C81.5337 16.3147 81.6083 16.5153 81.7577 16.674C81.9163 16.8327 82.1637 16.9493 82.4997 17.024L83.8017 17.29C84.4083 17.4207 84.8657 17.6307 85.1737 17.92C85.4817 18.2 85.6357 18.5827 85.6357 19.068C85.6357 19.7027 85.3837 20.2067 84.8797 20.58C84.385 20.944 83.7177 21.126 82.8777 21.126ZM88.1209 21.056C87.8782 21.056 87.6776 20.9767 87.5189 20.818C87.3602 20.6593 87.2809 20.4587 87.2809 20.216C87.2809 19.9733 87.3602 19.7773 87.5189 19.628C87.6776 19.4787 87.8782 19.404 88.1209 19.404C88.3822 19.404 88.5829 19.4787 88.7229 19.628C88.8722 19.7773 88.9469 19.9733 88.9469 20.216C88.9469 20.4587 88.8722 20.6593 88.7229 20.818C88.5829 20.9767 88.3822 21.056 88.1209 21.056ZM91.6825 23.618C91.4865 23.618 91.3325 23.562 91.2205 23.45C91.1085 23.338 91.0525 23.1793 91.0525 22.974V14.728C91.0525 14.5133 91.1085 14.3547 91.2205 14.252C91.3325 14.14 91.4865 14.084 91.6825 14.084C91.8878 14.084 92.0418 14.14 92.1445 14.252C92.2565 14.3547 92.3125 14.5133 92.3125 14.728V16.002L92.1585 15.75C92.3078 15.2367 92.6018 14.826 93.0405 14.518C93.4791 14.21 94.0065 14.056 94.6225 14.056C95.2291 14.056 95.7565 14.2007 96.2045 14.49C96.6525 14.77 97.0025 15.176 97.2545 15.708C97.5065 16.2307 97.6325 16.856 97.6325 17.584C97.6325 18.3027 97.5065 18.9327 97.2545 19.474C97.0118 20.006 96.6618 20.4167 96.2045 20.706C95.7565 20.986 95.2291 21.126 94.6225 21.126C94.0158 21.126 93.4931 20.972 93.0545 20.664C92.6158 20.356 92.3218 19.95 92.1725 19.446H92.3265V22.974C92.3265 23.1793 92.2705 23.338 92.1585 23.45C92.0465 23.562 91.8878 23.618 91.6825 23.618ZM94.3285 20.118C94.7298 20.118 95.0798 20.02 95.3785 19.824C95.6865 19.628 95.9245 19.3433 96.0925 18.97C96.2605 18.5967 96.3445 18.1347 96.3445 17.584C96.3445 16.7627 96.1625 16.1373 95.7985 15.708C95.4345 15.2787 94.9445 15.064 94.3285 15.064C93.9178 15.064 93.5585 15.162 93.2505 15.358C92.9518 15.5447 92.7185 15.8247 92.5505 16.198C92.3918 16.5713 92.3125 17.0333 92.3125 17.584C92.3125 18.4053 92.4945 19.0353 92.8585 19.474C93.2225 19.9033 93.7125 20.118 94.3285 20.118ZM102.153 21.126C101.556 21.126 101.029 20.986 100.571 20.706C100.123 20.4167 99.7733 20.006 99.5213 19.474C99.2693 18.9327 99.1433 18.3027 99.1433 17.584C99.1433 16.856 99.2646 16.2307 99.5073 15.708C99.7593 15.176 100.109 14.77 100.557 14.49C101.015 14.2007 101.547 14.056 102.153 14.056C102.76 14.056 103.283 14.21 103.721 14.518C104.16 14.8167 104.454 15.218 104.603 15.722H104.449V11.676C104.449 11.4613 104.501 11.3027 104.603 11.2C104.715 11.088 104.874 11.032 105.079 11.032C105.285 11.032 105.443 11.088 105.555 11.2C105.667 11.3027 105.723 11.4613 105.723 11.676V20.44C105.723 20.6547 105.667 20.818 105.555 20.93C105.443 21.042 105.285 21.098 105.079 21.098C104.883 21.098 104.729 21.042 104.617 20.93C104.505 20.818 104.449 20.6547 104.449 20.44V19.166L104.603 19.418C104.463 19.9407 104.169 20.356 103.721 20.664C103.283 20.972 102.76 21.126 102.153 21.126ZM102.447 20.118C102.858 20.118 103.213 20.02 103.511 19.824C103.819 19.628 104.053 19.3433 104.211 18.97C104.379 18.5967 104.463 18.1347 104.463 17.584C104.463 16.7627 104.281 16.1373 103.917 15.708C103.553 15.2787 103.063 15.064 102.447 15.064C102.046 15.064 101.691 15.162 101.383 15.358C101.085 15.5447 100.851 15.8247 100.683 16.198C100.515 16.5713 100.431 17.0333 100.431 17.584C100.431 18.4053 100.613 19.0353 100.977 19.474C101.351 19.9033 101.841 20.118 102.447 20.118ZM109.082 21.098C108.877 21.098 108.718 21.042 108.606 20.93C108.494 20.818 108.438 20.6547 108.438 20.44V15.162H107.598C107.43 15.162 107.299 15.12 107.206 15.036C107.113 14.9427 107.066 14.8213 107.066 14.672C107.066 14.5133 107.113 14.392 107.206 14.308C107.299 14.224 107.43 14.182 107.598 14.182H108.788L108.438 14.518V14C108.438 13.0947 108.657 12.4087 109.096 11.942C109.544 11.466 110.197 11.1907 111.056 11.116L111.49 11.088C111.63 11.0693 111.742 11.0927 111.826 11.158C111.91 11.214 111.966 11.2887 111.994 11.382C112.022 11.4753 112.022 11.5733 111.994 11.676C111.975 11.7693 111.933 11.8533 111.868 11.928C111.803 12.0027 111.719 12.0447 111.616 12.054L111.308 12.068C110.748 12.1147 110.342 12.2827 110.09 12.572C109.838 12.852 109.712 13.272 109.712 13.832V14.392L109.53 14.182H111.14C111.317 14.182 111.453 14.224 111.546 14.308C111.639 14.392 111.686 14.5133 111.686 14.672C111.686 14.8213 111.639 14.9427 111.546 15.036C111.453 15.12 111.317 15.162 111.14 15.162H109.712V20.44C109.712 20.8787 109.502 21.098 109.082 21.098Z" fill="white"/>
</svg>
