<?xml version="1.0" encoding="UTF-8"?>
<svg xmlns="http://www.w3.org/2000/svg" xmlns:xlink="http://www.w3.org/1999/xlink" width="24px" height="24px" viewBox="0 0 24 24" version="1.1">
<g id="surface1">
<path style="fill:none;stroke-width:3;stroke-linecap:round;stroke-linejoin:round;stroke:rgb(13.333333%,13.333333%,13.333333%);stroke-opacity:1;stroke-miterlimit:4;" d="M 32.260417 15.614583 L 29 20.125 C 28.708333 20.520833 28.802083 21.083333 29.197917 21.375 L 37.885417 27.635417 C 38.072917 27.770833 38.291667 27.833333 38.510417 27.802083 L 42.666667 27.364583 C 43.572917 27.260417 44.416667 27.864583 44.614583 28.75 L 45.395833 32.208333 C 45.53125 32.84375 45.885417 33.416667 46.395833 33.8125 L 47.625 34.6875 C 48.4375 35.270833 49.5625 35.083333 50.135417 34.28125 L 56.989583 24.78125 C 57.270833 24.395833 57.385417 23.90625 57.3125 23.4375 C 57.239583 22.96875 56.979167 22.541667 56.59375 22.260417 L 55.375 21.385417 C 54.833333 21 54.166667 20.822917 53.510417 20.885417 L 50.03125 21.260417 C 49.125 21.354167 48.291667 20.760417 48.09375 19.875 L 47.3125 16.40625 C 47.15625 15.770833 46.78125 15.197917 46.25 14.8125 L 36.645833 7.885417 C 32.479167 4.885417 27.239583 3.78125 22.208333 4.833333 L 20.40625 5.208333 C 20.0625 5.291667 19.791667 5.5625 19.71875 5.90625 C 19.645833 6.260417 19.78125 6.614583 20.072917 6.833333 Z M 32.260417 15.614583 " transform="matrix(0.375,0,0,0.375,0,0)"/>
<path style="fill:none;stroke-width:3;stroke-linecap:round;stroke-linejoin:round;stroke:rgb(13.333333%,13.333333%,13.333333%);stroke-opacity:1;stroke-miterlimit:4;" d="M 16.498171 20.340792 L 25.437225 20.342596 L 25.44066 58.518192 C 25.440699 60.726918 23.650366 62.518495 21.44164 62.518534 L 20.50804 62.523856 C 18.299314 62.523896 16.507738 60.733563 16.507698 58.524836 L 16.512713 20.343149 Z M 16.498171 20.340792 " transform="matrix(0.304187,0.219306,-0.219306,0.304187,10.571232,-1.664932)"/>
</g>
</svg>
