<svg width="24" height="24" viewBox="0 0 24 24" fill="none" xmlns="http://www.w3.org/2000/svg">
<g id="i24 / Search">
<path id="Icon" fill-rule="evenodd" clip-rule="evenodd" d="M14.8013 13.6013H14.1693L13.9453 13.3853C14.9053 12.2653 15.4013 10.7373 15.1293 9.11328C14.7533 6.88928 12.8973 5.11328 10.6573 4.84128C7.27328 4.42528 4.42528 7.27328 4.84128 10.6573C5.11328 12.8973 6.88928 14.7533 9.11328 15.1293C10.7373 15.4013 12.2653 14.9053 13.3853 13.9453L13.6013 14.1693V14.8013L17.0013 18.2013C17.3293 18.5293 17.8653 18.5293 18.1933 18.2013C18.5213 17.8733 18.5213 17.3373 18.1933 17.0093L14.8013 13.6013ZM10.0015 13.6015C8.00945 13.6015 6.40145 11.9935 6.40145 10.0015C6.40145 8.00945 8.00945 6.40145 10.0015 6.40145C11.9935 6.40145 13.6015 8.00945 13.6015 10.0015C13.6015 11.9935 11.9935 13.6015 10.0015 13.6015Z" fill="#A4A4A4"/>
</g>
</svg>
