<svg width="24" height="24" viewBox="0 0 24 24" fill="none" xmlns="http://www.w3.org/2000/svg">
<g id="i24/Eye/Off">
<path id="Shape" d="M10.0909 4.94574C10.7167 4.79927 11.3573 4.72605 12 4.72756C18.3636 4.72756 22 12.0003 22 12.0003C21.4482 13.0327 20.7901 14.0046 20.0364 14.9003M13.9273 13.9276C13.2474 14.6572 12.2234 14.9576 11.2571 14.7108C10.2908 14.464 9.53628 13.7095 9.28951 12.7432C9.04273 11.7769 9.34308 10.7529 10.0727 10.073M17.4 17.4003C15.846 18.5848 13.9537 19.2411 12 19.273C5.63636 19.273 2 12.0003 2 12.0003C3.13081 9.89292 4.69921 8.05175 6.6 6.60029L17.4 17.4003Z" stroke="#A4A4A4" stroke-width="1.5" stroke-linecap="round" stroke-linejoin="round"/>
<path id="Shape_2" d="M2 2L22 22" stroke="#A4A4A4" stroke-width="1.5" stroke-linecap="round" stroke-linejoin="round"/>
</g>
</svg>
