<svg width="24" height="24" viewBox="0 0 24 24" fill="none" xmlns="http://www.w3.org/2000/svg">
<g id="i24/Eye/On">
<path id="Union" fill-rule="evenodd" clip-rule="evenodd" d="M5.63989 6.55106C7.20325 5.11232 9.09076 4.25 12 4.25C15.042 4.25 17.7284 6.25914 19.5759 8.10725C20.5166 9.04828 21.2784 9.98648 21.8046 10.6884C22.0683 11.0399 22.274 11.3339 22.4147 11.5414C22.4851 11.6451 22.5394 11.7274 22.5765 11.7846C22.5951 11.8132 22.6095 11.8356 22.6194 11.8512L22.6311 11.8696L22.6344 11.8749L22.6355 11.8766L22.6358 11.8772C22.636 11.8774 22.6361 11.8776 22 12.275L22.6361 11.8776C22.7854 12.1166 22.7882 12.4191 22.6432 12.6608C21.2572 14.9716 20.2764 16.4266 17.8548 18.2731C16.1735 19.5551 14.1262 20.2653 12.0123 20.2999L12 20.3001V20.3C8.5185 20.3 5.83397 18.3113 4.06644 16.4254C3.17583 15.4751 2.49541 14.5277 2.03756 13.8185C1.80817 13.4632 1.63342 13.1658 1.51498 12.9552C1.45574 12.8498 1.4105 12.766 1.37947 12.7074C1.36396 12.6781 1.352 12.655 1.34361 12.6387L1.3337 12.6193L1.33076 12.6135L1.3298 12.6116L1.32945 12.6109C1.3293 12.6106 1.32917 12.6103 2.00004 12.275L1.32917 12.6103C1.20007 12.352 1.23071 12.0426 1.40795 11.8146C1.8884 11.1967 2.31384 10.6176 2.72616 10.0563C2.99898 9.68497 3.26605 9.32142 3.53951 8.95964C4.20721 8.07627 4.87892 7.25137 5.63989 6.55106ZM2.89316 12.3441C2.99441 12.5195 3.12959 12.7445 3.29774 13.0049C3.72057 13.6598 4.34697 14.5311 5.1609 15.3996C6.80131 17.1499 9.11466 18.7976 11.9939 18.8C13.7854 18.7694 15.5202 18.1669 16.9453 17.0803C19.0144 15.5026 19.9033 14.2847 21.1125 12.2943C20.9867 12.1113 20.8159 11.8701 20.6045 11.5882C20.108 10.926 19.3925 10.0455 18.5151 9.16774C16.7262 7.37835 14.4127 5.75 12 5.75C9.45477 5.75 7.93319 6.47909 6.65564 7.6548C5.99616 8.26171 5.38945 8.99979 4.73613 9.86413C4.49 10.1898 4.23139 10.5415 3.96075 10.9097C3.62332 11.3686 3.26717 11.8531 2.89316 12.3441ZM10.6554 10.9297C10.2493 11.3359 10.0228 11.8368 10.0228 12.275C10.0228 12.6901 10.2633 13.1898 10.6993 13.6114C11.1388 14.0364 11.6436 14.2531 12 14.2531C12.3712 14.2531 12.8773 14.0451 13.3067 13.6388C13.7303 13.2381 13.9773 12.741 13.9773 12.275C13.9773 11.7855 13.7447 11.2882 13.3504 10.9024C12.9539 10.5143 12.4529 10.2969 12 10.2969C11.5622 10.2969 11.0616 10.5234 10.6554 10.9297ZM9.59462 9.86916C10.2112 9.25237 11.0742 8.79687 12 8.79687C12.9108 8.79687 13.7734 9.21747 14.3996 9.83038C15.0281 10.4455 15.4773 11.3123 15.4773 12.275C15.4773 13.2611 14.972 14.1281 14.3376 14.7284C13.709 15.3232 12.8515 15.7531 12 15.7531C11.1338 15.7531 10.275 15.2878 9.65656 14.6897C9.03456 14.0883 8.52276 13.2239 8.52276 12.275C8.52276 11.3491 8.97801 10.486 9.59462 9.86916Z" fill="#A4A4A4"/>
</g>
</svg>
