<svg width="48" height="48" viewBox="0 0 48 48" fill="none" xmlns="http://www.w3.org/2000/svg">
<path fill-rule="evenodd" clip-rule="evenodd" d="M29.4173 15.5205C28.4862 15.5205 27.7398 16.2669 27.7398 17.198C27.7398 18.0944 28.4293 18.8169 29.302 18.8735C29.3752 18.867 29.4502 18.867 29.5234 18.8735C30.3947 18.817 31.0871 18.0954 31.0948 17.1956C31.0935 16.273 30.3459 15.5205 29.4173 15.5205ZM26.3648 17.198C26.3648 15.5075 27.7268 14.1455 29.4173 14.1455C31.1096 14.1455 32.4698 15.5184 32.4698 17.198V17.2029C32.458 18.8519 31.16 20.1908 29.5247 20.2501C29.4873 20.2514 29.4498 20.2497 29.4127 20.245C29.3756 20.2497 29.3382 20.2514 29.3008 20.2501C27.6663 20.1908 26.3648 18.8517 26.3648 17.198Z" fill="#A4A4A4"/>
<path fill-rule="evenodd" clip-rule="evenodd" d="M28.4095 21.1133C29.8031 20.8692 31.3922 21.1019 32.5474 21.8685L32.5487 21.8693C33.3383 22.3957 33.8242 23.1585 33.8242 24.0088C33.8242 24.8592 33.3383 25.622 32.5487 26.1484C31.402 26.9158 29.8319 27.1477 28.4418 26.9144C28.0674 26.8515 27.8148 26.497 27.8776 26.1225C27.9405 25.7481 28.295 25.4955 28.6695 25.5583C29.7905 25.7465 30.9882 25.5387 31.7847 25.0051L31.786 25.0043C32.2889 24.6691 32.4492 24.2952 32.4492 24.0088C32.4492 23.7227 32.289 23.349 31.7866 23.0138C30.9802 22.479 29.7646 22.2719 28.6468 22.4677C28.2728 22.5332 27.9165 22.2831 27.851 21.9091C27.7854 21.5351 28.0355 21.1788 28.4095 21.1133Z" fill="#A4A4A4"/>
<path fill-rule="evenodd" clip-rule="evenodd" d="M15.5023 17.198C15.5023 15.5184 16.8626 14.1455 18.5548 14.1455C20.2454 14.1455 21.6073 15.5075 21.6073 17.198C21.6073 18.8517 20.3058 20.1908 18.6714 20.2501C18.634 20.2514 18.5965 20.2497 18.5594 20.245C18.5223 20.2497 18.4848 20.2514 18.4474 20.2501C16.8122 20.1908 15.5141 18.8519 15.5023 17.2029L15.5023 17.198ZM16.8773 17.1956C16.885 18.0954 17.5775 18.817 18.4487 18.8735C18.5219 18.867 18.5969 18.867 18.6701 18.8735C19.5429 18.8169 20.2323 18.0944 20.2323 17.198C20.2323 16.2669 19.486 15.5205 18.5548 15.5205C17.6262 15.5205 16.8786 16.273 16.8773 17.1956Z" fill="#A4A4A4"/>
<path fill-rule="evenodd" clip-rule="evenodd" d="M16.1856 23.0138C16.992 22.479 18.2076 22.2719 19.3254 22.4677C19.6994 22.5332 20.0557 22.2831 20.1212 21.9091C20.1867 21.5351 19.9366 21.1788 19.5626 21.1133C18.169 20.8692 16.5799 21.1019 15.4247 21.8685L15.4235 21.8693C14.6339 22.3957 14.1479 23.1585 14.1479 24.0088C14.1479 24.859 14.6336 25.6216 15.4228 26.148C16.5696 26.9158 18.14 27.1478 19.5303 26.9144C19.9048 26.8515 20.1574 26.497 20.0945 26.1225C20.0316 25.7481 19.6771 25.4955 19.3027 25.5583C18.1816 25.7465 16.984 25.5387 16.1874 25.0051L16.1862 25.0043C15.6833 24.6691 15.5229 24.2952 15.5229 24.0088C15.5229 23.7227 15.6832 23.349 16.1856 23.0138Z" fill="#A4A4A4"/>
<path fill-rule="evenodd" clip-rule="evenodd" d="M23.9173 22.368C22.9862 22.368 22.2398 23.1144 22.2398 24.0455C22.2398 24.9419 22.9293 25.6644 23.802 25.721C23.8763 25.7144 23.9523 25.7145 24.0265 25.7213C24.8907 25.6717 25.5871 24.9478 25.5948 24.0431C25.5935 23.1205 24.8459 22.368 23.9173 22.368ZM20.8648 24.0455C20.8648 22.355 22.2268 20.993 23.9173 20.993C25.6096 20.993 26.9698 22.3659 26.9698 24.0455V24.0504C26.9581 25.695 25.6633 27.0501 24.0197 27.0977C23.984 27.0988 23.9482 27.097 23.9127 27.0925C23.8756 27.0972 23.8382 27.0989 23.8008 27.0976C22.1663 27.0383 20.8648 25.6992 20.8648 24.0455Z" fill="#A4A4A4"/>
<path fill-rule="evenodd" clip-rule="evenodd" d="M24.0033 27.8818C25.0744 27.8818 26.1825 28.1485 27.0487 28.726C27.8383 29.2524 28.3242 30.0151 28.3242 30.8655C28.3242 31.7158 27.8384 32.4784 27.049 33.0048C26.1791 33.5864 25.0714 33.8561 23.9998 33.8561C22.9282 33.8561 21.8205 33.5864 20.9507 33.0048C20.1612 32.4784 19.6754 31.7158 19.6754 30.8655C19.6754 30.0151 20.1614 29.2524 20.951 28.726L20.9526 28.7249C21.8225 28.1486 22.9319 27.8818 24.0033 27.8818ZM21.7129 29.8706C21.2106 30.2057 21.0504 30.5794 21.0504 30.8655C21.0504 31.1518 21.2108 31.5257 21.7137 31.861C22.3104 32.26 23.1375 32.4811 23.9998 32.4811C24.8622 32.4811 25.6884 32.2606 26.2851 31.8615C26.788 31.5263 26.9492 31.1518 26.9492 30.8655C26.9492 30.5792 26.7889 30.2053 26.286 29.87C25.6947 29.4759 24.8686 29.2568 24.0033 29.2568C23.1385 29.2568 22.3096 29.4756 21.7129 29.8706Z" fill="#A4A4A4"/>
</svg>
