<svg width="25" height="24" viewBox="0 0 25 24" fill="none" xmlns="http://www.w3.org/2000/svg">
<g filter="url(#filter0_ii_142_541237)">
<path fill-rule="evenodd" clip-rule="evenodd" d="M6.41055 2.00018C5.52689 2.00018 4.81055 2.71653 4.81055 3.60018V20.4002C4.81055 21.2838 5.52689 22.0002 6.41055 22.0002H19.4105C20.2942 22.0002 21.0105 21.2838 21.0105 20.4002V3.60018C21.0105 3.59707 21.0105 3.59395 21.0105 3.59084V7.00036L16.0105 2.00036H19.4346C19.4266 2.00024 19.4186 2.00018 19.4105 2.00018H6.41055Z" fill="#FA4E4E"/>
</g>
<path d="M16.1583 15.4695C15.4834 15.4194 14.8337 15.1688 14.3088 14.7176C13.284 14.9431 12.3092 15.2689 11.3344 15.67C10.5597 17.0484 9.83478 17.7501 9.20991 17.7501C9.08491 17.7501 8.93503 17.7251 8.83503 17.6499C8.56003 17.5246 8.41016 17.2489 8.41016 16.9733C8.41016 16.7476 8.46016 16.1211 10.8345 15.0935C11.3845 14.091 11.8093 13.0635 12.1593 11.9859C11.8593 11.3844 11.2095 9.90565 11.6593 9.1539C11.8093 8.87815 12.1093 8.72777 12.4343 8.7529C12.6842 8.7529 12.934 8.87815 13.084 9.07865C13.409 9.52977 13.384 10.4821 12.959 11.8856C13.359 12.6364 13.8829 13.3143 14.5087 13.8906C15.0337 13.7903 15.5584 13.7151 16.0833 13.7151C17.258 13.7401 17.433 14.2915 17.408 14.6174C17.408 15.4695 16.5832 15.4695 16.1583 15.4695ZM9.16003 17.0233L9.23503 16.9983C9.58491 16.873 9.85978 16.6224 10.0598 16.2965C9.68478 16.4469 9.38491 16.6975 9.16003 17.0234V17.0233ZM12.4842 9.50477H12.4092C12.3842 9.50477 12.3342 9.50477 12.3092 9.52977C12.2092 9.95577 12.2842 10.4069 12.4592 10.8079C12.6092 10.3819 12.6092 9.93077 12.4842 9.50477ZM12.6592 13.1388L12.6342 13.1888L12.6092 13.1638C12.3842 13.7403 12.1342 14.3166 11.8593 14.868L11.9093 14.843V14.893C12.4651 14.6915 13.0327 14.5241 13.6089 14.3918L13.5839 14.3668H13.6589C13.2839 13.9908 12.934 13.5648 12.6592 13.1388ZM16.0583 14.467C15.8333 14.467 15.6334 14.467 15.4084 14.517C15.6584 14.6424 15.9084 14.6925 16.1583 14.7176C16.3333 14.7426 16.5083 14.7176 16.6582 14.6675C16.6582 14.5923 16.5582 14.467 16.0583 14.467Z" fill="white"/>
<path d="M20.5407 6.53107H16.4785L21.0098 11.0623V6.99982L20.5407 6.53107Z" fill="url(#paint0_linear_142_541237)"/>
<path d="M17.6098 6.99982L21.0098 6.99982L16.0098 1.99982L16.0098 5.39982C16.0098 6.28347 16.7261 6.99982 17.6098 6.99982Z" fill="#FDB8B8"/>
<defs>
<filter id="filter0_ii_142_541237" x="4.81055" y="1.90018" width="16.1992" height="20.2" filterUnits="userSpaceOnUse" color-interpolation-filters="sRGB">
<feFlood flood-opacity="0" result="BackgroundImageFix"/>
<feBlend mode="normal" in="SourceGraphic" in2="BackgroundImageFix" result="shape"/>
<feColorMatrix in="SourceAlpha" type="matrix" values="0 0 0 0 0 0 0 0 0 0 0 0 0 0 0 0 0 0 127 0" result="hardAlpha"/>
<feOffset dy="-0.2"/>
<feGaussianBlur stdDeviation="0.05"/>
<feComposite in2="hardAlpha" operator="arithmetic" k2="-1" k3="1"/>
<feColorMatrix type="matrix" values="0 0 0 0 0 0 0 0 0 0 0 0 0 0 0 0 0 0 0.3 0"/>
<feBlend mode="normal" in2="shape" result="effect1_innerShadow_142_541237"/>
<feColorMatrix in="SourceAlpha" type="matrix" values="0 0 0 0 0 0 0 0 0 0 0 0 0 0 0 0 0 0 127 0" result="hardAlpha"/>
<feOffset dy="0.2"/>
<feGaussianBlur stdDeviation="0.05"/>
<feComposite in2="hardAlpha" operator="arithmetic" k2="-1" k3="1"/>
<feColorMatrix type="matrix" values="0 0 0 0 1 0 0 0 0 1 0 0 0 0 1 0 0 0 0.3 0"/>
<feBlend mode="normal" in2="effect1_innerShadow_142_541237" result="effect2_innerShadow_142_541237"/>
</filter>
<linearGradient id="paint0_linear_142_541237" x1="17.4941" y1="5.51544" x2="22.0254" y2="10.0467" gradientUnits="userSpaceOnUse">
<stop stop-opacity="0.2"/>
<stop offset="1" stop-opacity="0"/>
</linearGradient>
</defs>
</svg>
