<svg width="44" height="44" viewBox="0 0 44 44" fill="none" xmlns="http://www.w3.org/2000/svg">
<g filter="url(#filter0_ii_142_541230)">
<path fill-rule="evenodd" clip-rule="evenodd" d="M27.6837 3.66666L36.8503 12.8332V6.58028C36.8504 6.58684 36.8504 6.59341 36.8504 6.59999V37.4C36.8504 39.02 35.5371 40.3333 33.9171 40.3333H10.0837C8.46369 40.3333 7.15039 39.02 7.15039 37.4V6.59999C7.15039 4.97996 8.46369 3.66666 10.0837 3.66666H27.6837Z" fill="#FA4E4E"/>
</g>
<path d="M27.9549 28.3604C26.7176 28.2686 25.5264 27.8091 24.5641 26.982C22.6854 27.3954 20.8982 27.9926 19.1111 28.728C17.6907 31.2551 16.3618 32.5416 15.2162 32.5416C14.987 32.5416 14.7123 32.4958 14.5289 32.3578C14.0248 32.1282 13.75 31.6226 13.75 31.1173C13.75 30.7037 13.8417 29.5551 18.1947 27.6711C19.203 25.8332 19.9817 23.9494 20.6234 21.9738C20.0734 20.8711 18.8822 18.16 19.7067 16.7818C19.9817 16.2763 20.5317 16.0006 21.1276 16.0466C21.5857 16.0466 22.0438 16.2763 22.3188 16.6438C22.9146 17.4709 22.8688 19.2169 22.0896 21.79C22.8229 23.1665 23.7834 24.4092 24.9306 25.4658C25.8931 25.2818 26.8551 25.1441 27.8174 25.1441C29.9711 25.1899 30.2919 26.2008 30.2461 26.7982C30.2461 28.3604 28.7338 28.3604 27.9549 28.3604ZM15.1248 31.209L15.2623 31.1632C15.9037 30.9335 16.4076 30.4741 16.7743 29.8766C16.0868 30.1523 15.537 30.6118 15.1248 31.2092V31.209ZM21.219 17.4251H21.0815C21.0357 17.4251 20.944 17.4251 20.8982 17.4709C20.7148 18.2519 20.8523 19.079 21.1732 19.8141C21.4482 19.0331 21.4482 18.2061 21.219 17.4251ZM21.5398 24.0874L21.494 24.1791L21.4482 24.1332C21.0357 25.1902 20.5773 26.2468 20.0734 27.2577L20.1651 27.2119V27.3035C21.1841 26.9341 22.2246 26.6272 23.281 26.3846L23.2352 26.3387H23.3727C22.6852 25.6494 22.0438 24.8684 21.5398 24.0874ZM27.7716 26.5225C27.3591 26.5225 26.9926 26.5225 26.5801 26.6142C27.0385 26.8441 27.4968 26.9359 27.9549 26.982C28.2757 27.0278 28.5966 26.982 28.8713 26.8901C28.8713 26.7522 28.688 26.5225 27.7716 26.5225Z" fill="white"/>
<path d="M35.9902 11.974H28.543L36.8503 20.2813L36.8503 12.8333L35.9902 11.974Z" fill="url(#paint0_linear_142_541230)"/>
<path d="M30.6163 12.8333L36.8496 12.8333L27.6829 3.66668L27.6829 9.90001C27.6829 11.52 28.9962 12.8333 30.6163 12.8333Z" fill="#FDB8B8"/>
<defs>
<filter id="filter0_ii_142_541230" x="7.15039" y="3.48332" width="29.6992" height="37.0333" filterUnits="userSpaceOnUse" color-interpolation-filters="sRGB">
<feFlood flood-opacity="0" result="BackgroundImageFix"/>
<feBlend mode="normal" in="SourceGraphic" in2="BackgroundImageFix" result="shape"/>
<feColorMatrix in="SourceAlpha" type="matrix" values="0 0 0 0 0 0 0 0 0 0 0 0 0 0 0 0 0 0 127 0" result="hardAlpha"/>
<feOffset dy="-0.366667"/>
<feGaussianBlur stdDeviation="0.0916667"/>
<feComposite in2="hardAlpha" operator="arithmetic" k2="-1" k3="1"/>
<feColorMatrix type="matrix" values="0 0 0 0 0 0 0 0 0 0 0 0 0 0 0 0 0 0 0.3 0"/>
<feBlend mode="normal" in2="shape" result="effect1_innerShadow_142_541230"/>
<feColorMatrix in="SourceAlpha" type="matrix" values="0 0 0 0 0 0 0 0 0 0 0 0 0 0 0 0 0 0 127 0" result="hardAlpha"/>
<feOffset dy="0.366667"/>
<feGaussianBlur stdDeviation="0.0916667"/>
<feComposite in2="hardAlpha" operator="arithmetic" k2="-1" k3="1"/>
<feColorMatrix type="matrix" values="0 0 0 0 1 0 0 0 0 1 0 0 0 0 1 0 0 0 0.3 0"/>
<feBlend mode="normal" in2="effect1_innerShadow_142_541230" result="effect2_innerShadow_142_541230"/>
</filter>
<linearGradient id="paint0_linear_142_541230" x1="30.4049" y1="10.112" x2="38.7122" y2="18.4193" gradientUnits="userSpaceOnUse">
<stop stop-opacity="0.2"/>
<stop offset="1" stop-opacity="0"/>
</linearGradient>
</defs>
</svg>
