<svg width="160" height="40" viewBox="0 0 160 40" fill="none" xmlns="http://www.w3.org/2000/svg">
<path d="M46.4947 17.8928L47.01 16.2746L45.334 16.3276C44.549 16.2987 43.7929 16.0338 43.1572 15.5667H43.3835C44.4046 15.5619 45.3389 14.9791 45.7915 14.064L46.5284 12.4892C45.9505 12.494 45.3726 12.4603 44.7994 12.388C44.2504 12.258 43.7592 11.9595 43.3883 11.5356C42.8874 11.0011 42.194 10.6976 41.4619 10.6928C41.1778 10.6928 40.8936 10.741 40.6191 10.8276C40.6577 10.6976 40.6914 10.5676 40.7154 10.4327C40.831 9.49362 40.5662 8.54482 39.9834 7.79835L38.7119 6.23314L37.9318 8.06322C37.8066 8.3233 37.6187 8.5497 37.3779 8.71338C37.243 8.05842 36.9252 7.46123 36.4532 6.98926C35.6634 6.18016 34.5798 5.72746 33.448 5.73709C33.2506 5.73709 33.0531 5.75154 32.8605 5.78043L31.3386 6.07903C31.4686 5.56852 31.6757 5.08211 31.955 4.63421L32.793 3.32906L30.6836 3.52652L30.0094 2.08171L28.709 2.78967L27.505 1.6001L26.301 2.78967L25.0006 2.11542L24.3264 3.52652L22.217 3.28571L23.055 4.59568C23.3343 5.04358 23.5414 5.52999 23.6714 6.0405L22.2266 5.75635H22.1785C21.9762 5.72746 21.7739 5.71301 21.5716 5.71301C20.4398 5.70338 19.3562 6.15608 18.5664 6.96518C18.0896 7.44197 17.7622 8.04882 17.6321 8.71338C17.401 8.5545 17.2131 8.33778 17.0879 8.0825L16.3029 6.23795L15.0218 7.80799C14.4487 8.5545 14.1934 9.49842 14.3042 10.4327C14.3283 10.5676 14.362 10.6976 14.4006 10.8276C14.126 10.741 13.8418 10.6928 13.5578 10.6928C12.8257 10.6976 12.1322 11.0011 11.6313 11.5356C11.2653 11.9546 10.7789 12.2532 10.2346 12.388C9.65672 12.4747 9.0692 12.5084 8.4816 12.4892L9.1992 14.0881C9.65192 15.0031 10.5862 15.5859 11.6072 15.5907H11.8336C11.2075 16.0483 10.461 16.3131 9.6856 16.3468L8 16.2746L8.51528 17.8928C8.90064 19.1595 9.99384 20.0889 11.3086 20.2575C11.1738 21.1099 10.6344 21.8468 9.86384 22.2321L8.57312 22.757L9.26664 23.9659C9.83976 24.8568 10.827 25.3866 11.8818 25.377C12.1562 25.377 12.4308 25.348 12.7005 25.2903C12.7679 25.584 12.8546 25.8778 12.9509 26.1619C13.1917 26.7977 13.2062 27.4912 12.999 28.1366L12.373 29.4513L13.7745 29.8222C14.0875 29.904 14.415 29.9426 14.7377 29.9426C14.9688 29.9426 15.1952 29.9185 15.4215 29.8655C15.5853 29.827 15.749 29.7788 15.9031 29.7162C16.0814 30.0389 16.3077 30.3375 16.563 30.6023C17.4587 31.5223 18.7302 31.9894 20.3435 31.9894H21.4946L19.1202 32.9767L20.9214 33.8676C21.6487 34.224 22.3904 34.5467 23.1465 34.8308L22.9298 35.457L23.551 35.7411C24.5817 36.1456 25.6749 36.372 26.7826 36.4105H28.2611C29.364 36.372 30.4524 36.1408 31.4782 35.7363L32.0802 35.457L31.8683 34.8308C32.6341 34.5371 33.3854 34.2047 34.1174 33.8339L35.885 32.9767L33.5154 32.0135H34.6713C36.2846 32.0135 37.561 31.5319 38.4519 30.6264C38.7119 30.3615 38.9335 30.063 39.1117 29.7403C39.2658 29.8029 39.4295 29.8511 39.5933 29.8896C39.8197 29.9426 40.046 29.9667 40.2772 29.9667C40.5998 29.9667 40.9274 29.9233 41.2404 29.8463L42.6466 29.4754L42.035 28.1847C41.8038 27.5297 41.8135 26.8121 42.0591 26.1619C42.1602 25.8682 42.2422 25.5696 42.3095 25.271C42.5793 25.3288 42.8586 25.3577 43.1331 25.3577C44.1974 25.3673 45.1895 24.8183 45.753 23.9129L46.4369 22.7185L45.1654 22.1983C44.3949 21.8131 43.8555 21.0762 43.7206 20.2238C45.0354 20.0504 46.1287 19.1257 46.514 17.8543L46.4947 17.8928Z" fill="white"/>
<path d="M33.2941 23.0074H21.7356V27.3418C21.7356 29.1238 23.0215 30.2315 24.9238 30.2315C26.5131 30.2315 26.9321 30.2941 27.5196 30.8817C27.8905 30.4819 28.4154 30.2556 28.9644 30.2652V30.1978L29.3305 29.0708L28.7092 28.3918C28.4588 28.4688 28.1987 28.4978 27.9387 28.4833C27.5485 28.4785 27.1632 28.4399 26.7828 28.3629H26.6624C26.6094 28.3629 26.6094 28.3629 26.595 28.3918L26.5228 28.5122L26.3927 28.7289L26.1423 28.6711L25.0297 28.411L24.8756 28.6614V28.6904L25.0105 28.8397L24.9527 29.0323C24.8516 29.2683 24.7071 29.4802 24.524 29.6632L24.2448 29.9618L23.9895 29.6439L23.8016 29.4079C23.5994 29.143 23.5512 28.7963 23.6668 28.4833L23.3538 28.6133L23.2141 28.3051L23.1371 28.0883C22.9396 27.6308 23.0888 27.101 23.4886 26.8121L24.3844 26.3305L25.2368 26.499C25.2368 26.4172 25.2898 26.1234 25.3139 26.0512H25.2657L24.7841 26.2342L24.3025 25.9067C24.2062 25.8104 24.2014 25.6514 24.3025 25.5503L24.76 24.8568L23.5994 23.412L25.338 24.0958L25.4584 23.9514L25.6992 23.6624L25.9737 23.9225C26.046 23.9947 26.0941 24.0814 26.1182 24.1826C26.5998 24.3752 27.4908 24.9386 27.563 25.8537L27.2884 25.9645C27.3222 26.0126 27.3656 26.0512 27.4185 26.0753L28.69 26.2005L28.8056 26.1667C29.0223 26.0849 29.2534 26.0415 29.4846 26.0367C29.7158 26.0367 29.9421 26.0897 30.1492 26.1908C30.2407 26.1571 30.3419 26.1378 30.4382 26.133H30.5008C31.1799 26.133 31.5218 26.6435 31.7915 27.0481L31.9312 27.2504C32.1672 27.5875 32.4802 28.0787 32.4946 28.098L32.6343 28.3147L32.4609 28.517C32.302 28.7289 32.0516 28.8493 31.7867 28.8493C31.7096 28.8541 31.6325 28.8541 31.5555 28.8493C31.488 28.8349 31.4207 28.8156 31.3532 28.7867C31.3532 28.8541 31.3532 28.936 31.3147 29.0034L31.1172 30.14C32.4272 29.8751 33.3519 28.7 33.2989 27.3611L33.2941 23.0074ZM21.7212 22.6558H30.7224C30.3563 22.2706 30.2311 21.7167 30.3948 21.211C30.2744 21.1533 30.1588 21.0762 30.0577 20.9895C29.7061 21.2496 28.6129 22.0298 28.3528 22.2272L28.2951 22.2658L24.76 21.6397H24.6878C24.5722 21.6445 24.4567 21.6445 24.3411 21.6397C24.3073 21.7986 24.1677 21.9094 24.0088 21.9094H23.951C23.7632 21.8757 23.6331 21.6974 23.662 21.5096V21.4326C23.2044 21.1051 22.9877 20.5368 23.1081 19.9878V19.9251L23.1612 19.8866C23.1612 19.8866 23.2285 19.8385 23.32 19.7855L23.0648 19.747C22.9685 19.7277 22.9059 19.641 22.9204 19.5447C22.9348 19.4484 23.0215 19.3858 23.1178 19.4002H23.1226L23.7343 19.4966L23.792 17.3438L24.7023 16.3806L25.2706 17.5749L24.6734 19.6458L25.2128 19.7325C25.3091 19.7518 25.3717 19.8385 25.3572 19.9348C25.3428 20.0214 25.2706 20.0793 25.1839 20.0793H25.155L24.7167 20.007V20.0407C24.7648 20.1274 24.8372 20.1949 24.9286 20.2382L27.6208 20.2815L28.3095 19.6025C27.7845 19.4194 27.4089 18.9571 27.3463 18.4033C27.0092 18.2733 26.7347 18.0228 26.5805 17.7002C26.4505 17.3967 26.4264 17.0548 26.518 16.737C26.0941 16.5684 25.7088 16.3131 25.3958 15.9856H21.3984C21.5911 16.4576 21.7019 16.9585 21.7212 17.4642V22.6558Z" fill="#FCE527"/>
<path d="M52.7891 18.9378H56.7575V25.6803H59.6471V18.9378H63.6155V16.4912H52.7891V18.9378ZM67.4299 21.8275V16.5298H64.6366V25.6803H67.1024L71.9184 20.3248V25.6803H74.7118V16.4912H72.2459L67.4299 21.8275ZM84.0119 19.901H79.523V16.5298H76.7296V25.6803H79.523V22.2512H84.0119V25.6803H86.8047V16.5298H84.0119V19.901ZM96.5479 19.1883C95.8879 18.9859 95.1943 18.9041 94.5055 18.9378H91.6159V16.5298H88.8231V25.6803L94.4863 25.6418C95.0791 25.6514 95.6663 25.5839 96.2399 25.4299C97.6943 25.0735 98.6959 23.7491 98.6479 22.2512C98.7055 20.8787 97.8527 19.6265 96.5479 19.1883ZM95.1223 23.33C94.7703 23.4504 94.3951 23.4986 94.0239 23.4649H91.6159V21.1339H94.0239C94.3855 21.1099 94.7511 21.1532 95.1031 21.2495C95.5463 21.3795 95.8447 21.7889 95.8351 22.2512C95.8399 22.7232 95.5607 23.1519 95.1223 23.33ZM110.35 16.5298H106.845L103.473 19.9781H102.703V16.5298H99.9095V25.6803H102.703V22.2127H103.473L106.806 25.6803H110.524L105.881 20.8643L110.35 16.5298Z" fill="#222220"/>
<path d="M116.361 16.2409C112.585 16.2409 110.331 18.3599 110.331 21.0954C110.331 23.8309 112.604 25.95 116.341 25.95C120.079 25.95 122.332 23.8309 122.332 21.0954C122.332 18.3599 120.136 16.2409 116.361 16.2409ZM116.341 23.7153C114.473 23.7153 113.279 22.598 113.279 21.0954C113.279 19.5928 114.492 18.4948 116.341 18.4948C118.191 18.4948 119.404 19.5928 119.404 21.0954C119.404 22.598 118.21 23.7153 116.341 23.7153ZM131.536 16.8958V15.9712H128.743V16.8958C125.236 16.9728 123.137 18.4562 123.137 21.0761C123.137 23.6961 125.236 25.0639 128.743 25.1409V26.0656H131.536V25.1409C135.061 25.0639 137.161 23.6961 137.161 21.0761C137.161 18.4562 135.066 16.9728 131.536 16.8958ZM128.743 23.176C126.816 23.0989 125.968 22.3091 125.968 21.0761C125.968 19.8433 126.816 18.9571 128.743 18.88V23.176ZM131.536 23.176V18.88C133.482 18.9571 134.31 19.8433 134.31 21.0761H134.315C134.315 22.3091 133.487 23.0989 131.536 23.176ZM146.374 16.8958V15.9712H143.581V16.8958C140.075 16.9728 137.975 18.4562 137.975 21.0761C137.975 23.6961 140.075 25.0639 143.581 25.1409V26.0656H146.374V25.1409C149.9 25.0639 152 23.6961 152 21.0761C152 18.4562 149.9 16.9728 146.374 16.8958ZM143.581 23.176C141.655 23.0989 140.807 22.3091 140.807 21.0761C140.807 19.8433 141.655 18.9571 143.581 18.88V23.176ZM149.144 21.0761C149.144 22.3091 148.32 23.0989 146.374 23.176V18.88C148.32 18.9571 149.148 19.8433 149.148 21.0761H149.144ZM25.4145 24.9001C25.3566 24.9001 25.3036 24.9435 25.2988 25.0012V25.006C25.294 25.0687 25.3422 25.1264 25.4048 25.1312H25.4096C25.477 25.1312 25.5252 25.0783 25.5252 25.0157C25.5252 24.9483 25.477 24.9001 25.4145 24.9001ZM25.4096 24.8952C25.4144 24.8952 25.4145 24.9001 25.4145 24.9001C25.4193 24.9001 25.4192 24.8952 25.424 24.8952H25.4096ZM33.279 32.7936L32.6144 32.5384L32.7974 31.8496L32.9996 31.0984C32.0894 31.5655 31.1359 31.9412 30.1534 32.2205C29.6718 32.3553 29.325 32.418 29.325 32.418V32.9044C28.7327 33.0007 28.1355 33.0536 27.5335 33.0585H27.4805C26.8785 33.0536 26.2812 33.0007 25.6889 32.9044V32.4228C25.6889 32.4228 25.3373 32.3553 24.8557 32.2205C23.8732 31.9412 22.9197 31.5655 22.0094 31.0984L22.2069 31.8496L22.3947 32.5384L21.7253 32.7936L21.0029 33.0681C21.995 33.5834 23.0304 34.012 24.0996 34.3492L23.8444 35.0427C25.005 35.4858 26.2476 35.7025 27.4901 35.6736H27.519C28.7616 35.7025 30.0041 35.4858 31.1648 35.0427L30.9143 34.3492C31.9787 34.012 33.0141 33.5834 34.0062 33.0681L33.279 32.7936ZM21.8072 33.1115L22.886 32.7503L22.5633 31.6908C23.2713 32.0423 24.0033 32.3361 24.7594 32.5672L24.2296 34.012C23.3964 33.7905 22.5825 33.4872 21.8072 33.1115ZM27.5335 35.3316L27.5094 35.3124C26.4498 35.3076 25.3951 35.1631 24.3741 34.8838L25.0243 33.1211C25.8334 33.3234 26.6665 33.4341 27.5045 33.4389H27.5576C28.3956 33.4293 29.2287 33.3234 30.0378 33.1211L30.688 34.8838C29.6621 35.1728 28.5978 35.322 27.5335 35.3316ZM30.818 34.041V34.0265L30.2882 32.5817C31.0444 32.3505 31.7764 32.0568 32.4844 31.7052L32.1616 32.7647L33.2549 33.1308C32.4747 33.5112 31.656 33.8194 30.818 34.041ZM27.5045 5.30359C28.5929 5.2747 29.6621 5.60219 30.5482 6.23309C30.6879 5.52031 30.9528 4.83643 31.3332 4.21516L30.24 4.34038L29.6717 3.12192L28.5689 3.69022L27.5045 2.6355L26.4401 3.69022L25.3372 3.12192L24.769 4.34038L23.6757 4.21516C24.0562 4.83643 24.3211 5.52031 24.4608 6.23309C25.3469 5.60219 26.416 5.2747 27.5045 5.30359ZM24.7208 4.76419L25.0242 4.79791L25.1543 4.52339L25.5348 3.70467L26.2427 4.07068L26.5172 4.21035L26.7388 4.00807L27.5045 3.23269L28.2703 4.00807L28.4918 4.22479L28.7663 4.08513L29.4695 3.71911L29.8548 4.53784L29.9848 4.81235L30.2882 4.77864L30.5772 4.74493C30.4616 5.00981 30.3605 5.28433 30.2785 5.56366C28.54 4.67269 26.4739 4.67269 24.7352 5.56366C24.6534 5.28433 24.5523 5.00981 24.4367 4.74493L24.7208 4.76419ZM41.789 15.2439L41.6589 15.085C40.7632 13.9436 39.9107 12.86 38.3888 12.3639C38.4515 12.3109 38.5141 12.2628 38.5815 12.2194C39.3039 11.8101 39.8144 11.1069 39.9781 10.293C40.0601 9.55613 39.8529 8.81933 39.4002 8.23173L38.9186 7.62975L38.6152 8.34733C38.6152 8.39069 38.0806 9.54173 37.0018 9.54173H36.684C36.7417 8.78557 36.4673 8.03909 35.9327 7.49971C35.2825 6.8351 34.3867 6.46427 33.4573 6.46908C33.2838 6.46908 33.1104 6.48353 32.9419 6.50761L32.205 6.65209L32.6625 7.2541C33.0189 7.7357 33.3417 8.56885 32.9612 9.01677C32.7781 9.17573 32.5711 9.30093 32.3447 9.38757C31.8631 9.61397 31.1696 9.93661 31.1696 10.7457C31.1696 11.2707 31.5789 11.8197 32.3158 12.2868C34.4878 13.6643 35.8315 15.085 36.4143 16.6839C37.3148 19.1208 36.1397 20.5079 34.9984 21.2399L34.4878 21.5674L34.9357 21.9768C35.3355 22.3187 35.8267 22.5306 36.3517 22.5836H36.7899C37.2378 22.5836 37.6809 22.521 38.1095 22.3909C38.0036 22.5788 37.8736 22.7569 37.7339 22.9207C37.0837 23.6768 36.1204 24.091 35.1236 24.038H34.6949L34.6612 24.4667C34.6564 25.0687 34.9213 25.6369 35.3788 26.0271C35.4992 26.133 35.6341 26.2197 35.7785 26.2871C35.0658 26.9806 34.6612 27.9294 34.6468 28.9263C34.6468 29.4705 34.5216 30.01 34.2856 30.5012L33.804 31.2236H34.6612C36.0772 31.2236 37.1608 30.8335 37.912 30.0581C38.3021 29.6488 38.5911 29.1527 38.7596 28.6132C39.039 28.8492 39.3665 29.013 39.7229 29.0948C39.8915 29.1334 40.0649 29.1527 40.2382 29.1527C40.4983 29.1527 40.7584 29.1189 41.0088 29.0612L41.5578 28.9167L41.317 28.4062C41.0136 27.5923 41.0136 26.6916 41.317 25.8777C41.4952 25.348 41.6204 24.7989 41.6878 24.2403C42.1212 24.4618 42.6029 24.5726 43.0893 24.5678C43.8888 24.5774 44.6353 24.1825 45.0687 23.5131L45.3336 23.0315L44.852 22.8292C43.2386 22.1598 42.8822 20.3586 42.81 19.3857C42.9689 19.4194 43.1278 19.4387 43.2916 19.4435L43.4265 19.535C45.1795 19.535 45.767 17.7483 45.7911 17.6713L45.9886 17.0403H45.3288C43.9417 16.9921 42.6462 16.3372 41.789 15.2439ZM43.4312 19.0486H43.3638C43.0123 19.0534 42.6655 18.9571 42.3669 18.7741C42.3669 18.7741 42.1116 22.2561 44.7075 23.3349V23.3493C44.3656 23.8695 43.778 24.1777 43.1568 24.168C42.4536 24.2114 41.7745 23.9128 41.3315 23.3686C41.3459 24.1873 41.2111 25.006 40.9365 25.7766C40.5849 26.7061 40.5849 27.7368 40.9365 28.6663C40.7198 28.7192 40.5031 28.7481 40.2816 28.7481C40.1467 28.7481 40.007 28.7336 39.877 28.7C39.2365 28.5459 38.726 28.0739 38.5189 27.4526C38.5189 27.4526 38.6201 30.7949 34.7238 30.7949H34.6949C34.9887 30.2363 35.1428 29.615 35.138 28.9841C35.3066 26.5135 36.9825 26.1619 36.9825 26.1619C36.5202 26.1041 36.082 25.9404 35.6967 25.6803C35.3451 25.3865 35.1428 24.9531 35.1332 24.4956C36.2601 24.5437 37.3486 24.0765 38.0854 23.2193C38.5285 22.7136 38.8223 22.0972 38.9475 21.4373C38.3262 21.9045 37.5604 22.1405 36.7851 22.1068H36.3902C35.9712 22.0635 35.5715 21.8997 35.2488 21.6252C36.7321 20.662 37.7724 19.0149 36.8525 16.5153C36.1109 14.5119 34.3337 13.0141 32.547 11.8872C31.9546 11.5211 31.5982 11.1069 31.5982 10.7505C31.5982 9.91253 32.7878 9.88845 33.279 9.30573C33.8425 8.65077 33.4909 7.59122 32.9996 6.9555C33.1393 6.93142 33.2838 6.92179 33.4235 6.92179C34.2278 6.91215 35.0032 7.23483 35.5618 7.81275C36.1301 8.35213 36.3469 9.16605 36.1301 9.91741L36.3902 9.97037C36.5491 9.99925 36.7081 10.0137 36.8718 10.0185H36.9777C38.3888 10.0185 39.0245 8.53997 39.0245 8.53997C39.0245 8.53997 40.5272 10.3893 38.3166 11.8341C37.9361 12.0798 37.7676 12.3157 37.835 12.5565L37.8687 12.7155L38.0276 12.7444C39.6314 13.1778 40.4357 14.2856 41.4326 15.5425C42.3765 16.7417 43.8021 17.4641 45.3288 17.5171H45.3577C45.3577 17.5171 44.8761 19.0486 43.4312 19.0486Z" fill="#222220"/>
<path d="M40.3393 12.5805C40.8787 12.8887 41.3459 13.3077 41.7119 13.8086C41.9864 14.2324 42.3765 14.5695 42.8388 14.7718C43.0122 14.8296 43.2 14.8585 43.3831 14.8585C44.1199 14.8585 44.7942 14.4395 45.1313 13.7845L45.4106 13.1585L44.7315 13.1199C43.9995 12.985 43.3397 12.6094 42.8533 12.0459C42.4921 11.6558 41.9864 11.4294 41.4518 11.4246C41.0376 11.4294 40.6379 11.5547 40.2911 11.7762L39.6651 12.2145L40.3393 12.5805ZM41.4663 11.8918L41.4518 11.8966C41.8611 11.8966 42.2464 12.0748 42.521 12.3782C43.0844 13.0236 43.855 13.4522 44.7027 13.5919C44.4426 14.0783 43.9369 14.3817 43.3831 14.3865C43.2482 14.3865 43.1134 14.3625 42.9833 14.3191C42.2031 14.0542 41.9286 12.8743 40.5753 12.1615C40.8402 11.9881 41.1484 11.8966 41.4663 11.8918ZM40.6571 18.7884L40.6475 18.7788C40.2527 15.6002 37.9457 13.3029 35.3788 11.9111C35.1428 11.781 34.9212 11.6751 34.7094 11.574C35.7689 11.7907 36.8718 11.5306 37.7242 10.866C37.7242 10.866 36.236 11.9593 33.1923 10.9671C34.0351 11.5161 35.6726 12.2867 37.1703 13.5389C40.9076 16.8234 38.2347 20.0309 38.2347 20.0309C39.352 18.9714 39.7421 17.3532 39.2412 15.8988C40.0311 17.2135 40.4115 18.7354 40.3297 20.2669C40.2237 22.7906 38.8223 24.9963 37.3775 26.7541C36.944 27.308 36.6454 27.9582 36.5202 28.6517C36.7658 27.963 37.1367 27.3273 37.6183 26.7782C39.1835 24.9433 40.5079 23.041 40.6957 20.3006C40.8595 20.7822 41.5241 22.1838 42.5836 22.7086C42.5836 22.7086 41.2543 21.9092 40.6571 18.7884ZM20.7187 30.5348C20.4875 30.0435 20.3623 29.5042 20.3575 28.9599C20.3431 27.963 19.9337 27.0142 19.2209 26.3207C19.3654 26.2533 19.5003 26.1666 19.6207 26.0606C20.0782 25.6706 20.3431 25.1022 20.3383 24.5002L20.3094 24.0716H19.8759C18.8838 24.1197 17.9206 23.7104 17.2704 22.9543C17.1307 22.7906 17.0055 22.6123 16.8947 22.4246C17.3234 22.5546 17.7665 22.6172 18.2143 22.6172H18.6527C19.1775 22.5641 19.6736 22.3523 20.0734 22.0103L20.5212 21.601L20.0107 21.2735C18.8645 20.5414 17.6943 19.1544 18.5948 16.7175C19.1775 15.133 20.5212 13.7026 22.7126 12.3253C23.4494 11.8437 23.8539 11.3091 23.8539 10.7841C23.8539 9.97503 23.1749 9.65239 22.6788 9.42599C22.4525 9.33927 22.2454 9.21407 22.0624 9.05519C21.6771 8.60727 21.9998 7.75483 22.361 7.29249L22.8426 6.69048L22.1009 6.546C21.9323 6.5171 21.759 6.50747 21.5856 6.50747C20.6465 6.47857 19.7411 6.83978 19.0764 7.49957C18.5323 8.03415 18.2481 8.78543 18.3011 9.54639H18.0121C16.9285 9.54639 16.4179 8.40015 16.3987 8.35199L16.0953 7.63443L15.6137 8.23647C15.1658 8.82399 14.9587 9.56087 15.0406 10.2977C15.2043 11.1116 15.71 11.8148 16.4324 12.2241C16.4999 12.2674 16.5673 12.3156 16.6251 12.3686C15.1032 12.8502 14.2507 13.9483 13.355 15.0897L13.2249 15.2534C12.3677 16.3466 11.0674 17.0017 9.68035 17.0498H9.02051L9.22283 17.6807C9.22283 17.7577 9.82963 19.5445 11.5875 19.5445H11.6742C11.8379 19.5397 11.9968 19.5205 12.1558 19.4867C12.0835 20.4499 11.7271 22.2608 10.109 22.9302L9.62739 23.1325L9.89227 23.6141C10.3257 24.2835 11.0722 24.6785 11.8716 24.6688C12.358 24.6736 12.8348 24.5629 13.2683 24.3414C13.3357 24.9 13.4609 25.449 13.6391 25.9788C13.9425 26.7927 13.9425 27.6933 13.6391 28.5072L13.3983 29.0177L13.9473 29.1622C14.1978 29.22 14.4579 29.2537 14.7179 29.2537C14.8913 29.2537 15.0647 29.2344 15.2332 29.1959C15.5896 29.114 15.9171 28.9503 16.1964 28.7143C16.365 29.2537 16.6539 29.7498 17.0441 30.1591C17.8002 30.9345 18.8838 31.3197 20.2949 31.3246H21.1522L20.7187 30.5348ZM20.3045 30.8045C16.4083 30.8045 16.5047 27.4622 16.5047 27.4622C16.2975 28.0834 15.7871 28.5554 15.1465 28.7095C15.0165 28.7432 14.8768 28.7577 14.742 28.7577C14.5204 28.7577 14.3037 28.7287 14.0919 28.6757C14.4434 27.7462 14.4434 26.7156 14.0919 25.7861C13.8173 25.0156 13.6873 24.1969 13.7017 23.3781C13.2587 23.9223 12.5796 24.2209 11.8764 24.1776H11.8523C11.2263 24.1872 10.6387 23.8742 10.2967 23.354C12.8927 22.2752 12.6374 18.7932 12.6374 18.7932C12.3387 18.9762 11.992 19.0725 11.6404 19.0677H11.5875C10.1427 19.0677 9.66107 17.5362 9.66107 17.5362H9.68995C11.2167 17.4881 12.647 16.7657 13.591 15.5665C14.5831 14.3095 15.3922 13.2017 16.9959 12.7683L17.1548 12.7394L17.1886 12.5805C17.2319 12.3349 17.0633 12.0989 16.7069 11.8581C14.4963 10.4133 15.999 8.56391 15.999 8.56391C15.999 8.56391 16.6251 10.0425 18.0458 10.0425H18.1132C18.277 10.0377 18.4359 10.0232 18.5948 9.99431L18.8549 9.94135C18.6334 9.18999 18.8549 8.37607 19.4232 7.8367C19.9819 7.25877 20.7572 6.9361 21.5615 6.94573C21.7012 6.94573 21.8457 6.95537 21.9853 6.97945C21.5037 7.61998 21.1473 8.67951 21.7108 9.32967C22.1924 9.89319 23.3868 9.91727 23.3868 10.7745C23.3868 11.1309 23.0545 11.545 22.4621 11.9159C20.6706 13.0429 18.8935 14.5406 18.1566 16.5441C17.2367 19.0437 18.277 20.7052 19.7603 21.654C19.4376 21.9237 19.0379 22.0922 18.6189 22.1356H18.2191C17.4438 22.1693 16.678 21.9333 16.0567 21.4662C16.182 22.1259 16.4758 22.7424 16.914 23.2481C17.6509 24.1005 18.7441 24.5725 19.8711 24.5243C19.8615 24.9818 19.6591 25.4153 19.3076 25.7091C18.9223 25.9691 18.484 26.1329 18.0217 26.1907C18.0217 26.1907 19.7025 26.5326 19.8855 29.0129C19.8807 29.6438 20.0348 30.265 20.3286 30.8238L20.3045 30.8045Z" fill="#222220"/>
<path d="M11.6214 14.8539H11.6263C11.8093 14.8539 11.9971 14.825 12.1705 14.7672C12.6329 14.5649 13.023 14.2278 13.2974 13.8039C13.6586 13.3031 14.1258 12.8841 14.6652 12.5759L15.3394 12.2147L14.7134 11.7764C14.3666 11.5549 13.9669 11.4296 13.5575 11.4248C13.023 11.4296 12.5173 11.656 12.1561 12.0509C11.6745 12.6096 11.0098 12.9901 10.2826 13.1249L9.60352 13.1587L9.87808 13.7847C10.2152 14.4397 10.8846 14.8491 11.6214 14.8539ZM12.4884 12.3784C12.7581 12.075 13.1434 11.8968 13.5527 11.8968C13.8658 11.9016 14.174 11.9979 14.4389 12.1665C13.0759 12.8937 12.7918 14.0592 12.0309 14.3241C11.9056 14.3675 11.7708 14.3915 11.6359 14.3915C11.0773 14.3915 10.5668 14.0833 10.3067 13.5921C11.1543 13.4524 11.9249 13.0238 12.4884 12.3784ZM14.6894 20.2864C14.6075 18.7549 14.9832 17.233 15.7778 15.9183C15.277 17.3727 15.667 18.9909 16.7844 20.0504C16.7844 20.0504 14.1066 16.8429 17.8487 13.5583C19.3465 12.3062 20.9792 11.5356 21.822 10.9866C18.7782 11.9787 17.2901 10.8855 17.2901 10.8855C18.1425 11.5501 19.2406 11.8101 20.3001 11.5934C20.0882 11.6946 19.8666 11.8053 19.6306 11.9305C17.0637 13.3272 14.7424 15.6244 14.3619 18.8031V18.779C13.7647 21.8998 12.4355 22.6992 12.4355 22.6992C13.4902 22.1791 14.1596 20.7728 14.3186 20.2912C14.4967 23.0363 15.8356 24.9387 17.4008 26.7688C17.8776 27.3178 18.2533 27.9535 18.4989 28.6423C18.3689 27.9535 18.0702 27.3034 17.632 26.7543C16.1872 24.9965 14.7906 22.7907 14.6894 20.2864ZM26.6234 14.4879C26.792 14.3241 27.028 14.2471 27.264 14.2759V15.1862C27.2592 15.4125 27.2014 15.6292 27.0906 15.8267H28.0009C27.8901 15.6292 27.8323 15.4125 27.8275 15.1862V14.2759C28.0586 14.2471 28.2946 14.3241 28.4632 14.4879V13.857H26.6234V14.4879ZM26.243 10.1197H26.2334C26.3731 10.2401 26.5369 10.3364 26.715 10.3942L26.8306 10.4472V9.85002L25.7614 9.4021C25.8144 9.70066 25.9878 9.96074 26.243 10.1197ZM28.7812 10.1149L28.7764 10.1197C29.0316 9.96074 29.205 9.70066 29.258 9.4021L28.1888 9.85002V10.4423L28.2996 10.3894C28.4778 10.3316 28.6415 10.2353 28.7812 10.1149Z" fill="#222220"/>
<path d="M30.6976 7.70189C30.6976 6.80128 29.1806 5.99219 27.5094 5.99219C25.8382 5.99219 24.3211 6.80128 24.3211 7.70189L24.3549 7.92343L25.0242 11.7763L24.3549 12.1663L22.6066 13.1585C22.6066 13.1585 22.2165 13.3607 22.0335 13.4811C21.3737 13.9627 21.2341 14.6081 21.6145 14.8875C21.7108 14.2324 22.2839 13.7508 22.9486 13.7701C23.5024 13.7846 24.0178 14.0639 24.3308 14.5214C24.4271 14.637 24.5138 14.7622 24.5908 14.8875C24.692 15.0511 24.7931 15.1956 24.8943 15.3353H20.4346C20.8103 15.9807 21.027 16.7079 21.0751 17.4544V27.361C21.0751 29.7691 22.9197 30.9008 24.9279 30.9008C26.4691 30.9008 26.6762 30.8286 27.5238 31.6762C28.3714 30.8286 28.5786 30.9008 30.1197 30.9008C32.1135 30.9008 33.9725 29.7594 33.9725 27.361V17.464C34.0207 16.7175 34.2374 15.9903 34.613 15.345H30.1052C30.2063 15.2053 30.3075 15.0608 30.4086 14.8971C30.4905 14.7719 30.5772 14.6467 30.6687 14.5311C30.9866 14.0735 31.5019 13.7942 32.0557 13.7797C32.7203 13.7605 33.2934 14.2421 33.3898 14.8971C33.7751 14.6226 33.6354 13.9339 32.9708 13.4907C32.7926 13.3655 32.4025 13.1681 32.4025 13.1681L30.6687 12.1471L29.9993 11.757L30.6687 7.90416L30.6976 7.70189ZM24.9665 8.14499L27.3167 8.93963V12.6287L25.5878 11.7136L24.9665 8.14499ZM21.3978 15.9855H25.4481C25.7611 16.313 26.1464 16.5731 26.5703 16.7368C26.4787 17.0547 26.5028 17.3966 26.6328 17.7C26.787 18.0227 27.0614 18.2731 27.3986 18.4031C27.4612 18.957 27.8369 19.4193 28.3618 19.6023C28.0728 19.8961 27.7887 20.1707 27.6731 20.2814L24.981 20.2381C24.8895 20.1947 24.8172 20.1273 24.7691 20.0406V20.0069L25.2073 20.0791H25.2362C25.3229 20.0791 25.3951 20.0214 25.4096 19.9347C25.424 19.8383 25.3614 19.7516 25.265 19.7323L24.7257 19.6457L25.3229 17.5748L24.7546 16.3804L23.8443 17.3436L23.7866 19.4964L23.1749 19.4001C23.0786 19.3808 22.9919 19.4434 22.9727 19.5397V19.5446C22.9582 19.6409 23.0208 19.7275 23.1171 19.7468L23.3724 19.7854C23.2809 19.8383 23.2183 19.8768 23.2135 19.8865L23.1605 19.925V19.9876C23.0401 20.5367 23.2616 21.105 23.7143 21.4324V21.5095C23.6854 21.6973 23.8154 21.8755 24.0033 21.9092H24.0611C24.22 21.9092 24.3597 21.7985 24.3934 21.6395C24.509 21.6443 24.6198 21.6443 24.7353 21.6395H24.8075L28.3377 22.2801L28.3955 22.2415C28.6749 22.0441 29.7488 21.2783 30.1004 21.0038C30.2015 21.0905 30.3171 21.1675 30.4375 21.2254C30.2738 21.7311 30.399 22.2849 30.7651 22.6702H21.7205V17.464C21.7012 16.9583 21.5904 16.4575 21.3978 15.9855ZM29.797 20.7486C29.431 21.0183 28.5304 21.6732 28.2029 21.9044L25.0002 21.3458V21.2591C25.0532 21.0423 25.0821 20.8208 25.0869 20.5993L27.7838 20.6426L27.8369 20.5896C27.8802 20.5463 28.7326 19.7227 29.1661 19.2459C29.2817 19.3904 29.4165 19.5108 29.5707 19.6071C29.4936 20.0021 29.5754 20.4115 29.797 20.7486ZM24.4463 20.1707V20.1851C24.5186 20.3199 24.6246 20.4355 24.7546 20.5126C24.7498 20.71 24.7305 20.9027 24.6968 21.0953C24.6968 21.1387 24.6968 21.182 24.663 21.2254V21.2927C24.4415 21.2927 24.2248 21.2591 24.0129 21.1916C23.6276 20.9846 23.4109 20.5607 23.4735 20.1273C23.6469 20.0069 23.8443 19.9299 24.0514 19.9009C24.2296 19.8961 24.3886 20.0021 24.4463 20.1707ZM24.1141 19.5301L24.167 17.4929L24.6486 17.0113L24.9424 17.623L24.3693 19.6071L24.1141 19.5301ZM29.7729 30.2603H29.3106L29.6718 29.0803C29.7295 28.9166 29.431 28.7047 29.3058 28.5168C29.5995 28.6951 29.903 28.8539 30.216 28.9984C30.216 29.037 29.7729 30.2603 29.7729 30.2603ZM31.0106 28.9407L30.9721 28.907L30.7217 30.2073C30.5627 30.2073 30.3942 30.241 30.2401 30.2507L30.505 28.9984C30.582 28.6276 29.5851 28.5168 29.0939 27.78C28.7712 28.0497 28.357 28.1749 27.9428 28.1315C27.5768 28.1267 27.2156 28.0883 26.8592 28.016C26.7966 28.0111 26.734 28.0111 26.6714 28.016C26.5221 28.0063 26.3776 28.0834 26.3006 28.2135L26.2283 28.3339L24.8557 28.0015L24.5282 28.5699C24.4753 28.6469 24.4849 28.7528 24.5523 28.8203L24.6439 28.9214C24.5523 29.0996 24.4367 29.2634 24.2971 29.403L24.0948 29.1526C23.9407 28.9021 23.9551 28.5795 24.1285 28.3435L24.6679 27.4332L25.819 27.6067L25.6407 27.1972C25.3999 26.6579 25.7659 25.9691 25.8045 25.5743C25.8045 25.6947 25.6793 25.7187 25.5541 25.7187H25.2218C25.1977 25.7139 25.1687 25.7139 25.1446 25.7187L24.8316 25.9066L24.586 25.6802C24.5475 25.6079 24.5619 25.5213 24.6198 25.4683L25.188 24.8278L24.5138 24.0427L25.477 24.5243L25.7659 24.1776C25.8431 24.2547 25.8093 24.4569 25.8093 24.4569C26.5076 24.6303 26.9941 25.266 26.9748 25.9884V26.1281C27.0711 26.2822 27.2252 26.3882 27.3986 26.4315L28.7038 26.5615C28.9638 26.4797 29.2287 26.4267 29.4984 26.393C29.7295 26.393 29.9607 26.4652 30.1534 26.5904C30.2449 26.5279 30.3557 26.4893 30.4664 26.4845H30.5098C31.0925 26.4845 31.3381 27.0143 31.6512 27.4477C31.8871 27.78 32.205 28.2809 32.205 28.2809C32.1135 28.4157 31.9643 28.4976 31.8005 28.4976C31.7427 28.5024 31.6897 28.5024 31.6319 28.4976C31.0058 28.382 30.9143 27.0913 30.5579 26.9902H30.5002C30.4327 26.9902 30.3701 27.0287 30.3364 27.0913C30.5002 27.5295 30.4038 27.7078 30.582 28.0545C30.712 28.2616 30.8758 28.4495 31.0636 28.6083C31.0636 28.6083 31.0395 28.801 31.0106 28.9407ZM23.9937 27.6789H23.984L24.0419 27.8282C24.0033 27.9582 23.5602 28.146 23.5602 28.146L23.4639 27.9341C23.3387 27.6307 23.4302 27.2839 23.695 27.0865L24.4223 26.6434L25.1977 26.8071C25.1928 26.9613 25.241 27.1106 25.3325 27.2358L24.5186 27.0817L24.037 27.4188C23.9599 27.4863 23.9455 27.5922 23.9937 27.6789ZM33.3079 27.3658C33.3609 28.7047 32.4314 29.8798 31.1166 30.1399L31.3381 28.9744C31.3381 28.907 31.3622 28.8251 31.3719 28.7576C31.4393 28.7866 31.5067 28.8058 31.5741 28.8203C31.6512 28.8251 31.7282 28.8251 31.8053 28.8203C32.0702 28.8203 32.3206 28.6999 32.4795 28.4879L32.6529 28.2857L32.5084 28.0883C32.5084 28.0883 32.1858 27.5777 31.945 27.2406L31.8101 27.0383C31.5404 26.6338 31.1985 26.1233 30.5194 26.1233H30.4568C30.3605 26.1281 30.2594 26.1474 30.1678 26.1811C29.9607 26.0799 29.7344 26.027 29.5032 26.027C29.272 26.0318 29.0409 26.0751 28.8242 26.157L28.7086 26.1907L27.4371 26.0655C27.3842 26.0414 27.3408 26.0029 27.3071 25.9547L27.5816 25.8439C27.5046 24.9241 26.6184 24.3606 26.1368 24.1727C26.1127 24.0716 26.0646 23.985 25.9923 23.9127L25.7178 23.6527L25.477 23.9416L25.3566 24.0861L23.5747 23.354L24.7353 24.7989L24.2778 25.4923C24.1814 25.5887 24.1766 25.7476 24.2778 25.8487L24.7594 26.1763L25.241 25.9932H25.2891C25.2891 26.0655 25.2362 26.3593 25.2121 26.4411L24.3741 26.2967L23.4783 26.7783C23.0642 27.0768 22.9197 27.6259 23.1364 28.0883L23.2375 28.305L23.3772 28.6131L23.6902 28.4831C23.5746 28.7962 23.6228 29.143 23.8251 29.4079L24.0129 29.6487L24.2634 29.9665L24.5426 29.6679C24.7257 29.4849 24.8702 29.273 24.9713 29.037L25.0291 28.8443L24.8943 28.6951V28.6662L25.0483 28.4157L26.1609 28.6758L26.4113 28.7335L26.5462 28.512L26.6184 28.3916C26.6184 28.3675 26.6184 28.3627 26.6858 28.3627H26.8062C27.1867 28.4398 27.572 28.4783 27.9573 28.4831C28.2173 28.4976 28.4774 28.4687 28.7278 28.3916L29.3442 29.0948L28.9782 30.2217V30.2891C28.4292 30.2795 27.9042 30.5059 27.5335 30.9056C26.9411 30.318 26.5221 30.2555 24.9376 30.2555C23.0353 30.2555 21.7494 29.143 21.7494 27.3658V23.0314H33.3079V27.3658ZM33.621 15.9855C33.4234 16.4527 33.3175 16.9535 33.2983 17.464V20.71C32.8793 20.6185 32.5662 20.2622 32.5373 19.8335V19.6842H32.3928C32.1424 19.665 31.9112 19.5494 31.7379 19.3711C31.5259 19.1255 31.4103 18.8173 31.4055 18.4947C31.1985 18.8318 31.2177 19.2652 31.4586 19.5831C31.6463 19.8191 31.9209 19.978 32.2194 20.0165C32.3062 20.5752 32.754 21.0087 33.3127 21.0809V22.6702H31.2899C30.7602 22.4005 30.5386 21.7695 30.7746 21.2254L30.8517 21.0519L30.6735 20.9846C30.0956 20.7823 29.7777 20.161 29.9607 19.5735L29.9993 19.429L29.8644 19.3663C29.3587 19.0726 29.0794 18.4995 29.1613 17.9215C28.8964 18.1912 28.829 18.6006 28.9975 18.9377C28.9012 19.0485 28.776 19.1785 28.6363 19.323C28.1307 19.2171 27.7646 18.7788 27.7454 18.2635V18.1431L27.6346 18.0997C27.3408 18.0131 27.1 17.8107 26.9603 17.5411C26.8688 17.3195 26.8495 17.0691 26.9122 16.8379C27.0085 16.8572 27.1048 16.8716 27.2011 16.8813C27.2974 16.8861 27.3986 16.8861 27.4949 16.8813C28.2751 16.8813 29.0168 16.5442 29.5369 15.9663L33.621 15.9855ZM30.5002 12.701L31.2899 13.1826L31.4875 13.2981C31.0781 13.4089 30.7072 13.6304 30.4134 13.9387L30.3798 13.9675C30.3123 14.0398 30.2497 14.112 30.1871 14.1891L30.1486 14.2373C30.0859 14.3143 30.0282 14.3962 29.9752 14.4829L29.9463 14.5263C29.8789 14.6226 29.8162 14.7285 29.7536 14.8344C29.3154 15.7062 28.463 16.2889 27.4949 16.3852C26.5269 16.2889 25.6745 15.7062 25.2362 14.8344C25.1736 14.7285 25.111 14.6274 25.0483 14.5263L25.0098 14.4732L24.8557 14.2228L24.8124 14.1699C24.7498 14.0928 24.6871 14.0205 24.6246 13.9531L24.5908 13.9194C24.297 13.6111 23.9262 13.3896 23.5169 13.2789L23.7191 13.1633L24.5138 12.6817L25.3277 12.2001L27.4998 13.38L29.6718 12.2386L30.5002 12.701ZM29.431 11.7377L27.702 12.6479V8.94443L30.0474 8.14979L29.431 11.7377ZM27.5046 8.55435L24.9328 7.52369C25.1495 7.00356 26.1609 6.56048 27.5046 6.56048C28.8483 6.56048 29.8596 7.00356 30.0763 7.52369L27.5046 8.55435Z" fill="#222220"/>
</svg>
