<svg width="160" height="40" viewBox="0 0 160 40" fill="none" xmlns="http://www.w3.org/2000/svg">
<path d="M72.4004 15.6004L75.4404 13.3604H65.3604V26.6404H75.4404V24.4004H68.2404V21.0404H74.3204V18.8004H68.2404V15.6004H72.4004ZM59.8404 15.6004L62.8804 13.3604H51.3604V26.6404H57.3604C60.7204 26.6404 62.6404 25.1204 62.6404 22.4804C62.6404 19.9204 60.8804 18.5604 57.6804 18.5604H54.1604V15.6004H59.8404ZM57.2804 20.7204C59.1204 20.7204 59.9204 21.3604 59.9204 22.5604C59.9204 23.7604 59.0404 24.4004 57.2804 24.4004H54.2404V20.7204H57.2804ZM83.5204 13.3604H78.0804V26.6404H80.9604V22.8804H83.6004C87.1204 22.8804 89.2804 21.0404 89.2804 18.0804C89.2804 15.1204 87.0404 13.3604 83.5204 13.3604ZM83.5204 20.6404H80.9604V15.5204H83.5204C85.3604 15.5204 86.4004 16.4004 86.4004 18.0804C86.3204 19.7604 85.3604 20.6404 83.5204 20.6404ZM46.4804 23.7604C45.6804 24.1604 44.8804 24.4004 44.0004 24.4004C41.4404 24.4004 39.5204 22.5604 39.5204 20.0004C39.5204 17.4404 41.3604 15.6004 44.0004 15.6004C44.9604 15.6004 45.8404 15.9204 46.6404 16.4004L48.7204 14.8804L48.5604 14.7204C47.3604 13.6804 45.7604 13.1204 43.9204 13.1204C41.9204 13.1204 40.1604 13.7604 38.8004 15.0404C37.5204 16.3204 36.7204 18.0804 36.8004 19.9204C36.8004 21.7604 37.5204 23.5204 38.8004 24.8804C40.1604 26.1604 42.0004 26.8804 43.8404 26.8004C45.9204 26.8004 47.6804 26.0804 48.9604 24.8004L47.1204 23.4404L46.4804 23.7604ZM132.8 18.8004H126.64V13.3604H123.76V26.6404H126.64V21.2004H132.8V26.6404H135.68V13.3604H132.8V18.8004ZM113.36 13.3604L107.6 26.6404H110.48L111.6 24.0004H117.68L118.8 26.6404H121.84L116.24 13.3604H113.36ZM112.56 21.7604L114.8 16.4004L116.88 21.7604H112.56ZM146.08 19.7604L151.28 13.3604H148L143.68 19.0404H142.08V13.3604H139.2V26.6404H142.08V21.2804H143.92L148.32 26.6404H152L146.08 19.7604ZM101.6 18.5604H98.0804V15.6004H105.6V13.3604H95.2004V26.6404H101.2C104.56 26.6404 106.48 25.1204 106.48 22.4804C106.56 19.9204 104.8 18.5604 101.6 18.5604ZM101.12 24.4804H98.0804V20.8004H101.12C102.96 20.8004 103.76 21.4404 103.76 22.6404C103.84 23.8404 102.88 24.4804 101.12 24.4804Z" fill="#21A038"/>
<path d="M27.5846 13.105C28.104 13.7855 28.5437 14.5248 28.8947 15.3081L18.9356 22.7483L14.7734 20.1041V16.923L18.9356 19.5672L27.5846 13.105Z" fill="#21A038"/>
<path d="M10.5258 19.8796C10.5258 19.7369 10.5293 19.5951 10.5361 19.4541L8.01374 19.3289C8.00515 19.5116 8 19.6961 8 19.8822C7.99893 21.3369 8.28126 22.7774 8.8308 24.1212C9.38034 25.4651 10.1863 26.6857 11.2024 27.7131L12.9916 25.9007C12.2094 25.1112 11.5889 24.1729 11.1658 23.1396C10.7426 22.1063 10.5251 20.9984 10.5258 19.8796Z" fill="url(#paint0_linear_220_18475)"/>
<path d="M18.9334 11.3594C19.0741 11.3594 19.214 11.3646 19.3531 11.3715L19.4793 8.81433C19.2985 8.80563 19.1165 8.80128 18.9334 8.80128C17.4973 8.7995 16.0751 9.08522 14.7484 9.64202C13.4216 10.1988 12.2165 11.0157 11.2021 12.0459L12.9914 13.8592C13.7704 13.0662 14.6964 12.4372 15.7161 12.0082C16.7359 11.5791 17.8292 11.3587 18.9334 11.3594Z" fill="url(#paint1_linear_220_18475)"/>
<path d="M18.9336 28.4007C18.7928 28.4007 18.6528 28.4007 18.5129 28.3894L18.3867 30.9458C18.5681 30.9551 18.7505 30.9597 18.9336 30.9597C20.369 30.9612 21.7905 30.6753 23.1166 30.1184C24.4426 29.5614 25.647 28.7444 26.6605 27.7143L24.8748 25.9019C24.0956 26.6944 23.1697 27.3231 22.1501 27.7519C21.1306 28.1808 20.0375 28.4013 18.9336 28.4007Z" fill="url(#paint2_linear_220_18475)"/>
<path d="M23.6733 12.846L25.799 11.2581C23.8561 9.6636 21.4308 8.79562 18.9307 8.80007V11.359C20.6236 11.3569 22.2773 11.8754 23.6733 12.846Z" fill="url(#paint3_linear_220_18475)"/>
<path d="M29.8659 19.8798C29.8673 19.2142 29.8098 18.5496 29.6942 17.8943L27.341 19.6519C27.341 19.7276 27.341 19.8033 27.341 19.8798C27.3416 21.0704 27.0953 22.2478 26.6182 23.3357C26.1411 24.4236 25.4437 25.3977 24.5713 26.195L26.2687 28.0962C27.4028 27.0585 28.3092 25.7909 28.9289 24.3755C29.5486 22.96 29.8678 21.4284 29.8659 19.8798Z" fill="#21A038"/>
<path d="M18.9334 28.4012C17.7586 28.4016 16.5968 28.1519 15.5232 27.6684C14.4496 27.1849 13.4882 26.4782 12.7012 25.5942L10.8262 27.3136C11.8499 28.4632 13.1007 29.3818 14.4974 30.0101C15.894 30.6382 17.4053 30.9619 18.9334 30.9601V28.4012Z" fill="url(#paint4_linear_220_18475)"/>
<path d="M13.2955 13.5645L11.599 11.6633C10.4645 12.7008 9.55786 13.9684 8.93784 15.3838C8.31783 16.7993 7.99831 18.331 8.00001 19.8796H10.5258C10.5253 18.6892 10.7716 17.5118 11.2487 16.4239C11.7258 15.336 12.4232 14.3618 13.2955 13.5645Z" fill="url(#paint5_linear_220_18475)"/>
<defs>
<linearGradient id="paint0_linear_220_18475" x1="11.7132" y1="27.3938" x2="8.88726" y2="19.3331" gradientUnits="userSpaceOnUse">
<stop offset="0.14" stop-color="#F1E813"/>
<stop offset="0.3" stop-color="#E6E418"/>
<stop offset="0.58" stop-color="#C9DA26"/>
<stop offset="0.89" stop-color="#A2CC39"/>
</linearGradient>
<linearGradient id="paint1_linear_220_18475" x1="11.9233" y1="12.4983" x2="19.055" y2="9.81661" gradientUnits="userSpaceOnUse">
<stop offset="0.06" stop-color="#0FA7DF"/>
<stop offset="0.54" stop-color="#0098F8"/>
<stop offset="0.92" stop-color="#0290EA"/>
</linearGradient>
<linearGradient id="paint2_linear_220_18475" x1="18.2202" y1="29.4153" x2="26.2681" y2="27.6213" gradientUnits="userSpaceOnUse">
<stop offset="0.12" stop-color="#A2CC39"/>
<stop offset="0.28" stop-color="#86C239"/>
<stop offset="0.87" stop-color="#219F38"/>
</linearGradient>
<linearGradient id="paint3_linear_220_18475" x1="18.4053" y1="9.65711" x2="25.2928" y2="11.7544" gradientUnits="userSpaceOnUse">
<stop offset="0.06" stop-color="#0290EA"/>
<stop offset="0.79" stop-color="#0C89CA"/>
</linearGradient>
<linearGradient id="paint4_linear_220_18475" x1="11.4598" y1="27.002" x2="18.9637" y2="29.7693" gradientUnits="userSpaceOnUse">
<stop offset="0.13" stop-color="#F1E813"/>
<stop offset="0.3" stop-color="#EAE616"/>
<stop offset="0.53" stop-color="#D8DF1F"/>
<stop offset="0.8" stop-color="#BAD52D"/>
<stop offset="0.98" stop-color="#A2CC39"/>
</linearGradient>
<linearGradient id="paint5_linear_220_18475" x1="8.94097" y1="20.1894" x2="12.0139" y2="12.3017" gradientUnits="userSpaceOnUse">
<stop offset="0.07" stop-color="#A2CC39"/>
<stop offset="0.26" stop-color="#81C45E"/>
<stop offset="0.92" stop-color="#0FA7DF"/>
</linearGradient>
</defs>
</svg>
