<svg width="160" height="40" viewBox="0 0 160 40" fill="none" xmlns="http://www.w3.org/2000/svg">
<path d="M14.4004 32.5121H31.8324V36.1281H14.4004V32.5121ZM140.464 20.9041L145.96 14.8401H141.864L137.36 19.8801V14.8401H134.096V27.5841H137.376V22.2161L142.192 27.5841H146.4L140.464 20.9041ZM33.7524 21.7441C33.6644 24.1441 33.3604 24.6001 32.0324 24.6001V27.5921H32.5284C35.8644 27.5921 36.6564 25.8721 36.7764 22.0401L36.9204 17.8001H40.0004V27.5841H43.2644V14.8401H33.9764L33.7524 21.7441ZM19.5844 23.9361H26.4644L27.6084 27.5841H31.4244L26.2804 12.2561C25.7844 10.7761 25.2084 9.6001 23.2404 9.6001C21.2724 9.6001 20.6724 10.7761 20.1444 12.2561L14.7524 27.5841H18.3364L19.5844 23.9361ZM23.0724 13.6001H23.1604L25.4644 20.8641H20.6164L23.0724 13.6001ZM99.3204 16.6481H95.6804V13.0481H104.128V9.8481H92.2564V27.5841H99.3204C103.232 27.5841 105.48 25.6321 105.48 22.0641C105.48 18.6801 103.2 16.6481 99.3204 16.6481ZM99.1524 24.3761H95.6804V19.7681H99.1524C100.96 19.7681 101.976 20.5681 101.976 22.0721C101.976 23.5761 100.96 24.3761 99.1524 24.3761ZM66.8724 14.5441V9.8241H63.6164V14.5441C61.9067 14.6005 60.2893 15.3331 59.1193 16.5811C57.9493 17.8291 57.3225 19.4903 57.3764 21.2001C57.3182 22.9134 57.9428 24.5796 59.113 25.8323C60.2832 27.0851 61.9031 27.8217 63.6164 27.8801V32.6801H66.8804V27.8801C67.729 27.8522 68.5639 27.6572 69.337 27.3062C70.1102 26.9552 70.8066 26.4551 71.3862 25.8347C71.9658 25.2141 72.4174 24.4854 72.715 23.6901C73.0126 22.8948 73.1503 22.0487 73.1204 21.2001C73.1546 20.351 73.0194 19.5035 72.7226 18.7073C72.4258 17.911 71.9734 17.1818 71.3918 16.5622C70.8102 15.9427 70.111 15.4451 69.3351 15.0986C68.5591 14.7521 67.722 14.5636 66.8724 14.5441ZM63.6244 24.8001C62.7606 24.7052 61.9686 24.2746 61.4194 23.6011C60.8702 22.9277 60.6076 22.0654 60.6884 21.2001C60.618 20.337 60.8843 19.4801 61.4317 18.8091C61.979 18.1379 62.7648 17.7047 63.6244 17.6001V24.8001ZM66.8884 24.8001V17.6001C67.748 17.7047 68.5338 18.1379 69.0811 18.8091C69.6285 19.4801 69.8948 20.337 69.8244 21.2001C69.901 22.0645 69.6369 22.9246 69.0884 23.5971C68.54 24.2696 67.7506 24.7013 66.8884 24.8001ZM85.3524 23.6721V19.3761C85.3524 16.2401 83.3604 14.2801 80.0164 14.2801C76.6724 14.2801 74.7204 16.3601 74.5604 18.5281H77.8644C77.9764 18.0641 78.4724 17.2401 80.0084 17.2401C80.2956 17.2031 80.5868 17.2334 80.8596 17.3286C81.1332 17.4238 81.3804 17.5811 81.582 17.7884C81.7836 17.9956 81.9348 18.247 82.0228 18.5225C82.1108 18.7981 82.1332 19.0903 82.0884 19.3761H78.8884C75.9924 19.3761 74.2724 20.9041 74.2724 23.4321C74.2498 24.0354 74.3542 24.6367 74.5786 25.1971C74.8032 25.7575 75.1429 26.2644 75.5758 26.6852C76.0086 27.106 76.525 27.4312 77.0915 27.6399C77.658 27.8484 78.262 27.9357 78.8644 27.8961C79.5445 27.9319 80.2228 27.7995 80.8396 27.5107C81.4564 27.2218 81.9924 26.7855 82.4004 26.2401C82.666 26.6893 83.0532 27.0539 83.518 27.2918C83.982 27.5297 84.5044 27.6311 85.0244 27.5841H86.1524V24.6401C85.6004 24.6401 85.3524 24.3761 85.3524 23.6721ZM82.0884 22.8721C82.102 23.1872 82.0484 23.5016 81.9308 23.7945C81.814 24.0874 81.6364 24.3522 81.41 24.5714C81.1828 24.7906 80.9124 24.9592 80.6156 25.0663C80.3188 25.1732 80.0028 25.2161 79.6884 25.1921C78.5124 25.1921 77.5844 24.7681 77.5844 23.4961C77.5844 22.2241 78.6164 22.0401 79.4884 22.0401H82.0884V22.8721ZM51.3924 18.7121H49.0484V14.8401H45.7844V27.5841H51.4484C54.9924 27.5841 56.2484 25.2801 56.2484 23.1041C56.2644 20.2961 54.5044 18.7121 51.3924 18.7121ZM51.1524 24.8001H49.0484V21.6001H51.1524C52.2804 21.6001 52.9604 22.1121 52.9604 23.2001C52.9604 24.2881 52.3124 24.8001 51.1524 24.8001ZM117.936 23.6721V19.3761C117.936 16.2401 115.944 14.2801 112.6 14.2801C109.256 14.2801 107.304 16.3601 107.144 18.5281H110.448C110.56 18.0641 111.056 17.2401 112.592 17.2401C112.88 17.2031 113.171 17.2334 113.444 17.3286C113.717 17.4238 113.964 17.5811 114.166 17.7884C114.368 17.9956 114.519 18.247 114.607 18.5225C114.695 18.7981 114.717 19.0903 114.672 19.3761H111.472C108.576 19.3761 106.856 20.9041 106.856 23.4321C106.834 24.0354 106.938 24.6367 107.163 25.1971C107.387 25.7575 107.727 26.2644 108.16 26.6852C108.592 27.106 109.109 27.4312 109.676 27.6399C110.242 27.8484 110.846 27.9357 111.448 27.8961C112.135 27.9386 112.821 27.8095 113.446 27.5204C114.07 27.2313 114.612 26.7913 115.024 26.2401C115.286 26.6815 115.666 27.0411 116.121 27.2785C116.576 27.5159 117.088 27.6218 117.6 27.5841H118.728V24.6401C118.16 24.6401 117.936 24.3761 117.936 23.6721ZM114.688 22.8721C114.7 23.1869 114.646 23.5007 114.528 23.793C114.411 24.0853 114.233 24.3495 114.007 24.5685C113.78 24.7874 113.51 24.9561 113.214 25.0636C112.918 25.1711 112.603 25.2148 112.288 25.1921C111.112 25.1921 110.184 24.7681 110.184 23.4961C110.184 22.2241 111.216 22.0401 112.088 22.0401H114.688V22.8721ZM128.36 19.5841H123.856V14.8401H120.592V27.5921H123.856V22.5681H128.36V27.5841H131.624V14.8401H128.36V19.5841Z" fill="white"/>
</svg>
