<svg width="24" height="24" viewBox="0 0 24 24" fill="none" xmlns="http://www.w3.org/2000/svg">
<g clip-path="url(#clip0_142_541465)">
<path d="M12.866 3L22.392 19.5C22.4798 19.652 22.526 19.8245 22.526 20C22.526 20.1755 22.4798 20.348 22.392 20.5C22.3042 20.652 22.178 20.7782 22.026 20.866C21.874 20.9538 21.7015 21 21.526 21H2.474C2.29847 21 2.12602 20.9538 1.97401 20.866C1.82199 20.7782 1.69576 20.652 1.60799 20.5C1.52023 20.348 1.47402 20.1755 1.47403 20C1.47403 19.8245 1.52023 19.652 1.608 19.5L11.134 3C11.2218 2.84799 11.348 2.72177 11.5 2.63401C11.652 2.54625 11.8245 2.50004 12 2.50004C12.1755 2.50004 12.348 2.54625 12.5 2.63401C12.652 2.72177 12.7782 2.84799 12.866 3ZM12 16C11.4477 16 11 16.4477 11 17C11 17.5523 11.4477 18 12 18C12.5523 18 13 17.5523 13 17C13 16.4477 12.5523 16 12 16ZM12 9C11.4477 9 11 9.44772 11 10V13C11 13.5523 11.4477 14 12 14C12.5523 14 13 13.5523 13 13V10C13 9.44772 12.5523 9 12 9Z" fill="#DB371F"/>
</g>
<defs>
<clipPath id="clip0_142_541465">
<rect width="24" height="24" fill="white"/>
</clipPath>
</defs>
</svg>
