<svg width="47" height="33" viewBox="0 0 47 33" fill="none" xmlns="http://www.w3.org/2000/svg">
<rect width="46.2" height="33" rx="4" fill="white"/>
<mask id="mask0_220_16310" style="mask-type:luminance" maskUnits="userSpaceOnUse" x="0" y="0" width="47" height="33">
<rect width="46.2" height="33" rx="4" fill="white"/>
</mask>
<g mask="url(#mask0_220_16310)">
<rect width="50.6" height="33" fill="#F1361D"/>
<path fill-rule="evenodd" clip-rule="evenodd" d="M16.6201 5.11621L18.218 5.38864L19.4165 6.48011L19.6889 4.88217L20.7804 3.68372L19.1825 3.41129L17.984 2.31982L17.7116 3.91776L16.6201 5.11621ZM20.9003 10.7054L22.285 9.86263L23.9055 9.90012L23.0628 8.51542L23.1003 6.89486L21.7156 7.7376L20.095 7.70012L20.9378 9.08482L20.9003 10.7054ZM19.0219 19.7521L17.6674 20.6427L17.6483 19.0218L16.7578 17.6674L18.3787 17.6483L19.7331 16.7577L19.7522 18.3786L20.6428 19.733L19.0219 19.7521ZM20.1981 15.5618L21.8092 15.3833L23.2621 16.1021L23.0835 14.491L23.8024 13.0381L22.1913 13.2167L20.7384 12.4978L20.917 14.109L20.1981 15.5618Z" fill="#FFDC42"/>
<path fill-rule="evenodd" clip-rule="evenodd" d="M10.9996 13.5741L7.12025 16.3397L8.55161 11.7956L4.72266 8.96063L9.48667 8.91774L10.9996 4.40015L12.5126 8.91774L17.2766 8.96063L13.4476 11.7956L14.879 16.3397L10.9996 13.5741Z" fill="#FFDC42"/>
</g>
</svg>
