<svg width="47" height="33" viewBox="0 0 47 33" fill="none" xmlns="http://www.w3.org/2000/svg">
<rect width="46.2" height="33" rx="4" fill="white"/>
<mask id="mask0_220_16192" style="mask-type:luminance" maskUnits="userSpaceOnUse" x="0" y="0" width="47" height="33">
<rect width="46.2" height="33" rx="4" fill="white"/>
</mask>
<g mask="url(#mask0_220_16192)">
<path fill-rule="evenodd" clip-rule="evenodd" d="M46.2 0H0V2.2H46.2V0ZM46.2 4.40013H0V6.60013H46.2V4.40013ZM0 8.79987H46.2V10.9999H0V8.79987ZM46.2 13.2H0V15.4H46.2V13.2ZM0 17.6001H46.2V19.8001H0V17.6001ZM46.2 21.9999H0V24.1999H46.2V21.9999ZM0 26.4H46.2V28.6H0V26.4ZM46.2 30.8001H0V33.0001H46.2V30.8001Z" fill="#D02F44"/>
<rect width="19.8" height="15.4" fill="#46467F"/>
<g filter="url(#filter0_d_220_16192)">
<path fill-rule="evenodd" clip-rule="evenodd" d="M7.7002 4.39995C8.30772 4.39995 8.8002 3.90746 8.8002 3.29995C8.8002 2.69244 8.30772 2.19995 7.7002 2.19995C7.09269 2.19995 6.6002 2.69244 6.6002 3.29995C6.6002 3.90746 7.09269 4.39995 7.7002 4.39995ZM3.3002 4.40009C3.90772 4.40009 4.4002 3.9076 4.4002 3.30009C4.4002 2.69257 3.90772 2.20009 3.3002 2.20009C2.69269 2.20009 2.2002 2.69257 2.2002 3.30009C2.2002 3.9076 2.69269 4.40009 3.3002 4.40009ZM13.2002 3.29995C13.2002 3.90746 12.7077 4.39995 12.1002 4.39995C11.4927 4.39995 11.0002 3.90746 11.0002 3.29995C11.0002 2.69244 11.4927 2.19995 12.1002 2.19995C12.7077 2.19995 13.2002 2.69244 13.2002 3.29995ZM16.5002 4.39995C17.1077 4.39995 17.6002 3.90746 17.6002 3.29995C17.6002 2.69244 17.1077 2.19995 16.5002 2.19995C15.8927 2.19995 15.4002 2.69244 15.4002 3.29995C15.4002 3.90746 15.8927 4.39995 16.5002 4.39995ZM6.6002 5.50009C6.6002 6.1076 6.10772 6.60009 5.5002 6.60009C4.89269 6.60009 4.4002 6.1076 4.4002 5.50009C4.4002 4.89257 4.89269 4.40009 5.5002 4.40009C6.10772 4.40009 6.6002 4.89257 6.6002 5.50009ZM9.9002 6.60009C10.5077 6.60009 11.0002 6.1076 11.0002 5.50009C11.0002 4.89257 10.5077 4.40009 9.9002 4.40009C9.29269 4.40009 8.8002 4.89257 8.8002 5.50009C8.8002 6.1076 9.29269 6.60009 9.9002 6.60009ZM15.4002 5.50009C15.4002 6.1076 14.9077 6.60009 14.3002 6.60009C13.6927 6.60009 13.2002 6.1076 13.2002 5.50009C13.2002 4.89257 13.6927 4.40009 14.3002 4.40009C14.9077 4.40009 15.4002 4.89257 15.4002 5.50009ZM16.5002 8.80009C17.1077 8.80009 17.6002 8.3076 17.6002 7.70009C17.6002 7.09257 17.1077 6.60009 16.5002 6.60009C15.8927 6.60009 15.4002 7.09257 15.4002 7.70009C15.4002 8.3076 15.8927 8.80009 16.5002 8.80009ZM13.2002 7.70009C13.2002 8.3076 12.7077 8.80009 12.1002 8.80009C11.4927 8.80009 11.0002 8.3076 11.0002 7.70009C11.0002 7.09257 11.4927 6.60009 12.1002 6.60009C12.7077 6.60009 13.2002 7.09257 13.2002 7.70009ZM7.7002 8.80009C8.30772 8.80009 8.8002 8.3076 8.8002 7.70009C8.8002 7.09257 8.30772 6.60009 7.7002 6.60009C7.09269 6.60009 6.6002 7.09257 6.6002 7.70009C6.6002 8.3076 7.09269 8.80009 7.7002 8.80009ZM4.4002 7.70009C4.4002 8.3076 3.90771 8.80009 3.3002 8.80009C2.69268 8.80009 2.2002 8.3076 2.2002 7.70009C2.2002 7.09257 2.69268 6.60009 3.3002 6.60009C3.90771 6.60009 4.4002 7.09257 4.4002 7.70009ZM5.50019 11C6.1077 11 6.60019 10.5075 6.60019 9.89995C6.60019 9.29244 6.1077 8.79995 5.50019 8.79995C4.89267 8.79995 4.40019 9.29244 4.40019 9.89995C4.40019 10.5075 4.89267 11 5.50019 11ZM11.0002 9.89995C11.0002 10.5075 10.5077 11 9.9002 11C9.29268 11 8.8002 10.5075 8.8002 9.89995C8.8002 9.29244 9.29268 8.79995 9.9002 8.79995C10.5077 8.79995 11.0002 9.29244 11.0002 9.89995ZM14.3002 11C14.9077 11 15.4002 10.5075 15.4002 9.89995C15.4002 9.29244 14.9077 8.79995 14.3002 8.79995C13.6927 8.79995 13.2002 9.29244 13.2002 9.89995C13.2002 10.5075 13.6927 11 14.3002 11ZM17.6002 12.1001C17.6002 12.7076 17.1077 13.2001 16.5002 13.2001C15.8927 13.2001 15.4002 12.7076 15.4002 12.1001C15.4002 11.4926 15.8927 11.0001 16.5002 11.0001C17.1077 11.0001 17.6002 11.4926 17.6002 12.1001ZM12.1002 13.2001C12.7077 13.2001 13.2002 12.7076 13.2002 12.1001C13.2002 11.4926 12.7077 11.0001 12.1002 11.0001C11.4927 11.0001 11.0002 11.4926 11.0002 12.1001C11.0002 12.7076 11.4927 13.2001 12.1002 13.2001ZM8.8002 12.1001C8.8002 12.7076 8.30772 13.2001 7.7002 13.2001C7.09269 13.2001 6.6002 12.7076 6.6002 12.1001C6.6002 11.4926 7.09269 11.0001 7.7002 11.0001C8.30772 11.0001 8.8002 11.4926 8.8002 12.1001ZM3.3002 13.2001C3.90772 13.2001 4.4002 12.7076 4.4002 12.1001C4.4002 11.4926 3.90772 11.0001 3.3002 11.0001C2.69269 11.0001 2.2002 11.4926 2.2002 12.1001C2.2002 12.7076 2.69269 13.2001 3.3002 13.2001Z" fill="url(#paint0_linear_220_16192)"/>
</g>
</g>
<defs>
<filter id="filter0_d_220_16192" x="2.2002" y="2.19995" width="15.4004" height="13.0002" filterUnits="userSpaceOnUse" color-interpolation-filters="sRGB">
<feFlood flood-opacity="0" result="BackgroundImageFix"/>
<feColorMatrix in="SourceAlpha" type="matrix" values="0 0 0 0 0 0 0 0 0 0 0 0 0 0 0 0 0 0 127 0" result="hardAlpha"/>
<feOffset dy="2"/>
<feColorMatrix type="matrix" values="0 0 0 0 0 0 0 0 0 0 0 0 0 0 0 0 0 0 0.06 0"/>
<feBlend mode="normal" in2="BackgroundImageFix" result="effect1_dropShadow_220_16192"/>
<feBlend mode="normal" in="SourceGraphic" in2="effect1_dropShadow_220_16192" result="shape"/>
</filter>
<linearGradient id="paint0_linear_220_16192" x1="2.2002" y1="2.19995" x2="2.2002" y2="13.2" gradientUnits="userSpaceOnUse">
<stop stop-color="white"/>
<stop offset="1" stop-color="#F0F0F0"/>
</linearGradient>
</defs>
</svg>
