<svg width="48" height="48" viewBox="0 0 48 48" fill="none" xmlns="http://www.w3.org/2000/svg">
<rect width="48" height="48" rx="8" fill="#00000000"/>
<path fill-rule="evenodd" clip-rule="evenodd" d="M14 33.75C14 33.3358 14.3358 33 14.75 33H32.75C33.1642 33 33.5 33.3358 33.5 33.75C33.5 34.1642 33.1642 34.5 32.75 34.5H14.75C14.3358 34.5 14 34.1642 14 33.75Z" fill="white"/>
<path fill-rule="evenodd" clip-rule="evenodd" d="M14 21.1309C14 20.1666 14.7858 19.3809 15.75 19.3809H17.35C18.3142 19.3809 19.1 20.1666 19.1 21.1309V29.7509C19.1 30.7151 18.3142 31.5009 17.35 31.5009H15.75C14.7858 31.5009 14 30.7151 14 29.7509V21.1309ZM15.75 20.8809C15.6142 20.8809 15.5 20.9951 15.5 21.1309V29.7509C15.5 29.8866 15.6142 30.0009 15.75 30.0009H17.35C17.4858 30.0009 17.6 29.8866 17.6 29.7509V21.1309C17.6 20.9951 17.4858 20.8809 17.35 20.8809H15.75Z" fill="white"/>
<path fill-rule="evenodd" clip-rule="evenodd" d="M21.1992 17.9395C21.1992 16.9752 21.985 16.1895 22.9492 16.1895H24.5492C25.5134 16.1895 26.2992 16.9752 26.2992 17.9395V29.7495C26.2992 30.7137 25.5134 31.4995 24.5492 31.4995H22.9492C21.985 31.4995 21.1992 30.7137 21.1992 29.7495V17.9395ZM22.9492 17.6895C22.8134 17.6895 22.6992 17.8037 22.6992 17.9395V29.7495C22.6992 29.8852 22.8134 29.9995 22.9492 29.9995H24.5492C24.685 29.9995 24.7992 29.8852 24.7992 29.7495V17.9395C24.7992 17.8037 24.685 17.6895 24.5492 17.6895H22.9492Z" fill="white"/>
<path fill-rule="evenodd" clip-rule="evenodd" d="M28.3984 14.75C28.3984 13.7858 29.1842 13 30.1484 13H31.7484C32.7126 13 33.4984 13.7858 33.4984 14.75V29.75C33.4984 30.7142 32.7126 31.5 31.7484 31.5H30.1484C29.1842 31.5 28.3984 30.7142 28.3984 29.75V14.75ZM30.1484 14.5C30.0127 14.5 29.8984 14.6142 29.8984 14.75V29.75C29.8984 29.8858 30.0127 30 30.1484 30H31.7484C31.8842 30 31.9984 29.8858 31.9984 29.75V14.75C31.9984 14.6142 31.8842 14.5 31.7484 14.5H30.1484Z" fill="white"/>
</svg>
