<svg width="16" height="16" viewBox="0 0 16 16" fill="none" xmlns="http://www.w3.org/2000/svg">
<path d="M2.5 4.4H3.72222M3.72222 4.4H13.5M3.72222 4.4V12.8C3.72222 13.1183 3.85099 13.4235 4.0802 13.6485C4.30941 13.8736 4.62029 14 4.94444 14H11.0556C11.3797 14 11.6906 13.8736 11.9198 13.6485C12.149 13.4235 12.2778 13.1183 12.2778 12.8V4.4H3.72222ZM5.55556 4.4V3.2C5.55556 2.88174 5.68433 2.57652 5.91354 2.35147C6.14275 2.12643 6.45362 2 6.77778 2H9.22222C9.54638 2 9.85725 2.12643 10.0865 2.35147C10.3157 2.57652 10.4444 2.88174 10.4444 3.2V4.4M6.77778 7.4V11M9.22222 7.4V11" stroke="#1C1C1C" stroke-linecap="round" stroke-linejoin="round"/>
</svg>
