<svg width="25" height="24" viewBox="0 0 25 24" fill="none" xmlns="http://www.w3.org/2000/svg">
<g filter="url(#filter0_ii_142_541321)">
<path fill-rule="evenodd" clip-rule="evenodd" d="M6.31875 2.00018C5.43509 2.00018 4.71875 2.71653 4.71875 3.60018V20.4002C4.71875 21.2838 5.43509 22.0002 6.31875 22.0002H19.3188C20.2024 22.0002 20.9188 21.2838 20.9188 20.4002V7.00031L15.9188 2.00036H19.3428C19.3348 2.00024 19.3268 2.00018 19.3188 2.00018H6.31875Z" fill="#32BD7A"/>
</g>
<path d="M20.4489 6.53107H16.3867L20.918 11.0623V6.99982L20.4489 6.53107Z" fill="url(#paint0_linear_142_541321)"/>
<path d="M17.518 6.99982L20.918 6.99982L15.918 1.99982L15.918 5.39982C15.918 6.28347 16.6343 6.99982 17.518 6.99982Z" fill="#EBFFEC"/>
<g filter="url(#filter1_dd_142_541321)">
<path d="M10.4408 16.19C10.3208 16.19 10.2208 16.16 10.1408 16.1C10.0608 16.0333 10.0142 15.95 10.0008 15.85C9.99417 15.75 10.0275 15.65 10.1008 15.55L12.5008 12.34V12.7L10.2408 9.66C10.1608 9.54667 10.1242 9.44 10.1308 9.34C10.1442 9.24 10.1875 9.16 10.2608 9.1C10.3408 9.03333 10.4375 9 10.5508 9C10.6508 9 10.7375 9.02333 10.8108 9.07C10.8908 9.11 10.9675 9.18667 11.0408 9.3L13.0408 12.03H12.7508L14.7308 9.3C14.8042 9.18667 14.8775 9.11 14.9508 9.07C15.0308 9.02333 15.1242 9 15.2308 9C15.3508 9 15.4475 9.03333 15.5208 9.1C15.6008 9.16 15.6442 9.24 15.6508 9.34C15.6642 9.44 15.6275 9.54667 15.5408 9.66L13.2808 12.7V12.34L15.6708 15.55C15.7442 15.65 15.7775 15.75 15.7708 15.85C15.7642 15.95 15.7208 16.0333 15.6408 16.1C15.5608 16.16 15.4575 16.19 15.3308 16.19C15.2442 16.19 15.1608 16.1667 15.0808 16.12C15.0008 16.0733 14.9208 15.9967 14.8408 15.89L12.7108 12.98H13.0608L10.9408 15.89C10.8608 15.9967 10.7808 16.0733 10.7008 16.12C10.6208 16.1667 10.5342 16.19 10.4408 16.19Z" fill="white"/>
</g>
<defs>
<filter id="filter0_ii_142_541321" x="4.71875" y="1.90018" width="16.1992" height="20.2" filterUnits="userSpaceOnUse" color-interpolation-filters="sRGB">
<feFlood flood-opacity="0" result="BackgroundImageFix"/>
<feBlend mode="normal" in="SourceGraphic" in2="BackgroundImageFix" result="shape"/>
<feColorMatrix in="SourceAlpha" type="matrix" values="0 0 0 0 0 0 0 0 0 0 0 0 0 0 0 0 0 0 127 0" result="hardAlpha"/>
<feOffset dy="-0.2"/>
<feGaussianBlur stdDeviation="0.05"/>
<feComposite in2="hardAlpha" operator="arithmetic" k2="-1" k3="1"/>
<feColorMatrix type="matrix" values="0 0 0 0 0 0 0 0 0 0 0 0 0 0 0 0 0 0 0.3 0"/>
<feBlend mode="normal" in2="shape" result="effect1_innerShadow_142_541321"/>
<feColorMatrix in="SourceAlpha" type="matrix" values="0 0 0 0 0 0 0 0 0 0 0 0 0 0 0 0 0 0 127 0" result="hardAlpha"/>
<feOffset dy="0.2"/>
<feGaussianBlur stdDeviation="0.05"/>
<feComposite in2="hardAlpha" operator="arithmetic" k2="-1" k3="1"/>
<feColorMatrix type="matrix" values="0 0 0 0 1 0 0 0 0 1 0 0 0 0 1 0 0 0 0.3 0"/>
<feBlend mode="normal" in2="effect1_innerShadow_142_541321" result="effect2_innerShadow_142_541321"/>
</filter>
<filter id="filter1_dd_142_541321" x="9.9" y="8.9" width="6.67148" height="8.29" filterUnits="userSpaceOnUse" color-interpolation-filters="sRGB">
<feFlood flood-opacity="0" result="BackgroundImageFix"/>
<feColorMatrix in="SourceAlpha" type="matrix" values="0 0 0 0 0 0 0 0 0 0 0 0 0 0 0 0 0 0 127 0" result="hardAlpha"/>
<feOffset dx="0.4" dy="0.6"/>
<feGaussianBlur stdDeviation="0.2"/>
<feColorMatrix type="matrix" values="0 0 0 0 0 0 0 0 0 0 0 0 0 0 0 0 0 0 0.1 0"/>
<feBlend mode="normal" in2="BackgroundImageFix" result="effect1_dropShadow_142_541321"/>
<feColorMatrix in="SourceAlpha" type="matrix" values="0 0 0 0 0 0 0 0 0 0 0 0 0 0 0 0 0 0 127 0" result="hardAlpha"/>
<feOffset/>
<feGaussianBlur stdDeviation="0.05"/>
<feColorMatrix type="matrix" values="0 0 0 0 0 0 0 0 0 0 0 0 0 0 0 0 0 0 0.4 0"/>
<feBlend mode="normal" in2="effect1_dropShadow_142_541321" result="effect2_dropShadow_142_541321"/>
<feBlend mode="normal" in="SourceGraphic" in2="effect2_dropShadow_142_541321" result="shape"/>
</filter>
<linearGradient id="paint0_linear_142_541321" x1="17.4023" y1="5.51544" x2="21.9336" y2="10.0467" gradientUnits="userSpaceOnUse">
<stop stop-opacity="0.2"/>
<stop offset="1" stop-opacity="0"/>
</linearGradient>
</defs>
</svg>
