<svg width="25" height="24" viewBox="0 0 25 24" fill="none" xmlns="http://www.w3.org/2000/svg">
<g filter="url(#filter0_ii_142_541342)">
<path fill-rule="evenodd" clip-rule="evenodd" d="M6.04531 2.00018C5.16166 2.00018 4.44531 2.71653 4.44531 3.60018V20.4002C4.44531 21.2838 5.16166 22.0002 6.04531 22.0002H19.0453C19.929 22.0002 20.6453 21.2838 20.6453 20.4002V7.00031L15.6454 2.00036H19.0694C19.0614 2.00024 19.0534 2.00018 19.0453 2.00018H6.04531Z" fill="#576A95"/>
</g>
<g filter="url(#filter1_dd_142_541342)">
<path d="M13.9199 14.49V17.206C13.9199 17.2953 13.9023 17.3836 13.8681 17.466C13.8338 17.5484 13.7837 17.6232 13.7205 17.6862C13.5929 17.8135 13.4199 17.8851 13.2395 17.885H11.8503C11.67 17.8851 11.497 17.8136 11.3693 17.6863C11.3061 17.6233 11.256 17.5484 11.2217 17.466C11.1875 17.3835 11.1699 17.2952 11.1699 17.2059V14.49H13.9199ZM13.2395 16.046H11.8503V17.4098H13.2395V16.046ZM13.8972 11.774V13.1378H12.5308V11.774H13.8972ZM12.5478 2.19992V3.57492H13.9199V4.94992H12.5477V6.22305H13.9199V7.59805H12.5478V8.95617H13.9199V10.3143H12.5478V11.6723H11.1699V10.3142H12.542V8.95605H11.1699V7.59805H12.542V6.22305H11.1699V4.84805H12.542V3.57492H11.1699V2.19992H12.5478Z" fill="white"/>
</g>
<path d="M20.1754 6.53107H16.1133L20.6445 11.0623V6.99982L20.1754 6.53107Z" fill="url(#paint0_linear_142_541342)"/>
<path d="M17.2445 6.99982L20.6445 6.99982L15.6445 1.99982L15.6445 5.39982C15.6445 6.28347 16.3609 6.99982 17.2445 6.99982Z" fill="#BBC3D4"/>
<defs>
<filter id="filter0_ii_142_541342" x="4.44531" y="1.90018" width="16.1992" height="20.2" filterUnits="userSpaceOnUse" color-interpolation-filters="sRGB">
<feFlood flood-opacity="0" result="BackgroundImageFix"/>
<feBlend mode="normal" in="SourceGraphic" in2="BackgroundImageFix" result="shape"/>
<feColorMatrix in="SourceAlpha" type="matrix" values="0 0 0 0 0 0 0 0 0 0 0 0 0 0 0 0 0 0 127 0" result="hardAlpha"/>
<feOffset dy="-0.2"/>
<feGaussianBlur stdDeviation="0.05"/>
<feComposite in2="hardAlpha" operator="arithmetic" k2="-1" k3="1"/>
<feColorMatrix type="matrix" values="0 0 0 0 0 0 0 0 0 0 0 0 0 0 0 0 0 0 0.3 0"/>
<feBlend mode="normal" in2="shape" result="effect1_innerShadow_142_541342"/>
<feColorMatrix in="SourceAlpha" type="matrix" values="0 0 0 0 0 0 0 0 0 0 0 0 0 0 0 0 0 0 127 0" result="hardAlpha"/>
<feOffset dy="0.2"/>
<feGaussianBlur stdDeviation="0.05"/>
<feComposite in2="hardAlpha" operator="arithmetic" k2="-1" k3="1"/>
<feColorMatrix type="matrix" values="0 0 0 0 1 0 0 0 0 1 0 0 0 0 1 0 0 0 0.3 0"/>
<feBlend mode="normal" in2="effect1_innerShadow_142_541342" result="effect2_innerShadow_142_541342"/>
</filter>
<filter id="filter1_dd_142_541342" x="11.0699" y="2.09992" width="3.65" height="16.7851" filterUnits="userSpaceOnUse" color-interpolation-filters="sRGB">
<feFlood flood-opacity="0" result="BackgroundImageFix"/>
<feColorMatrix in="SourceAlpha" type="matrix" values="0 0 0 0 0 0 0 0 0 0 0 0 0 0 0 0 0 0 127 0" result="hardAlpha"/>
<feOffset dx="0.4" dy="0.6"/>
<feGaussianBlur stdDeviation="0.2"/>
<feColorMatrix type="matrix" values="0 0 0 0 0 0 0 0 0 0 0 0 0 0 0 0 0 0 0.1 0"/>
<feBlend mode="normal" in2="BackgroundImageFix" result="effect1_dropShadow_142_541342"/>
<feColorMatrix in="SourceAlpha" type="matrix" values="0 0 0 0 0 0 0 0 0 0 0 0 0 0 0 0 0 0 127 0" result="hardAlpha"/>
<feOffset/>
<feGaussianBlur stdDeviation="0.05"/>
<feColorMatrix type="matrix" values="0 0 0 0 0 0 0 0 0 0 0 0 0 0 0 0 0 0 0.4 0"/>
<feBlend mode="normal" in2="effect1_dropShadow_142_541342" result="effect2_dropShadow_142_541342"/>
<feBlend mode="normal" in="SourceGraphic" in2="effect2_dropShadow_142_541342" result="shape"/>
</filter>
<linearGradient id="paint0_linear_142_541342" x1="17.1289" y1="5.51544" x2="21.6602" y2="10.0467" gradientUnits="userSpaceOnUse">
<stop stop-opacity="0.2"/>
<stop offset="1" stop-opacity="0"/>
</linearGradient>
</defs>
</svg>
