<svg width="48" height="48" viewBox="0 0 48 48" fill="none" xmlns="http://www.w3.org/2000/svg">
<rect width="48" height="48" rx="8" fill="#00000000"/>
<path d="M31.7001 22.2V18C31.7001 17.3373 31.1628 16.8 30.5001 16.8L17.3001 16.8C16.6374 16.8 16.1001 17.3373 16.1001 18L16.1001 30C16.1001 30.6627 16.6374 31.2 17.3001 31.2L30.5001 31.2C31.1628 31.2 31.7001 30.6627 31.7001 30V25.8M32.8169 21.6H26.9001C25.5746 21.6 24.5001 22.6745 24.5001 24C24.5001 25.3255 25.5746 26.4 26.9001 26.4H32.8169C32.8629 26.4 32.9001 26.3628 32.9001 26.3168V21.6832C32.9001 21.6372 32.8629 21.6 32.8169 21.6Z" stroke="white" stroke-width="1.5"/>
</svg>
