<svg width="48" height="48" viewBox="0 0 48 48" fill="none" xmlns="http://www.w3.org/2000/svg">
<path fill-rule="evenodd" clip-rule="evenodd" d="M22.396 30.875C22.396 30.4953 22.7038 30.1875 23.0835 30.1875H32.2502C32.6299 30.1875 32.9377 30.4953 32.9377 30.875C32.9377 31.2547 32.6299 31.5625 32.2502 31.5625H23.0835C22.7038 31.5625 22.396 31.2547 22.396 30.875Z" fill="#A4A4A4"/>
<path fill-rule="evenodd" clip-rule="evenodd" d="M22.3958 24.458C22.3958 24.0783 22.7036 23.7705 23.0833 23.7705H32.25C32.6297 23.7705 32.9375 24.0783 32.9375 24.458C32.9375 24.8377 32.6297 25.1455 32.25 25.1455H23.0833C22.7036 25.1455 22.3958 24.8377 22.3958 24.458Z" fill="#A4A4A4"/>
<path fill-rule="evenodd" clip-rule="evenodd" d="M22.396 18.041C22.396 17.6613 22.7038 17.3535 23.0835 17.3535H32.2502C32.6299 17.3535 32.9377 17.6613 32.9377 18.041C32.9377 18.4207 32.6299 18.7285 32.2502 18.7285H23.0835C22.7038 18.7285 22.396 18.4207 22.396 18.041Z" fill="#A4A4A4"/>
<path fill-rule="evenodd" clip-rule="evenodd" d="M19.9028 15.7219C20.1713 15.9904 20.1713 16.4257 19.9028 16.6941L17.1528 19.4441C16.8843 19.7126 16.449 19.7126 16.1805 19.4441L15.2639 18.5275C14.9954 18.259 14.9954 17.8237 15.2639 17.5552C15.5323 17.2867 15.9677 17.2867 16.2361 17.5552L16.6667 17.9857L18.9305 15.7219C19.199 15.4534 19.6343 15.4534 19.9028 15.7219Z" fill="#A4A4A4"/>
<path fill-rule="evenodd" clip-rule="evenodd" d="M19.9028 22.1389C20.1713 22.4073 20.1713 22.8427 19.9028 23.1111L17.1528 25.8611C16.8843 26.1296 16.449 26.1296 16.1805 25.8611L15.2639 24.9445C14.9954 24.676 14.9954 24.2407 15.2639 23.9722C15.5323 23.7037 15.9677 23.7037 16.2361 23.9722L16.6667 24.4027L18.9305 22.1389C19.199 21.8704 19.6343 21.8704 19.9028 22.1389Z" fill="#A4A4A4"/>
<path fill-rule="evenodd" clip-rule="evenodd" d="M19.9028 28.5549C20.1713 28.8234 20.1713 29.2587 19.9028 29.5272L17.1528 32.2772C16.8843 32.5456 16.449 32.5456 16.1805 32.2772L15.2639 31.3605C14.9954 31.092 14.9954 30.6567 15.2639 30.3882C15.5323 30.1197 15.9677 30.1197 16.2361 30.3882L16.6667 30.8187L18.9305 28.5549C19.199 28.2864 19.6343 28.2864 19.9028 28.5549Z" fill="#A4A4A4"/>
</svg>
