<svg width="40" height="40" viewBox="0 0 40 40" fill="none" xmlns="http://www.w3.org/2000/svg">
<g id="Argentino">
<g clip-path="url(#clip0_1057_483922)">
<g id="Group 11">
<path id="Vector" d="M42.6667 0H-2.66667C-5.61219 0 -8 2.38781 -8 5.33333V34.6667C-8 37.6122 -5.61219 40 -2.66667 40H42.6667C45.6122 40 48 37.6122 48 34.6667V5.33333C48 2.38781 45.6122 0 42.6667 0Z" fill="white"/>
<path id="Vector_2" fill-rule="evenodd" clip-rule="evenodd" d="M-8 26.6667H48V40H-8V26.6667ZM-8 0H48V13.3333H-8V0Z" fill="#3ECBF8"/>
<path id="Vector_3" d="M20 24C22.2091 24 24 22.2091 24 20C24 17.7909 22.2091 16 20 16C17.7909 16 16 17.7909 16 20C16 22.2091 17.7909 24 20 24Z" fill="#FFDA2C"/>
</g>
</g>
<rect x="0.5" y="0.5" width="39" height="39" rx="7.5" stroke="#A4A4A4"/>
</g>
<defs>
<clipPath id="clip0_1057_483922">
<rect width="40" height="40" rx="8" fill="white"/>
</clipPath>
</defs>
</svg>
