<svg width="40" height="40" viewBox="0 0 40 40" fill="none" xmlns="http://www.w3.org/2000/svg">
<g clip-path="url(#clip0_1057_483757)">
<rect x="-8" width="56" height="40" rx="4" fill="white"/>
<mask id="mask0_1057_483757" style="mask-type:luminance" maskUnits="userSpaceOnUse" x="-8" y="0" width="56" height="40">
<rect x="-8" width="56" height="40" rx="4" fill="white"/>
</mask>
<g mask="url(#mask0_1057_483757)">
<rect x="-8" width="56" height="40" fill="#043CAE"/>
<path fill-rule="evenodd" clip-rule="evenodd" d="M18.2657 9.4692L20.0003 8.96115L21.7349 9.4692L21.2269 7.7346L21.7349 6L20.0003 6.50805L18.2657 6L18.7738 7.7346L18.2657 9.4692ZM18.2657 34L20.0003 33.492L21.7349 34L21.2269 32.2654L21.7349 30.5308L20.0003 31.0389L18.2657 30.5308L18.7738 32.2654L18.2657 34ZM32.2659 21.2265L30.5313 21.7346L31.0393 20L30.5313 18.2654L32.2659 18.7734L34.0005 18.2654L33.4924 20L34.0005 21.7346L32.2659 21.2265ZM6 21.7346L7.7346 21.2265L9.4692 21.7346L8.96115 20L9.4692 18.2654L7.7346 18.7734L6 18.2654L6.50805 20L6 21.7346ZM30.6224 15.0937L28.8878 15.6018L29.3959 13.8672L28.8878 12.1326L30.6224 12.6406L32.357 12.1326L31.849 13.8672L32.357 15.6018L30.6224 15.0937ZM7.64365 27.8674L9.37825 27.3593L11.1129 27.8674L10.6048 26.1328L11.1129 24.3982L9.37825 24.9062L7.64365 24.3982L8.15171 26.1328L7.64365 27.8674ZM26.1329 10.6044L24.3983 11.1125L24.9063 9.37789L24.3983 7.64329L26.1329 8.15134L27.8675 7.64329L27.3594 9.37789L27.8675 11.1125L26.1329 10.6044ZM12.133 32.3569L13.8676 31.8489L15.6022 32.3569L15.0941 30.6223L15.6022 28.8877L13.8676 29.3958L12.133 28.8877L12.641 30.6223L12.133 32.3569ZM30.6224 27.3593L28.8878 27.8674L29.3959 26.1328L28.8878 24.3982L30.6224 24.9062L32.357 24.3982L31.849 26.1328L32.357 27.8674L30.6224 27.3593ZM7.64365 15.6018L9.37825 15.0937L11.1129 15.6018L10.6048 13.8672L11.1129 12.1326L9.37825 12.6406L7.64365 12.1326L8.15171 13.8672L7.64365 15.6018ZM26.1329 31.8489L24.3983 32.3569L24.9063 30.6223L24.3983 28.8877L26.1329 29.3958L27.8675 28.8877L27.3594 30.6223L27.8675 32.3569L26.1329 31.8489ZM12.133 11.1125L13.8676 10.6044L15.6022 11.1125L15.0941 9.37789L15.6022 7.64329L13.8676 8.15134L12.133 7.64329L12.641 9.37789L12.133 11.1125Z" fill="#FFD429"/>
</g>
</g>
<rect x="0.5" y="0.5" width="39" height="39" rx="7.5" stroke="#A4A4A4"/>
<defs>
<clipPath id="clip0_1057_483757">
<rect width="40" height="40" rx="8" fill="white"/>
</clipPath>
</defs>
</svg>
