<svg width="40" height="40" viewBox="0 0 40 40" fill="none" xmlns="http://www.w3.org/2000/svg">
<rect x="0.5" y="0.5" width="39" height="39" rx="7.5" fill="#F93939"/>
<rect x="0.5" y="0.5" width="39" height="39" rx="7.5" stroke="#A4A4A4"/>
<path fill-rule="evenodd" clip-rule="evenodd" d="M19.2159 25.2933C19.4746 25.32 19.7359 25.3333 19.9999 25.3333C20.2666 25.3333 20.5253 25.32 20.7839 25.2933L19.9999 23.3333L19.2159 25.2933ZM15.5999 23.84C14.2053 22.736 13.3333 21.1253 13.3333 19.3333C13.3333 17.2187 14.5493 15.36 16.3839 14.2933L18.6666 20L15.5999 23.84ZM23.6159 14.2933C25.4506 15.36 26.6666 17.2187 26.6666 19.3333C26.6666 21.128 25.7919 22.7387 24.3999 23.84L21.3333 20L23.6159 14.2933ZM23.3492 14.144C22.3626 13.6267 21.2213 13.3333 19.9999 13.3333C18.7786 13.3333 17.6346 13.6267 16.6506 14.144L19.9999 18.3307L23.3492 14.144Z" fill="#FFDA2C"/>
<path fill-rule="evenodd" clip-rule="evenodd" d="M20 32C26.6267 32 32 26.6267 32 20C32 13.3733 26.6267 8 20 8C13.3733 8 8 13.3733 8 20C8 26.6267 13.3733 32 20 32ZM20 29.3333C25.1547 29.3333 29.3333 25.1547 29.3333 20C29.3333 14.8453 25.1547 10.6667 20 10.6667C14.8453 10.6667 10.6667 14.8453 10.6667 20C10.6667 25.1547 14.8453 29.3333 20 29.3333Z" fill="#FFDA2C"/>
</svg>
