<svg width="40" height="40" viewBox="0 0 40 40" fill="none" xmlns="http://www.w3.org/2000/svg">
<rect x="0.5" y="0.5" width="39" height="39" rx="7.5" fill="#03BCDB"/>
<rect x="0.5" y="0.5" width="39" height="39" rx="7.5" stroke="#A4A4A4"/>
<path fill-rule="evenodd" clip-rule="evenodd" d="M2.66675 6.65334C2.66675 5.92534 3.28541 5.33334 4.00008 5.33334C4.73608 5.33334 5.33341 5.90934 5.33341 6.65334V12.0133C5.33341 12.7413 4.71475 13.3333 4.00008 13.3333C3.26408 13.3333 2.66675 12.7573 2.66675 12.0133V6.65334ZM5.33341 11.9867C5.33341 11.2587 5.95208 10.6667 6.66675 10.6667C7.40275 10.6667 8.00008 11.2427 8.00008 11.9867V17.3467C8.00008 18.0747 7.38141 18.6667 6.66675 18.6667C5.93075 18.6667 5.33341 18.0907 5.33341 17.3467V11.9867ZM5.33341 22.6533C5.33341 21.9253 5.95208 21.3333 6.66675 21.3333C7.40275 21.3333 8.00008 21.9093 8.00008 22.6533V28.0133C8.00008 28.7413 7.38141 29.3333 6.66675 29.3333C5.93075 29.3333 5.33341 28.7573 5.33341 28.0133V22.6533ZM2.66675 27.9867C2.66675 27.2587 3.28541 26.6667 4.00008 26.6667C4.73608 26.6667 5.33341 27.2427 5.33341 27.9867V33.3467C5.33341 34.0747 4.71475 34.6667 4.00008 34.6667C3.26408 34.6667 2.66675 34.0907 2.66675 33.3467V27.9867ZM2.66675 17.3333C2.66675 16.5973 3.28541 16 4.00008 16C4.73608 16 5.33341 16.6187 5.33341 17.3333C5.33341 18.0693 4.71475 18.6667 4.00008 18.6667C3.26408 18.6667 2.66675 18.048 2.66675 17.3333ZM5.33341 6.66668C5.33341 5.93068 5.95208 5.33334 6.66675 5.33334C7.40275 5.33334 8.00008 5.95201 8.00008 6.66668C8.00008 7.40268 7.38141 8.00001 6.66675 8.00001C5.93075 8.00001 5.33341 7.38134 5.33341 6.66668ZM2.66675 20C2.66675 19.264 3.28541 18.6667 4.00008 18.6667C4.73608 18.6667 5.33341 19.2853 5.33341 20C5.33341 20.736 4.71475 21.3333 4.00008 21.3333C3.26408 21.3333 2.66675 20.7147 2.66675 20ZM5.33341 33.3333C5.33341 32.5973 5.95208 32 6.66675 32C7.40275 32 8.00008 32.6187 8.00008 33.3333C8.00008 34.0693 7.38141 34.6667 6.66675 34.6667C5.93075 34.6667 5.33341 34.048 5.33341 33.3333ZM2.66675 22.6667C2.66675 21.9307 3.28541 21.3333 4.00008 21.3333C4.73608 21.3333 5.33341 21.952 5.33341 22.6667C5.33341 23.4027 4.71475 24 4.00008 24C3.26408 24 2.66675 23.3813 2.66675 22.6667Z" fill="#FFDA2C"/>
<path d="M27.9999 24C31.6818 24 34.6666 21.0152 34.6666 17.3333C34.6666 13.6514 31.6818 10.6667 27.9999 10.6667C24.318 10.6667 21.3333 13.6514 21.3333 17.3333C21.3333 21.0152 24.318 24 27.9999 24Z" fill="#FFDA2C"/>
<path fill-rule="evenodd" clip-rule="evenodd" d="M18.6667 18.6667L21.3334 24L28.0001 26.6667L34.6667 24L37.3334 18.6667V26.6667L28.0001 29.3333L18.6667 26.6667V18.6667Z" fill="#FFDA2C"/>
</svg>
