<svg width="40" height="40" viewBox="0 0 40 40" fill="none" xmlns="http://www.w3.org/2000/svg">
<g clip-path="url(#clip0_1057_483985)">
<rect width="40" height="40" rx="8" fill="#FFDA2C"/>
<path fill-rule="evenodd" clip-rule="evenodd" d="M-8 0H10.6667V40H-8V0Z" fill="#1A47B8"/>
<path fill-rule="evenodd" clip-rule="evenodd" d="M13.3333 13.3333H26.6666V26.6667H13.3333V13.3333ZM13.3333 26.6667L19.9999 32L26.6666 26.6667H13.3333ZM18.6666 10.6667H21.3333V13.3333H18.6666V10.6667Z" fill="#AE6A3E"/>
<path fill-rule="evenodd" clip-rule="evenodd" d="M16 16H24V21.3333H16V16Z" fill="#AF010D"/>
<path fill-rule="evenodd" clip-rule="evenodd" d="M16 21.3333H24V25.3333H16V21.3333ZM16 25.3333L20 28L24 25.3333H16Z" fill="#1A47B8"/>
<path fill-rule="evenodd" clip-rule="evenodd" d="M20.0001 18.6667C20.7361 18.6667 21.3334 19.2373 21.3334 20.0133V22.6533C21.3334 23.4 20.7147 24 20.0001 24C19.2641 24 18.6667 23.4293 18.6667 22.6533V20.0133C18.6667 19.2667 19.2854 18.6667 20.0001 18.6667Z" fill="#FFDA2C"/>
<path fill-rule="evenodd" clip-rule="evenodd" d="M29.3333 0H47.9999V40H29.3333V0Z" fill="#AF010D"/>
</g>
<rect x="0.5" y="0.5" width="39" height="39" rx="7.5" stroke="#A4A4A4"/>
<defs>
<clipPath id="clip0_1057_483985">
<rect width="40" height="40" rx="8" fill="white"/>
</clipPath>
</defs>
</svg>
