<svg width="40" height="40" viewBox="0 0 40 40" fill="none" xmlns="http://www.w3.org/2000/svg">
<g clip-path="url(#clip0_1057_483750)">
<rect width="40" height="40" rx="8" fill="white"/>
<path fill-rule="evenodd" clip-rule="evenodd" d="M0 0H24V18.6667H0V0Z" fill="#1A47B8"/>
<path fill-rule="evenodd" clip-rule="evenodd" d="M24 0V2.66667H56V0H24ZM24 5.33333V8H56V5.33333H24ZM24 10.6667V13.3333H56V10.6667H24ZM24 16V18.6667H56V16H24ZM0 21.3333V24H56V21.3333H0ZM0 26.6667V29.3333H56V26.6667H0ZM0 32V34.6667H56V32H0ZM0 37.3333V40H56V37.3333H0Z" fill="#F93939"/>
<path fill-rule="evenodd" clip-rule="evenodd" d="M2.66675 2.66669V5.33335H5.33341V2.66669H2.66675ZM8.00008 2.66669V5.33335H10.6667V2.66669H8.00008ZM13.3334 2.66669V5.33335H16.0001V2.66669H13.3334ZM18.6667 2.66669V5.33335H21.3334V2.66669H18.6667ZM16.0001 5.33335V8.00002H18.6667V5.33335H16.0001ZM10.6667 5.33335V8.00002H13.3334V5.33335H10.6667ZM5.33341 5.33335V8.00002H8.00008V5.33335H5.33341ZM2.66675 8.00002V10.6667H5.33341V8.00002H2.66675ZM8.00008 8.00002V10.6667H10.6667V8.00002H8.00008ZM13.3334 8.00002V10.6667H16.0001V8.00002H13.3334ZM18.6667 8.00002V10.6667H21.3334V8.00002H18.6667ZM2.66675 13.3334V16H5.33341V13.3334H2.66675ZM8.00008 13.3334V16H10.6667V13.3334H8.00008ZM13.3334 13.3334V16H16.0001V13.3334H13.3334ZM18.6667 13.3334V16H21.3334V13.3334H18.6667ZM16.0001 10.6667V13.3334H18.6667V10.6667H16.0001ZM10.6667 10.6667V13.3334H13.3334V10.6667H10.6667ZM5.33341 10.6667V13.3334H8.00008V10.6667H5.33341Z" fill="white"/>
</g>
<rect x="0.5" y="0.5" width="39" height="39" rx="7.5" stroke="#A4A4A4"/>
<defs>
<clipPath id="clip0_1057_483750">
<rect width="40" height="40" rx="8" fill="white"/>
</clipPath>
</defs>
</svg>
