<svg width="48" height="48" viewBox="0 0 48 48" fill="none" xmlns="http://www.w3.org/2000/svg">
<path fill-rule="evenodd" clip-rule="evenodd" d="M15.176 19.2491C15.9876 18.2842 17.3791 17.8125 19.4169 17.8125H28.5835C30.6213 17.8125 32.0128 18.2842 32.8245 19.2491C33.6282 20.2047 33.7047 21.4601 33.5758 22.6306L32.888 29.9674C32.7871 30.9098 32.5505 31.943 31.709 32.7117C30.8738 33.4748 29.5798 33.8542 27.6669 33.8542H20.3335C18.4206 33.8542 17.1266 33.4748 16.2914 32.7117C15.45 31.943 15.2134 30.9098 15.1125 29.9674L15.1115 29.9583L14.4246 22.6306C14.2958 21.4601 14.3722 20.2047 15.176 19.2491ZM16.2282 20.1342C15.7958 20.6483 15.6741 21.4208 15.7919 22.4852L15.7931 22.4967L16.4801 29.8254C16.5718 30.6773 16.7617 31.279 17.2188 31.6966C17.683 32.1206 18.5615 32.4792 20.3335 32.4792H27.6669C29.4389 32.4792 30.3174 32.1206 30.7816 31.6966C31.2387 31.279 31.4286 30.6773 31.5203 29.8254L32.2085 22.4852C32.3262 21.4208 32.2046 20.6483 31.7722 20.1342C31.3463 19.6279 30.4599 19.1875 28.5835 19.1875H19.4169C17.5405 19.1875 16.6541 19.6279 16.2282 20.1342Z" fill="#A4A4A4"/>
<path fill-rule="evenodd" clip-rule="evenodd" d="M21.0611 16.7125C21.0222 17.0108 21.021 17.3498 21.021 17.7663V18.4997C21.021 18.8794 20.7132 19.1872 20.3335 19.1872C19.9538 19.1872 19.646 18.8794 19.646 18.4997L19.646 17.7425C19.646 17.3543 19.646 16.9302 19.6977 16.5345C19.7512 16.1245 19.8659 15.6892 20.1346 15.3003C20.7 14.4824 21.7356 14.1455 23.2669 14.1455H24.7335C26.2648 14.1455 27.3004 14.4824 27.8658 15.3003C28.1345 15.6892 28.2492 16.1245 28.3028 16.5345C28.3544 16.9302 28.3544 17.3543 28.3544 17.7425L28.3544 18.4997C28.3544 18.8794 28.0466 19.1872 27.6669 19.1872C27.2872 19.1872 26.9794 18.8794 26.9794 18.4997V17.7663C26.9794 17.3498 26.9783 17.0108 26.9393 16.7125C26.9012 16.4204 26.8326 16.2238 26.7346 16.0821C26.5667 15.8391 26.1356 15.5205 24.7335 15.5205H23.2669C21.8648 15.5205 21.4338 15.8391 21.2658 16.0821C21.1678 16.2238 21.0992 16.4204 21.0611 16.7125Z" fill="#A4A4A4"/>
<path fill-rule="evenodd" clip-rule="evenodd" d="M22.8552 24.6882C22.8545 24.7537 22.8545 24.8283 22.8545 24.9167V25.8608C22.8545 26.1189 22.8568 26.3087 22.8792 26.4698C22.9007 26.6246 22.9349 26.7 22.9639 26.7409C22.9963 26.7865 23.1575 26.9792 24.0003 26.9792C24.847 26.9792 25.0063 26.7847 25.0379 26.7395C25.0671 26.6978 25.1012 26.6213 25.1224 26.4646C25.1445 26.3017 25.1462 26.111 25.1462 25.8517V24.9167C25.1462 24.8283 25.1462 24.7537 25.1454 24.6882C25.08 24.6875 25.0054 24.6875 24.917 24.6875H23.0837C22.9953 24.6875 22.9207 24.6875 22.8552 24.6882ZM23.0536 23.3125C23.0636 23.3125 23.0736 23.3125 23.0837 23.3125H24.917C24.927 23.3125 24.9371 23.3125 24.9471 23.3125C25.1498 23.3125 25.3552 23.3124 25.5229 23.331C25.6937 23.35 25.9775 23.4008 26.2052 23.6285C26.4329 23.8561 26.4837 24.1399 26.5026 24.3108C26.5213 24.4784 26.5212 24.6839 26.5212 24.8866C26.5212 24.8966 26.5212 24.9066 26.5212 24.9167V25.862C26.5212 26.1 26.5212 26.3817 26.485 26.649C26.4475 26.9263 26.3653 27.241 26.1642 27.5283C25.7352 28.1407 24.9779 28.3542 24.0003 28.3542C23.0281 28.3542 22.2727 28.1435 21.8421 27.536C21.6397 27.2504 21.5559 26.9367 21.5173 26.6593C21.4795 26.3881 21.4795 26.1024 21.4795 25.8608V24.9167C21.4795 24.9066 21.4795 24.8966 21.4795 24.8866C21.4795 24.6839 21.4794 24.4784 21.498 24.3108C21.517 24.1399 21.5678 23.8561 21.7954 23.6285C22.0231 23.4008 22.3069 23.35 22.4778 23.331C22.6454 23.3124 22.8508 23.3125 23.0536 23.3125Z" fill="#A4A4A4"/>
<path fill-rule="evenodd" clip-rule="evenodd" d="M33.4021 22.6786C33.6254 22.9857 33.5575 23.4157 33.2504 23.639C31.0356 25.2498 28.5052 26.2078 25.9194 26.5335C25.5427 26.5809 25.1989 26.314 25.1514 25.9372C25.104 25.5605 25.3709 25.2167 25.7476 25.1692C28.1119 24.8715 30.4215 23.9962 32.4417 22.527C32.7487 22.3037 33.1787 22.3716 33.4021 22.6786Z" fill="#A4A4A4"/>
<path fill-rule="evenodd" clip-rule="evenodd" d="M14.8346 22.9418C15.049 22.6285 15.4769 22.5483 15.7902 22.7628C17.7601 24.111 19.9814 24.9236 22.2434 25.1769C22.6208 25.2192 22.8924 25.5593 22.8502 25.9366C22.8079 26.314 22.4678 26.5856 22.0904 26.5434C19.6042 26.265 17.1688 25.3726 15.0136 23.8975C14.7003 23.683 14.6201 23.2552 14.8346 22.9418Z" fill="#A4A4A4"/>
</svg>
