<svg width="24" height="24" viewBox="0 0 24 24" fill="none" xmlns="http://www.w3.org/2000/svg">
<path d="M4.28564 6.85704H5.99993M5.99993 6.85704H19.7142M5.99993 6.85704V18.857C5.99993 19.3117 6.18054 19.7477 6.50203 20.0692C6.82352 20.3907 7.25956 20.5713 7.71422 20.5713H16.2856C16.7403 20.5713 17.1763 20.3907 17.4978 20.0692C17.8193 19.7477 17.9999 19.3117 17.9999 18.857V6.85704H5.99993ZM8.57136 6.85704V5.14275C8.57136 4.6881 8.75197 4.25206 9.07346 3.93057C9.39495 3.60908 9.83099 3.42847 10.2856 3.42847H13.7142C14.1689 3.42847 14.6049 3.60908 14.9264 3.93057C15.2479 4.25206 15.4285 4.6881 15.4285 5.14275V6.85704M10.2856 11.1428V16.2856M13.7142 11.1428V16.2856" stroke="#1C1C1C" stroke-width="1.5" stroke-linecap="round" stroke-linejoin="round"/>
</svg>
