<svg width="96" height="24" viewBox="0 0 96 24" fill="none" xmlns="http://www.w3.org/2000/svg">
<g id="logo">
<path id="path" d="M8.64014 19.507H19.0993V21.6766H8.64014V19.507ZM84.2785 12.5422L87.5761 8.90377H85.1185L82.4161 11.9278V8.90377H80.4577V16.5502H82.4257V13.3294L85.3153 16.5502H87.8401L84.2785 12.5422ZM20.2513 13.0462C20.1985 14.4862 20.0161 14.7598 19.2193 14.7598V16.555H19.5169C21.5185 16.555 21.9937 15.523 22.0657 13.2238L22.1521 10.6798H24.0001V16.5502H25.9585V8.90377H20.3857L20.2513 13.0462ZM11.7505 14.3614H15.8785L16.5649 16.5502H18.8545L15.7681 7.35337C15.4705 6.46537 15.1249 5.75977 13.9441 5.75977C12.7633 5.75977 12.4033 6.46537 12.0865 7.35337L8.85134 16.5502H11.0017L11.7505 14.3614ZM13.8433 8.15977H13.8961L15.2785 12.5182H12.3697L13.8433 8.15977ZM59.5921 9.98857H57.4081V7.82857H62.4769V5.90857H55.3537V16.5502H59.5921C61.9393 16.5502 63.2881 15.379 63.2881 13.2382C63.2881 11.2078 61.9201 9.98857 59.5921 9.98857ZM59.4913 14.6254H57.4081V11.8606H59.4913C60.5761 11.8606 61.1857 12.3406 61.1857 13.243C61.1857 14.1454 60.5761 14.6254 59.4913 14.6254ZM40.1233 8.72617V5.89417H38.1697V8.72617C37.1439 8.76001 36.1735 9.19959 35.4715 9.94834C34.7695 10.6971 34.3934 11.6939 34.4257 12.7198C34.3908 13.7477 34.7656 14.7475 35.4677 15.4991C36.1698 16.2508 37.1418 16.6927 38.1697 16.7278V19.6078H40.1281V16.7278C40.6373 16.711 41.1382 16.594 41.6021 16.3834C42.066 16.1728 42.4838 15.8728 42.8316 15.5005C43.1794 15.1282 43.4503 14.6909 43.6289 14.2138C43.8074 13.7366 43.8901 13.2289 43.8721 12.7198C43.8927 12.2103 43.8115 11.7018 43.6335 11.2241C43.4554 10.7463 43.184 10.3088 42.835 9.93701C42.486 9.5653 42.0665 9.26674 41.601 9.05885C41.1354 8.85097 40.6331 8.73788 40.1233 8.72617ZM38.1745 14.8798C37.6562 14.8228 37.1811 14.5645 36.8516 14.1604C36.522 13.7563 36.3645 13.2389 36.4129 12.7198C36.3707 12.2019 36.5305 11.6878 36.8589 11.2851C37.1873 10.8825 37.6588 10.6225 38.1745 10.5598V14.8798ZM40.1329 14.8798V10.5598C40.6487 10.6225 41.1202 10.8825 41.4486 11.2851C41.777 11.6878 41.9368 12.2019 41.8945 12.7198C41.9405 13.2384 41.782 13.7545 41.4529 14.158C41.1239 14.5615 40.6502 14.8205 40.1329 14.8798ZM51.2113 14.203V11.6254C51.2113 9.74377 50.0161 8.56777 48.0097 8.56777C46.0033 8.56777 44.8321 9.81577 44.7361 11.1166H46.7185C46.7857 10.8382 47.0833 10.3438 48.0049 10.3438C48.1773 10.3216 48.352 10.3397 48.5157 10.3969C48.6798 10.454 48.8281 10.5484 48.9491 10.6728C49.0701 10.7971 49.1608 10.9479 49.2136 11.1132C49.2664 11.2786 49.2798 11.4539 49.2529 11.6254H47.3329C45.5953 11.6254 44.5633 12.5422 44.5633 14.059C44.5498 14.4209 44.6124 14.7817 44.7471 15.1179C44.8818 15.4542 45.0856 15.7584 45.3454 16.0108C45.605 16.2633 45.9149 16.4584 46.2548 16.5836C46.5947 16.7088 46.9571 16.7611 47.3185 16.7374C47.7266 16.7588 48.1336 16.6794 48.5037 16.5061C48.8737 16.3328 49.1953 16.071 49.4401 15.7438C49.5995 16.0133 49.8318 16.2321 50.1107 16.3748C50.3891 16.5175 50.7025 16.5783 51.0145 16.5502H51.6913V14.7838C51.3601 14.7838 51.2113 14.6254 51.2113 14.203ZM49.2529 13.723C49.2611 13.912 49.2289 14.1007 49.1584 14.2764C49.0883 14.4521 48.9817 14.611 48.8459 14.7425C48.7096 14.8741 48.5473 14.9752 48.3693 15.0395C48.1912 15.1036 48.0016 15.1294 47.8129 15.115C47.1073 15.115 46.5505 14.8606 46.5505 14.0974C46.5505 13.3342 47.1697 13.2238 47.6929 13.2238H49.2529V13.723ZM30.8353 11.227H29.4289V8.90377H27.4705V16.5502H30.8689C32.9953 16.5502 33.7489 15.1678 33.7489 13.8622C33.7585 12.1774 32.7025 11.227 30.8353 11.227ZM30.6913 14.8798H29.4289V12.9598H30.6913C31.3681 12.9598 31.7761 13.267 31.7761 13.9198C31.7761 14.5726 31.3873 14.8798 30.6913 14.8798ZM70.7617 14.203V11.6254C70.7617 9.74377 69.5665 8.56777 67.5601 8.56777C65.5537 8.56777 64.3825 9.81577 64.2865 11.1166H66.2689C66.3361 10.8382 66.6337 10.3438 67.5553 10.3438C67.7277 10.3216 67.9024 10.3397 68.0661 10.3969C68.2302 10.454 68.3785 10.5484 68.4995 10.6728C68.6205 10.7971 68.7112 10.9479 68.764 11.1132C68.8168 11.2786 68.8302 11.4539 68.8033 11.6254H66.8833C65.1457 11.6254 64.1137 12.5422 64.1137 14.059C64.1003 14.4209 64.1627 14.7817 64.2976 15.1179C64.432 15.4542 64.636 15.7584 64.8957 16.0108C65.1553 16.2633 65.4654 16.4584 65.8053 16.5836C66.1451 16.7088 66.5075 16.7611 66.8689 16.7374C67.2808 16.7629 67.6926 16.6854 68.0675 16.512C68.4419 16.3385 68.7673 16.0745 69.0145 15.7438C69.1715 16.0086 69.3995 16.2243 69.6726 16.3668C69.9457 16.5093 70.2529 16.5728 70.5601 16.5502H71.2369V14.7838C70.8961 14.7838 70.7617 14.6254 70.7617 14.203ZM68.8129 13.723C68.8201 13.9118 68.7875 14.1001 68.7169 14.2755C68.6464 14.4509 68.5398 14.6094 68.404 14.7408C68.2681 14.8721 68.1059 14.9734 67.9283 15.0379C67.7507 15.1023 67.5616 15.1286 67.3729 15.115C66.6673 15.115 66.1105 14.8606 66.1105 14.0974C66.1105 13.3342 66.7297 13.2238 67.2529 13.2238H68.8129V13.723ZM77.0161 11.7502H74.3137V8.90377H72.3553V16.555H74.3137V13.5406H77.0161V16.5502H78.9745V8.90377H77.0161V11.7502Z" fill="#EF3124"/>
</g>
</svg>
