<svg width="18" height="22" viewBox="0 0 18 22" fill="none" xmlns="http://www.w3.org/2000/svg">
<g id="&#240;&#159;&#166;&#134; icon &#34;open select hand gesture&#34;">
<path id="Vector" d="M5.33257 13.5727L3.56025 11.8367C2.9361 11.2252 1.94249 11.2717 1.37491 11.939C0.86196 12.5419 0.87706 13.4466 1.40982 14.0312L7.1871 20.3696C7.55473 20.7729 8.06732 21.0017 8.6048 21.0017C9.65973 21.0017 11.3941 21.0017 13.1109 21.0017C15.4443 21.0017 17 19.0016 17 17.0015C17 17.0015 17 10.1441 17 8.42969" stroke="#4876F9" stroke-width="1.5" stroke-linecap="round" stroke-linejoin="round"/>
<path id="Vector_2" d="M14.084 8.99676C14.084 8.99676 14.084 8.87164 14.084 8.42531C14.084 6.13948 17.0008 6.13948 17.0008 8.42531" stroke="#4876F9" stroke-width="1.5" stroke-linecap="round" stroke-linejoin="round"/>
<path id="Vector_3" d="M11.166 8.99904C11.166 8.99904 11.166 8.17734 11.166 7.28468C11.166 4.99886 14.0829 4.99886 14.0829 7.28468C14.0829 7.50784 14.0829 8.20442 14.0829 8.42758C14.0829 8.87393 14.0829 8.99904 14.0829 8.99904" stroke="#4876F9" stroke-width="1.5" stroke-linecap="round" stroke-linejoin="round"/>
<path id="Vector_4" d="M8.25 9.00359C8.25 9.00359 8.25 7.61927 8.25 6.50342C8.25 4.21761 11.1669 4.21761 11.1669 6.50342C11.1669 6.50342 11.1669 7.06601 11.1669 7.28918C11.1669 8.18184 11.1669 9.00359 11.1669 9.00359" stroke="#4876F9" stroke-width="1.5" stroke-linecap="round" stroke-linejoin="round"/>
<path id="Vector_5" d="M5.33203 13.572V2.50007C5.33203 1.6716 5.98499 1 6.79046 1C7.5959 1 8.24889 1.67059 8.24889 2.49906C8.24889 3.6898 8.24889 5.34176 8.24889 6.50026C8.24889 7.61609 8.24889 9.00037 8.24889 9.00037" stroke="#4876F9" stroke-width="1.5" stroke-linecap="round" stroke-linejoin="round"/>
</g>
</svg>
