<svg width="40" height="40" viewBox="0 0 40 40" fill="none" xmlns="http://www.w3.org/2000/svg">
<g clip-path="url(#clip0_1057_483795)">
<rect width="40" height="40" rx="8" fill="#F93939"/>
<path d="M51.4926 0H6.15926C3.21374 0 0.825928 2.38781 0.825928 5.33333V34.6667C0.825928 37.6122 3.21374 40 6.15926 40H51.4926C54.4381 40 56.8259 37.6122 56.8259 34.6667V5.33333C56.8259 2.38781 54.4381 0 51.4926 0Z" fill="#F93939"/>
<path fill-rule="evenodd" clip-rule="evenodd" d="M8.82593 0L14.1593 4L8.82593 8V0ZM8.82593 8L14.1593 12L8.82593 16V8ZM8.82593 16L14.1593 20L8.82593 24V16ZM8.82593 24L14.1593 28L8.82593 32V24ZM8.82593 32L14.1593 36L8.82593 40V32ZM6.15926 0L0.825928 4L6.15926 8V0ZM6.15926 8L0.825928 12L6.15926 16V8ZM6.15926 16L0.825928 20L6.15926 24V16ZM6.15926 24L0.825928 28L6.15926 32V24ZM6.15926 32L0.825928 36L6.15926 40V32ZM6.15926 0H8.82593V5.33333H6.15926V0ZM6.15926 34.6667H8.82593V40H6.15926V34.6667ZM6.15926 13.3333H8.82593V18.6667H6.15926V13.3333ZM6.15926 8H8.82593V10.6667H6.15926V8ZM6.15926 29.3333H8.82593V32H6.15926V29.3333ZM6.15926 21.3333H8.82593V26.6667H6.15926V21.3333Z" fill="white"/>
<path fill-rule="evenodd" clip-rule="evenodd" d="M14.1592 27.5674H56.8258V40H14.1592V27.5674Z" fill="#249F58"/>
</g>
<rect x="0.5" y="0.5" width="39" height="39" rx="7.5" stroke="#A4A4A4"/>
<defs>
<clipPath id="clip0_1057_483795">
<rect width="40" height="40" rx="8" fill="white"/>
</clipPath>
</defs>
</svg>
