<svg width="40" height="40" viewBox="0 0 40 40" fill="none" xmlns="http://www.w3.org/2000/svg">
<g clip-path="url(#clip0_1108_580370)">
<rect width="40" height="40" rx="8" fill="white"/>
<path d="M20.5491 30.9804H19.4511L19.7256 26.5882C19.7101 26.3569 19.599 26.2961 19.1766 26.3137L14.7844 26.8627C14.7844 26.8627 15.6079 25.7647 15.6079 25.2157C15.6079 24.6667 10.6667 21.098 10.6667 21.098C10.6667 21.098 11.7648 20.8235 12.0393 20.549C12.3138 20.2745 10.9413 17.2549 10.9413 17.2549C10.9413 17.2549 13.7309 18.3529 13.9609 18.0784C14.1908 17.8039 14.5099 16.7059 14.5099 16.7059C14.5099 16.7059 16.706 19.1765 17.255 19.1765C17.804 19.1765 16.1569 13.1372 16.1569 13.1372C16.1569 13.1372 17.5295 14.2353 18.0785 14.2353C18.6275 14.2353 20.0001 10.6667 20.0001 10.6667C20.0001 10.6667 21.3726 14.2353 21.6471 14.2353C21.9217 14.2353 23.8432 13.1372 23.8432 13.1372C23.8432 13.1372 22.4707 18.902 22.7452 19.1765C23.0197 19.451 25.4903 16.7059 25.4903 16.7059C25.4903 16.7059 25.7648 17.8039 26.0393 18.0784C26.3138 18.3529 29.0589 17.2549 29.0589 17.2549C29.0589 17.2549 27.6864 20.2745 27.9609 20.549C28.2354 20.8235 29.3334 21.098 29.3334 21.098C29.3334 21.098 24.3922 24.6667 24.3922 25.2157C24.3922 25.7647 24.9413 26.8627 24.9413 26.8627L20.8236 26.3137C20.4926 26.2188 20.3779 26.2908 20.2746 26.5882L20.5491 30.9804Z" fill="#F93939"/>
<rect x="32.6667" width="13.3333" height="40" fill="#F93939"/>
<rect x="-6" width="13.3333" height="40" fill="#F93939"/>
</g>
<rect x="0.5" y="0.5" width="39" height="39" rx="7.5" stroke="#A4A4A4"/>
<defs>
<clipPath id="clip0_1108_580370">
<rect width="40" height="40" rx="8" fill="white"/>
</clipPath>
</defs>
</svg>
