<svg width="20" height="20" viewBox="0 0 20 20" fill="none" xmlns="http://www.w3.org/2000/svg">
<g id="Folder / Default / Off">
<path id="Vector" d="M11.141 5.77778H16.4558C16.6699 5.77778 16.8751 5.87143 17.0265 6.03813C17.1778 6.20483 17.2628 6.43092 17.2628 6.66667V7.93377H2.73712V4.88889C2.73712 4.65314 2.82214 4.42705 2.97348 4.26035C3.12482 4.09365 3.33008 4 3.5441 4H9.52708L11.141 5.77778ZM2.80732 7.33333H17.1926C17.0904 7.28396 17.3043 7.33328 17.1926 7.33333C17.2949 7.38271 17.1872 7.84329 17.2628 7.93377C17.2266 7.81744 17.3385 8.02425 17.2628 7.93377C17.2721 7.81121 17.2991 8.0501 17.2628 7.93377V17.1763C17.246 17.3984 17.2154 17.6141 17.0666 17.765C16.9177 17.916 16.7228 17.9999 16.5204 18H3.47954C3.27719 17.9999 3.08226 17.916 2.93339 17.765C2.78452 17.6141 2.75391 17.2221 2.73712 17V7.93377C2.70089 8.0501 2.72785 7.81121 2.73712 7.93377C2.77335 7.81744 2.7317 7.42381 2.80732 7.33333C2.88294 7.24285 2.70507 7.38271 2.80732 7.33333C2.90958 7.28396 2.69567 7.33328 2.80732 7.33333Z" fill="#A7BEFF"/>
</g>
</svg>
