<svg width="47" height="33" viewBox="0 0 47 33" fill="none" xmlns="http://www.w3.org/2000/svg">
<g clip-path="url(#clip0_220_16272)">
<path d="M0 0H46.2V33H0V0Z" fill="#003399"/>
<path d="M23.0971 3.65845L23.4813 4.92455H24.73L23.7243 5.7075L24.1029 6.97495L23.0971 6.19199L22.0913 6.97495L22.4755 5.70817L21.4698 4.92522H22.713L23.0971 3.65845ZM17.9638 5.12511L18.3479 6.39121H19.5967L18.591 7.17417L18.9696 8.44161L17.9638 7.65866L16.958 8.44161L17.3422 7.17484L16.3365 6.39189H17.5796L17.9638 5.12511ZM14.1993 9.15845L14.5835 10.4245H15.8323L14.8265 11.2075L15.2051 12.4749L14.1993 11.692L13.1935 12.4749L13.5777 11.2082L12.572 10.4252H13.8152L14.1993 9.15845ZM12.8304 14.6584L13.2146 15.9245H14.4634L13.4576 16.7076L13.8362 17.975L12.8304 17.192L11.8247 17.975L12.2089 16.7081L11.2031 15.9252H12.4463L12.8304 14.6584ZM14.1993 20.1584L14.5835 21.4246H15.8323L14.8265 22.2075L15.2051 23.4749L14.1993 22.6921L13.1935 23.4749L13.5777 22.2082L12.572 21.4252H13.8152L14.1993 20.1584ZM17.9638 24.1918L18.3479 25.4579H19.5967L18.591 26.2408L18.9696 27.5083L17.9638 26.7254L16.958 27.5083L17.3422 26.2415L16.3365 25.4586H17.5796L17.9638 24.1918ZM28.2305 5.12511L28.6146 6.39121H29.8634L28.8576 7.17417L29.2362 8.44161L28.2305 7.65866L27.2246 8.44161L27.6089 7.17484L26.6031 6.39189H27.8462L28.2305 5.12511ZM31.9949 9.15845L32.379 10.4245H33.6278L32.6221 11.2075L33.0006 12.4749L31.9949 11.692L30.989 12.4749L31.3733 11.2082L30.3676 10.4252H31.6107L31.9949 9.15845ZM33.3638 14.6584L33.7479 15.9245H34.9967L33.991 16.7076L34.3696 17.975L33.3638 17.192L32.358 17.975L32.7422 16.7081L31.7365 15.9252H32.9796L33.3638 14.6584ZM31.9949 20.1584L32.379 21.4246H33.6278L32.6221 22.2075L33.0007 23.4749L31.9949 22.6921L30.9891 23.4749L31.3733 22.2082L30.3676 21.4252H31.6108L31.9949 20.1584ZM23.0971 25.6584L23.4813 26.9246H24.73L23.7243 27.7075L24.1029 28.9749L23.0971 28.1921L22.0913 28.9749L22.4755 27.7082L21.4698 26.9252H22.713L23.0971 25.6584ZM28.2305 24.1917L28.6146 25.4579H29.8634L28.8576 26.2408L29.2363 27.5083L28.2305 26.7253L27.2247 27.5083L27.6089 26.2414L26.6031 25.4586H27.8464L28.2305 24.1917Z" fill="#FFCC00"/>
</g>
<defs>
<clipPath id="clip0_220_16272">
<rect width="46.2" height="33" rx="4" fill="white"/>
</clipPath>
</defs>
</svg>
