<svg width="44" height="44" viewBox="0 0 44 44" fill="none" xmlns="http://www.w3.org/2000/svg">
<g filter="url(#filter0_ii_142_541146)">
<path fill-rule="evenodd" clip-rule="evenodd" d="M27.6838 3.66666L36.8504 12.8332V37.4C36.8504 39.02 35.5371 40.3333 33.9171 40.3333H10.0837C8.46369 40.3333 7.15039 39.02 7.15039 37.4V6.59999C7.15039 4.97996 8.46369 3.66666 10.0837 3.66666H27.6838Z" fill="#4876F9"/>
</g>
<g filter="url(#filter1_dd_142_541146)">
<path d="M20.9551 21.6332C21.5991 21.6332 22.2059 21.7714 22.7797 22.0459C23.2099 22.249 23.5983 22.5253 23.948 22.8732C24.289 23.2116 24.5689 23.6064 24.7753 24.0401C24.4992 24.3165 24.1669 24.4529 23.7784 24.4529C23.6387 24.452 23.4997 24.4314 23.3657 24.3917C23.1304 24.0104 22.8093 23.6894 22.428 23.4542C21.9857 23.182 21.4762 23.039 20.9569 23.0414C20.5896 23.0414 20.2328 23.1113 19.8881 23.2513C19.5413 23.3927 19.2266 23.6027 18.963 23.8687L16.8464 25.9853C16.5803 26.249 16.3702 26.5638 16.2288 26.9107C16.0903 27.2499 16.019 27.6129 16.0189 27.9793C16.0189 28.3466 16.089 28.7035 16.2288 29.0481C16.3691 29.3956 16.5793 29.7106 16.8464 29.9735C17.1099 30.2397 17.4247 30.4497 17.7718 30.5909C18.1109 30.7291 18.4748 30.8008 18.8422 30.8008C19.2095 30.8008 19.5664 30.7309 19.911 30.5909C20.2578 30.4495 20.5725 30.2395 20.8362 29.9735L22.318 28.4919C22.7884 28.6196 23.2747 28.6844 23.7784 28.6844C23.8589 28.6844 23.9725 28.6808 24.1194 28.6739C24.0638 28.7353 24.0073 28.7959 23.9499 28.8556L21.8333 30.9722C21.4258 31.3799 20.964 31.6877 20.4461 31.8976C19.4167 32.3178 18.2635 32.3171 17.2346 31.8957C16.715 31.6839 16.2433 31.3698 15.8474 30.9722C15.44 30.5647 15.1322 30.103 14.9223 29.5869C14.7141 29.0771 14.6072 28.5317 14.6074 27.9811C14.6074 27.4302 14.714 26.8843 14.9223 26.3753C15.1322 25.8593 15.44 25.3975 15.8474 24.99L17.964 22.8735C18.0044 22.8331 18.0655 22.7772 18.146 22.702C18.5319 22.3574 18.9786 22.0875 19.4632 21.9061C19.9404 21.7273 20.4456 21.635 20.9551 21.6334V21.6332ZM25.8932 16.697C26.4443 16.697 26.99 16.8037 27.499 17.0118C28.015 17.2199 28.4768 17.5297 28.8861 17.9372C29.2938 18.3447 29.6034 18.8064 29.8115 19.3225C30.0197 19.8322 30.1261 20.3777 30.1245 20.9283C30.1245 21.4792 30.018 22.0145 29.808 22.5341C29.5966 23.0533 29.2825 23.5245 28.8845 23.9194L26.7679 26.036C26.7276 26.0779 26.6664 26.134 26.586 26.2074C26.2005 26.5528 25.7537 26.8227 25.2687 27.0033C24.7913 27.1835 24.2853 27.2759 23.775 27.276C23.1435 27.2782 22.5197 27.1372 21.9506 26.8635C21.5202 26.6604 21.1318 26.3841 20.7819 26.0362C20.4408 25.6978 20.161 25.303 19.9546 24.8693C20.2293 24.5929 20.5619 24.4565 20.9517 24.4565C21.0883 24.4565 21.2264 24.4774 21.3646 24.5177C21.5992 24.8989 21.9196 25.22 22.3003 25.4552C22.7427 25.7272 23.2523 25.8702 23.7716 25.868C24.1387 25.868 24.4957 25.7981 24.8402 25.6581C25.1873 25.5172 25.5021 25.3071 25.7655 25.0407L27.8821 22.9241C28.1487 22.6609 28.3588 22.346 28.4995 21.9987C28.6377 21.6596 28.7094 21.2975 28.7094 20.9301C28.7094 20.5628 28.6395 20.206 28.4995 19.8613C28.3586 19.5142 28.1485 19.1993 27.8821 18.9359C27.6186 18.6697 27.3038 18.4597 26.9568 18.3185C26.6174 18.1802 26.2544 18.1089 25.8879 18.1086C25.5206 18.1086 25.1638 18.1785 24.8193 18.3185C24.4722 18.4594 24.1573 18.6695 23.8939 18.9359L22.4105 20.4175C21.9344 20.2887 21.4433 20.224 20.9501 20.225C20.8694 20.225 20.7557 20.2286 20.6088 20.2355C20.6648 20.1743 20.7209 20.1131 20.7803 20.0538L22.8968 17.9372C23.2917 17.5393 23.7629 17.2251 24.2821 17.0137C24.8053 16.8019 25.3404 16.6951 25.8932 16.697Z" fill="white"/>
</g>
<path d="M35.9902 11.974H28.543L36.8503 20.2813L36.8503 12.8333L35.9902 11.974Z" fill="url(#paint0_linear_142_541146)"/>
<path d="M30.6163 12.8333L36.8496 12.8333L27.6829 3.66668L27.6829 9.90001C27.6829 11.52 28.9962 12.8333 30.6163 12.8333Z" fill="#B5C8FC"/>
<defs>
<filter id="filter0_ii_142_541146" x="7.15039" y="3.48332" width="29.6992" height="37.0333" filterUnits="userSpaceOnUse" color-interpolation-filters="sRGB">
<feFlood flood-opacity="0" result="BackgroundImageFix"/>
<feBlend mode="normal" in="SourceGraphic" in2="BackgroundImageFix" result="shape"/>
<feColorMatrix in="SourceAlpha" type="matrix" values="0 0 0 0 0 0 0 0 0 0 0 0 0 0 0 0 0 0 127 0" result="hardAlpha"/>
<feOffset dy="-0.366667"/>
<feGaussianBlur stdDeviation="0.0916667"/>
<feComposite in2="hardAlpha" operator="arithmetic" k2="-1" k3="1"/>
<feColorMatrix type="matrix" values="0 0 0 0 0 0 0 0 0 0 0 0 0 0 0 0 0 0 0.3 0"/>
<feBlend mode="normal" in2="shape" result="effect1_innerShadow_142_541146"/>
<feColorMatrix in="SourceAlpha" type="matrix" values="0 0 0 0 0 0 0 0 0 0 0 0 0 0 0 0 0 0 127 0" result="hardAlpha"/>
<feOffset dy="0.366667"/>
<feGaussianBlur stdDeviation="0.0916667"/>
<feComposite in2="hardAlpha" operator="arithmetic" k2="-1" k3="1"/>
<feColorMatrix type="matrix" values="0 0 0 0 1 0 0 0 0 1 0 0 0 0 1 0 0 0 0.3 0"/>
<feBlend mode="normal" in2="effect1_innerShadow_142_541146" result="effect2_innerShadow_142_541146"/>
</filter>
<filter id="filter1_dd_142_541146" x="14.4241" y="16.5136" width="17.1676" height="17.532" filterUnits="userSpaceOnUse" color-interpolation-filters="sRGB">
<feFlood flood-opacity="0" result="BackgroundImageFix"/>
<feColorMatrix in="SourceAlpha" type="matrix" values="0 0 0 0 0 0 0 0 0 0 0 0 0 0 0 0 0 0 127 0" result="hardAlpha"/>
<feOffset dx="0.733333" dy="1.1"/>
<feGaussianBlur stdDeviation="0.366667"/>
<feColorMatrix type="matrix" values="0 0 0 0 0 0 0 0 0 0 0 0 0 0 0 0 0 0 0.1 0"/>
<feBlend mode="normal" in2="BackgroundImageFix" result="effect1_dropShadow_142_541146"/>
<feColorMatrix in="SourceAlpha" type="matrix" values="0 0 0 0 0 0 0 0 0 0 0 0 0 0 0 0 0 0 127 0" result="hardAlpha"/>
<feOffset/>
<feGaussianBlur stdDeviation="0.0916667"/>
<feColorMatrix type="matrix" values="0 0 0 0 0 0 0 0 0 0 0 0 0 0 0 0 0 0 0.4 0"/>
<feBlend mode="normal" in2="effect1_dropShadow_142_541146" result="effect2_dropShadow_142_541146"/>
<feBlend mode="normal" in="SourceGraphic" in2="effect2_dropShadow_142_541146" result="shape"/>
</filter>
<linearGradient id="paint0_linear_142_541146" x1="30.4049" y1="10.112" x2="38.7122" y2="18.4193" gradientUnits="userSpaceOnUse">
<stop stop-opacity="0.2"/>
<stop offset="1" stop-opacity="0"/>
</linearGradient>
</defs>
</svg>
