<svg width="25" height="24" viewBox="0 0 25 24" fill="none" xmlns="http://www.w3.org/2000/svg">
<g filter="url(#filter0_ii_142_541153)">
<path fill-rule="evenodd" clip-rule="evenodd" d="M6.22695 2.00018C5.3433 2.00018 4.62695 2.71653 4.62695 3.60018V20.4002C4.62695 21.2838 5.3433 22.0002 6.22695 22.0002H19.227C20.1106 22.0002 20.827 21.2838 20.827 20.4002V7.00031L15.827 2.00036H19.251C19.243 2.00024 19.235 2.00018 19.227 2.00018H6.22695Z" fill="#4876F9"/>
</g>
<g filter="url(#filter1_dd_142_541153)">
<path d="M12.1577 11.8001C12.5089 11.8001 12.8399 11.8755 13.1529 12.0252C13.3876 12.136 13.5994 12.2867 13.7902 12.4765C13.9762 12.661 14.1289 12.8764 14.2414 13.113C14.0908 13.2637 13.9096 13.3381 13.6977 13.3381C13.6214 13.3376 13.5457 13.3264 13.4726 13.3047C13.3442 13.0968 13.1691 12.9217 12.9611 12.7934C12.7199 12.6449 12.4419 12.5669 12.1587 12.5682C11.9583 12.5682 11.7637 12.6064 11.5757 12.6827C11.3865 12.7599 11.2149 12.8744 11.0711 13.0195L9.91656 14.174C9.77141 14.3178 9.65682 14.4895 9.57969 14.6787C9.50416 14.8638 9.46527 15.0617 9.46519 15.2616C9.46519 15.462 9.50344 15.6566 9.57969 15.8446C9.65623 16.0342 9.77089 16.206 9.91656 16.3494C10.0603 16.4946 10.232 16.6091 10.4213 16.6861C10.6063 16.7615 10.8048 16.8006 11.0052 16.8006C11.2056 16.8006 11.4002 16.7625 11.5882 16.6861C11.7774 16.609 11.949 16.4945 12.0928 16.3494L12.9011 15.5412C13.1577 15.6109 13.4229 15.6462 13.6977 15.6462C13.7416 15.6462 13.8036 15.6442 13.8837 15.6405C13.8533 15.674 13.8225 15.707 13.7912 15.7396L12.6367 16.8941C12.4144 17.1165 12.1626 17.2844 11.8801 17.3989C11.3186 17.6281 10.6895 17.6277 10.1283 17.3979C9.84492 17.2823 9.58762 17.111 9.37169 16.8941C9.14944 16.6719 8.98156 16.42 8.86706 16.1385C8.75352 15.8604 8.69519 15.563 8.69531 15.2626C8.69531 14.9621 8.75344 14.6644 8.86706 14.3867C8.98156 14.1052 9.14944 13.8534 9.37169 13.6311L10.5262 12.4766C10.5482 12.4546 10.5816 12.4241 10.6254 12.3831C10.836 12.1951 11.0796 12.0479 11.3439 11.949C11.6042 11.8515 11.8798 11.8011 12.1577 11.8002V11.8001ZM14.8512 9.10762C15.1518 9.10762 15.4494 9.16587 15.7271 9.27937C16.0086 9.39287 16.2604 9.56187 16.4837 9.78412C16.7061 10.0064 16.8749 10.2582 16.9884 10.5397C17.102 10.8177 17.16 11.1153 17.1592 11.4156C17.1592 11.7161 17.1011 12.0081 16.9866 12.2915C16.8712 12.5747 16.6999 12.8317 16.4828 13.0471L15.3283 14.2016C15.3063 14.2245 15.2729 14.2551 15.2291 14.2951C15.0188 14.4835 14.7751 14.6308 14.5106 14.7292C14.2502 14.8276 13.9741 14.878 13.6958 14.878C13.3514 14.8792 13.0111 14.8023 12.7007 14.653C12.4659 14.5422 12.2541 14.3915 12.0632 14.2017C11.8772 14.0172 11.7245 13.8018 11.6119 13.5652C11.7618 13.4145 11.9432 13.3401 12.1558 13.3401C12.2303 13.3401 12.3057 13.3515 12.3811 13.3735C12.509 13.5814 12.6838 13.7565 12.8914 13.8849C13.1327 14.0332 13.4107 14.1112 13.6939 14.11C13.8942 14.11 14.0889 14.0719 14.2768 13.9955C14.4662 13.9186 14.6379 13.8041 14.7816 13.6587L15.9361 12.5042C16.0815 12.3607 16.1961 12.1889 16.2728 11.9995C16.3482 11.8145 16.3873 11.617 16.3873 11.4166C16.3873 11.2162 16.3492 11.0216 16.2728 10.8336C16.196 10.6443 16.0814 10.4725 15.9361 10.3289C15.7923 10.1837 15.6206 10.0691 15.4313 9.99212C15.2462 9.91666 15.0482 9.87778 14.8483 9.87762C14.6479 9.87762 14.4533 9.91574 14.2654 9.99212C14.0761 10.069 13.9044 10.1835 13.7607 10.3289L12.9516 11.137C12.6919 11.0667 12.424 11.0314 12.1549 11.032C12.1109 11.032 12.0489 11.034 11.9688 11.0377C11.9993 11.0044 12.0299 10.971 12.0623 10.9386L13.2168 9.78412C13.4322 9.56706 13.6892 9.39572 13.9724 9.28037C14.2578 9.16487 14.5497 9.10662 14.8512 9.10762Z" fill="white"/>
</g>
<path d="M20.3571 6.53107H16.2949L20.8262 11.0623V6.99982L20.3571 6.53107Z" fill="url(#paint0_linear_142_541153)"/>
<path d="M17.4262 6.99982L20.8262 6.99982L15.8262 1.99982L15.8262 5.39982C15.8262 6.28347 16.5425 6.99982 17.4262 6.99982Z" fill="#B5C8FC"/>
<defs>
<filter id="filter0_ii_142_541153" x="4.62695" y="1.90018" width="16.1992" height="20.2" filterUnits="userSpaceOnUse" color-interpolation-filters="sRGB">
<feFlood flood-opacity="0" result="BackgroundImageFix"/>
<feBlend mode="normal" in="SourceGraphic" in2="BackgroundImageFix" result="shape"/>
<feColorMatrix in="SourceAlpha" type="matrix" values="0 0 0 0 0 0 0 0 0 0 0 0 0 0 0 0 0 0 127 0" result="hardAlpha"/>
<feOffset dy="-0.2"/>
<feGaussianBlur stdDeviation="0.05"/>
<feComposite in2="hardAlpha" operator="arithmetic" k2="-1" k3="1"/>
<feColorMatrix type="matrix" values="0 0 0 0 0 0 0 0 0 0 0 0 0 0 0 0 0 0 0.3 0"/>
<feBlend mode="normal" in2="shape" result="effect1_innerShadow_142_541153"/>
<feColorMatrix in="SourceAlpha" type="matrix" values="0 0 0 0 0 0 0 0 0 0 0 0 0 0 0 0 0 0 127 0" result="hardAlpha"/>
<feOffset dy="0.2"/>
<feGaussianBlur stdDeviation="0.05"/>
<feComposite in2="hardAlpha" operator="arithmetic" k2="-1" k3="1"/>
<feColorMatrix type="matrix" values="0 0 0 0 1 0 0 0 0 1 0 0 0 0 1 0 0 0 0.3 0"/>
<feBlend mode="normal" in2="effect1_innerShadow_142_541153" result="effect2_innerShadow_142_541153"/>
</filter>
<filter id="filter1_dd_142_541153" x="8.59531" y="9.0076" width="9.36484" height="9.56289" filterUnits="userSpaceOnUse" color-interpolation-filters="sRGB">
<feFlood flood-opacity="0" result="BackgroundImageFix"/>
<feColorMatrix in="SourceAlpha" type="matrix" values="0 0 0 0 0 0 0 0 0 0 0 0 0 0 0 0 0 0 127 0" result="hardAlpha"/>
<feOffset dx="0.4" dy="0.6"/>
<feGaussianBlur stdDeviation="0.2"/>
<feColorMatrix type="matrix" values="0 0 0 0 0 0 0 0 0 0 0 0 0 0 0 0 0 0 0.1 0"/>
<feBlend mode="normal" in2="BackgroundImageFix" result="effect1_dropShadow_142_541153"/>
<feColorMatrix in="SourceAlpha" type="matrix" values="0 0 0 0 0 0 0 0 0 0 0 0 0 0 0 0 0 0 127 0" result="hardAlpha"/>
<feOffset/>
<feGaussianBlur stdDeviation="0.05"/>
<feColorMatrix type="matrix" values="0 0 0 0 0 0 0 0 0 0 0 0 0 0 0 0 0 0 0.4 0"/>
<feBlend mode="normal" in2="effect1_dropShadow_142_541153" result="effect2_dropShadow_142_541153"/>
<feBlend mode="normal" in="SourceGraphic" in2="effect2_dropShadow_142_541153" result="shape"/>
</filter>
<linearGradient id="paint0_linear_142_541153" x1="17.3105" y1="5.51544" x2="21.8418" y2="10.0467" gradientUnits="userSpaceOnUse">
<stop stop-opacity="0.2"/>
<stop offset="1" stop-opacity="0"/>
</linearGradient>
</defs>
</svg>
