<svg width="25" height="24" viewBox="0 0 25 24" fill="none" xmlns="http://www.w3.org/2000/svg">
<g filter="url(#filter0_ii_142_541195)">
<path fill-rule="evenodd" clip-rule="evenodd" d="M5.95547 2.00018C5.07181 2.00018 4.35547 2.71653 4.35547 3.60018V20.4002C4.35547 21.2838 5.07181 22.0002 5.95547 22.0002H18.9555C19.8391 22.0002 20.5555 21.2838 20.5555 20.4002V7.00031L15.5555 2.00036H18.9796C18.9715 2.00024 18.9635 2.00018 18.9555 2.00018H5.95547Z" fill="#7C8EEE"/>
</g>
<g filter="url(#filter1_dd_142_541195)">
<path d="M16.2714 13.3145L10.4401 16.7907C10.0504 17.0255 9.55469 16.7436 9.55469 16.2857V9.33323C9.55469 8.88698 10.0504 8.60523 10.4401 8.82823L16.2713 12.3045C16.6491 12.5395 16.6491 13.0914 16.2713 13.3145H16.2714Z" fill="white"/>
</g>
<path d="M20.0856 6.53107H16.0234L20.5547 11.0623V6.99982L20.0856 6.53107Z" fill="url(#paint0_linear_142_541195)"/>
<path d="M17.1547 6.99982L20.5547 6.99982L15.5547 1.99982L15.5547 5.39982C15.5547 6.28347 16.271 6.99982 17.1547 6.99982Z" fill="#CAD1F8"/>
<defs>
<filter id="filter0_ii_142_541195" x="4.35547" y="1.90018" width="16.1992" height="20.2" filterUnits="userSpaceOnUse" color-interpolation-filters="sRGB">
<feFlood flood-opacity="0" result="BackgroundImageFix"/>
<feBlend mode="normal" in="SourceGraphic" in2="BackgroundImageFix" result="shape"/>
<feColorMatrix in="SourceAlpha" type="matrix" values="0 0 0 0 0 0 0 0 0 0 0 0 0 0 0 0 0 0 127 0" result="hardAlpha"/>
<feOffset dy="-0.2"/>
<feGaussianBlur stdDeviation="0.05"/>
<feComposite in2="hardAlpha" operator="arithmetic" k2="-1" k3="1"/>
<feColorMatrix type="matrix" values="0 0 0 0 0 0 0 0 0 0 0 0 0 0 0 0 0 0 0.3 0"/>
<feBlend mode="normal" in2="shape" result="effect1_innerShadow_142_541195"/>
<feColorMatrix in="SourceAlpha" type="matrix" values="0 0 0 0 0 0 0 0 0 0 0 0 0 0 0 0 0 0 127 0" result="hardAlpha"/>
<feOffset dy="0.2"/>
<feGaussianBlur stdDeviation="0.05"/>
<feComposite in2="hardAlpha" operator="arithmetic" k2="-1" k3="1"/>
<feColorMatrix type="matrix" values="0 0 0 0 1 0 0 0 0 1 0 0 0 0 1 0 0 0 0.3 0"/>
<feBlend mode="normal" in2="effect1_innerShadow_142_541195" result="effect2_innerShadow_142_541195"/>
</filter>
<filter id="filter1_dd_142_541195" x="9.45469" y="8.65018" width="7.9" height="9.22506" filterUnits="userSpaceOnUse" color-interpolation-filters="sRGB">
<feFlood flood-opacity="0" result="BackgroundImageFix"/>
<feColorMatrix in="SourceAlpha" type="matrix" values="0 0 0 0 0 0 0 0 0 0 0 0 0 0 0 0 0 0 127 0" result="hardAlpha"/>
<feOffset dx="0.4" dy="0.6"/>
<feGaussianBlur stdDeviation="0.2"/>
<feColorMatrix type="matrix" values="0 0 0 0 0 0 0 0 0 0 0 0 0 0 0 0 0 0 0.1 0"/>
<feBlend mode="normal" in2="BackgroundImageFix" result="effect1_dropShadow_142_541195"/>
<feColorMatrix in="SourceAlpha" type="matrix" values="0 0 0 0 0 0 0 0 0 0 0 0 0 0 0 0 0 0 127 0" result="hardAlpha"/>
<feOffset/>
<feGaussianBlur stdDeviation="0.05"/>
<feColorMatrix type="matrix" values="0 0 0 0 0 0 0 0 0 0 0 0 0 0 0 0 0 0 0.4 0"/>
<feBlend mode="normal" in2="effect1_dropShadow_142_541195" result="effect2_dropShadow_142_541195"/>
<feBlend mode="normal" in="SourceGraphic" in2="effect2_dropShadow_142_541195" result="shape"/>
</filter>
<linearGradient id="paint0_linear_142_541195" x1="17.0391" y1="5.51544" x2="21.5703" y2="10.0467" gradientUnits="userSpaceOnUse">
<stop stop-opacity="0.2"/>
<stop offset="1" stop-opacity="0"/>
</linearGradient>
</defs>
</svg>
