<svg width="25" height="24" viewBox="0 0 25 24" fill="none" xmlns="http://www.w3.org/2000/svg">
<g filter="url(#filter0_ii_142_541216)">
<path fill-rule="evenodd" clip-rule="evenodd" d="M5.68203 2.00018C4.79838 2.00018 4.08203 2.71653 4.08203 3.60018V20.4002C4.08203 21.2838 4.79838 22.0002 5.68203 22.0002H18.682C19.5657 22.0002 20.282 21.2838 20.282 20.4002V7.00031L15.2821 2.00036H18.7061C18.6981 2.00024 18.6901 2.00018 18.682 2.00018H5.68203Z" fill="#F16C00"/>
</g>
<path d="M16.3965 11.9804C16.3669 12.128 16.3085 12.2682 16.2246 12.3933C16.1564 12.497 16.0871 12.5665 16.0178 12.5313C15.9495 12.5313 15.9143 12.0831 15.8811 12.0136C15.8283 11.8932 15.7934 11.7655 15.7778 11.6349C15.7435 11.3591 15.6401 11.1164 15.4673 11.0136C15.2955 10.8758 15.0555 10.772 14.7451 10.7024C14.4081 10.6369 14.0904 10.4958 13.8159 10.2896C13.5408 10.0821 13.2314 9.91001 13.0596 9.70251C12.8868 9.53039 12.7491 9.49501 12.6809 9.53039C12.5774 9.56464 12.5433 9.66839 12.5433 9.77201V16.1876C12.5433 16.3609 12.5091 16.5673 12.4398 16.7748C12.3715 16.9823 12.3363 17.1885 12.1645 17.395C11.9928 17.6025 11.7518 17.7404 11.4424 17.8784C11.1319 18.0164 10.7543 18.0859 10.3404 18.12C9.91367 18.1469 9.48719 18.0637 9.10189 17.8784C8.77035 17.726 8.47669 17.5021 8.24202 17.2228C8.03514 16.9469 7.93164 16.671 7.93164 16.3255C7.93164 16.0155 8.07039 15.7053 8.37964 15.4293C8.65489 15.1534 8.96427 14.946 9.30877 14.8423C9.65239 14.7385 9.96277 14.6701 10.2721 14.6701C10.5825 14.6701 11.0636 14.6701 11.3046 14.7395C11.5448 14.808 11.7176 14.8433 11.8551 14.8775V8.77126C11.8551 8.56376 11.9235 8.39251 12.027 8.25464C12.1304 8.11664 12.3021 8.04714 12.4739 8.01301C12.6468 7.97876 12.7844 8.01301 12.8878 8.11676C12.9913 8.18514 12.8878 8.32414 13.0244 8.46101C13.1279 8.59901 13.2655 8.77226 13.4383 8.97864C13.61 9.18614 13.8159 9.35826 14.0911 9.53051C14.3323 9.70264 14.5391 9.80639 14.7109 9.91014C14.8828 9.97864 15.0555 10.0481 15.1931 10.1176C15.3306 10.186 15.5025 10.2545 15.6401 10.3583C15.7776 10.462 15.9505 10.5999 16.1213 10.8074C16.294 11.0149 16.3965 11.186 16.4316 11.3934C16.4316 11.6009 16.4316 11.8073 16.3965 11.9795V11.9805V11.9804Z" fill="white"/>
<path d="M19.8121 6.53107H15.75L20.2813 11.0623V6.99982L19.8121 6.53107Z" fill="url(#paint0_linear_142_541216)"/>
<path d="M16.8812 6.99982L20.2812 6.99982L15.2812 1.99982L15.2812 5.39982C15.2812 6.28347 15.9976 6.99982 16.8812 6.99982Z" fill="#F9C499"/>
<defs>
<filter id="filter0_ii_142_541216" x="4.08203" y="1.90018" width="16.1992" height="20.2" filterUnits="userSpaceOnUse" color-interpolation-filters="sRGB">
<feFlood flood-opacity="0" result="BackgroundImageFix"/>
<feBlend mode="normal" in="SourceGraphic" in2="BackgroundImageFix" result="shape"/>
<feColorMatrix in="SourceAlpha" type="matrix" values="0 0 0 0 0 0 0 0 0 0 0 0 0 0 0 0 0 0 127 0" result="hardAlpha"/>
<feOffset dy="-0.2"/>
<feGaussianBlur stdDeviation="0.05"/>
<feComposite in2="hardAlpha" operator="arithmetic" k2="-1" k3="1"/>
<feColorMatrix type="matrix" values="0 0 0 0 0 0 0 0 0 0 0 0 0 0 0 0 0 0 0.3 0"/>
<feBlend mode="normal" in2="shape" result="effect1_innerShadow_142_541216"/>
<feColorMatrix in="SourceAlpha" type="matrix" values="0 0 0 0 0 0 0 0 0 0 0 0 0 0 0 0 0 0 127 0" result="hardAlpha"/>
<feOffset dy="0.2"/>
<feGaussianBlur stdDeviation="0.05"/>
<feComposite in2="hardAlpha" operator="arithmetic" k2="-1" k3="1"/>
<feColorMatrix type="matrix" values="0 0 0 0 1 0 0 0 0 1 0 0 0 0 1 0 0 0 0.3 0"/>
<feBlend mode="normal" in2="effect1_innerShadow_142_541216" result="effect2_innerShadow_142_541216"/>
</filter>
<linearGradient id="paint0_linear_142_541216" x1="16.7656" y1="5.51544" x2="21.2969" y2="10.0467" gradientUnits="userSpaceOnUse">
<stop stop-opacity="0.2"/>
<stop offset="1" stop-opacity="0"/>
</linearGradient>
</defs>
</svg>
