<svg width="44" height="44" viewBox="0 0 44 44" fill="none" xmlns="http://www.w3.org/2000/svg">
<g filter="url(#filter0_ii_142_541209)">
<path fill-rule="evenodd" clip-rule="evenodd" d="M27.6838 3.66666L36.8504 12.8332V37.4C36.8504 39.02 35.5371 40.3333 33.9171 40.3333H10.0837C8.46369 40.3333 7.15039 39.02 7.15039 37.4V6.59999C7.15039 4.97996 8.46369 3.66666 10.0837 3.66666H27.6838Z" fill="#F16C00"/>
</g>
<path d="M29.7279 21.9637C29.6736 22.2342 29.5665 22.4914 29.4128 22.7206C29.2877 22.9108 29.1607 23.0383 29.0335 22.9736C28.9084 22.9736 28.8438 22.1521 28.7831 22.0247C28.6861 21.8038 28.6223 21.5698 28.5935 21.3303C28.5308 20.8247 28.3412 20.3797 28.0243 20.1913C27.7094 19.9385 27.2694 19.7483 26.7004 19.6207C26.0826 19.5007 25.5 19.2419 24.9968 18.864C24.4924 18.4836 23.9252 18.168 23.6103 17.7876C23.2934 17.472 23.0411 17.4072 22.9159 17.472C22.7262 17.5348 22.6636 17.725 22.6636 17.915V29.677C22.6636 29.9946 22.6011 30.373 22.4739 30.7534C22.3488 31.1338 22.2841 31.5119 21.9693 31.8905C21.6544 32.2709 21.2125 32.5237 20.6454 32.7767C20.0761 33.0297 19.3838 33.1571 18.625 33.2197C17.8427 33.269 17.0608 33.1165 16.3544 32.7767C15.7466 32.4974 15.2082 32.0869 14.778 31.5747C14.3987 31.0689 14.209 30.5632 14.209 29.9298C14.209 29.3614 14.4634 28.7926 15.0303 28.2866C15.5349 27.7809 16.1021 27.4007 16.7337 27.2105C17.3637 27.0203 17.9327 26.8949 18.4999 26.8949C19.0689 26.8949 19.951 26.8949 20.3928 27.0221C20.833 27.1477 21.15 27.2123 21.4021 27.2751V16.0803C21.4021 15.6999 21.5274 15.3859 21.7172 15.1332C21.9067 14.8802 22.2216 14.7527 22.5364 14.6902C22.8534 14.6274 23.1057 14.6902 23.2952 14.8804C23.485 15.0057 23.2952 15.2606 23.5457 15.5115C23.7354 15.7645 23.9878 16.0821 24.3045 16.4605C24.6193 16.8409 24.9968 17.1565 25.5014 17.4723C25.9435 17.7878 26.3227 17.978 26.6376 18.1682C26.9527 18.2938 27.2694 18.4212 27.5217 18.5487C27.7738 18.674 28.0889 18.7996 28.3412 18.9898C28.5933 19.18 28.9103 19.4328 29.2233 19.8132C29.54 20.1936 29.7279 20.5073 29.7923 20.8875C29.7923 21.2679 29.7923 21.6463 29.7279 21.9621V21.9639V21.9637Z" fill="white"/>
<path d="M35.9902 11.974H28.543L36.8503 20.2813L36.8503 12.8333L35.9902 11.974Z" fill="url(#paint0_linear_142_541209)"/>
<path d="M30.6163 12.8333L36.8496 12.8333L27.6829 3.66668L27.6829 9.90001C27.6829 11.52 28.9962 12.8333 30.6163 12.8333Z" fill="#F9C499"/>
<defs>
<filter id="filter0_ii_142_541209" x="7.15039" y="3.48332" width="29.6992" height="37.0333" filterUnits="userSpaceOnUse" color-interpolation-filters="sRGB">
<feFlood flood-opacity="0" result="BackgroundImageFix"/>
<feBlend mode="normal" in="SourceGraphic" in2="BackgroundImageFix" result="shape"/>
<feColorMatrix in="SourceAlpha" type="matrix" values="0 0 0 0 0 0 0 0 0 0 0 0 0 0 0 0 0 0 127 0" result="hardAlpha"/>
<feOffset dy="-0.366667"/>
<feGaussianBlur stdDeviation="0.0916667"/>
<feComposite in2="hardAlpha" operator="arithmetic" k2="-1" k3="1"/>
<feColorMatrix type="matrix" values="0 0 0 0 0 0 0 0 0 0 0 0 0 0 0 0 0 0 0.3 0"/>
<feBlend mode="normal" in2="shape" result="effect1_innerShadow_142_541209"/>
<feColorMatrix in="SourceAlpha" type="matrix" values="0 0 0 0 0 0 0 0 0 0 0 0 0 0 0 0 0 0 127 0" result="hardAlpha"/>
<feOffset dy="0.366667"/>
<feGaussianBlur stdDeviation="0.0916667"/>
<feComposite in2="hardAlpha" operator="arithmetic" k2="-1" k3="1"/>
<feColorMatrix type="matrix" values="0 0 0 0 1 0 0 0 0 1 0 0 0 0 1 0 0 0 0.3 0"/>
<feBlend mode="normal" in2="effect1_innerShadow_142_541209" result="effect2_innerShadow_142_541209"/>
</filter>
<linearGradient id="paint0_linear_142_541209" x1="30.4049" y1="10.112" x2="38.7122" y2="18.4193" gradientUnits="userSpaceOnUse">
<stop stop-opacity="0.2"/>
<stop offset="1" stop-opacity="0"/>
</linearGradient>
</defs>
</svg>
