<svg width="24" height="24" viewBox="0 0 24 24" fill="none" xmlns="http://www.w3.org/2000/svg">
<g id="i24 / Navigation">
<g id="Vector">
<path d="M12 12.8569C12.4734 12.8569 12.8571 12.4731 12.8571 11.9997C12.8571 11.5263 12.4734 11.1426 12 11.1426C11.5266 11.1426 11.1428 11.5263 11.1428 11.9997C11.1428 12.4731 11.5266 12.8569 12 12.8569Z" fill="#1C1C1C"/>
<path d="M18 12.8569C18.4734 12.8569 18.8571 12.4731 18.8571 11.9997C18.8571 11.5263 18.4734 11.1426 18 11.1426C17.5266 11.1426 17.1428 11.5263 17.1428 11.9997C17.1428 12.4731 17.5266 12.8569 18 12.8569Z" fill="#1C1C1C"/>
<path d="M5.99997 12.8569C6.47335 12.8569 6.85711 12.4731 6.85711 11.9997C6.85711 11.5263 6.47335 11.1426 5.99997 11.1426C5.52658 11.1426 5.14282 11.5263 5.14282 11.9997C5.14282 12.4731 5.52658 12.8569 5.99997 12.8569Z" fill="#1C1C1C"/>
<path d="M12 12.8569C12.4734 12.8569 12.8571 12.4731 12.8571 11.9997C12.8571 11.5263 12.4734 11.1426 12 11.1426C11.5266 11.1426 11.1428 11.5263 11.1428 11.9997C11.1428 12.4731 11.5266 12.8569 12 12.8569Z" stroke="#1C1C1C" stroke-width="0.857143" stroke-linecap="round" stroke-linejoin="round"/>
<path d="M18 12.8569C18.4734 12.8569 18.8571 12.4731 18.8571 11.9997C18.8571 11.5263 18.4734 11.1426 18 11.1426C17.5266 11.1426 17.1428 11.5263 17.1428 11.9997C17.1428 12.4731 17.5266 12.8569 18 12.8569Z" stroke="#1C1C1C" stroke-width="0.857143" stroke-linecap="round" stroke-linejoin="round"/>
<path d="M5.99997 12.8569C6.47335 12.8569 6.85711 12.4731 6.85711 11.9997C6.85711 11.5263 6.47335 11.1426 5.99997 11.1426C5.52658 11.1426 5.14282 11.5263 5.14282 11.9997C5.14282 12.4731 5.52658 12.8569 5.99997 12.8569Z" stroke="#1C1C1C" stroke-width="0.857143" stroke-linecap="round" stroke-linejoin="round"/>
</g>
</g>
</svg>
