<svg width="48" height="48" viewBox="0 0 48 48" fill="none" xmlns="http://www.w3.org/2000/svg">
<path d="M30.0001 22H28.7401C28.366 20.551 27.5929 19.236 26.5088 18.2044C25.4246 17.1728 24.0728 16.466 22.607 16.1643C21.1412 15.8626 19.6202 15.978 18.2168 16.4976C16.8133 17.0171 15.5838 17.9199 14.6678 19.1034C13.7518 20.2868 13.1861 21.7035 13.035 23.1924C12.8839 24.6812 13.1535 26.1826 13.8131 27.526C14.4727 28.8693 15.4958 30.0007 16.7663 30.7916C18.0368 31.5824 19.5036 32.0011 21.0001 32H30.0001C31.3262 32 32.598 31.4732 33.5356 30.5355C34.4733 29.5979 35.0001 28.3261 35.0001 27C35.0001 25.6739 34.4733 24.4021 33.5356 23.4645C32.598 22.5268 31.3262 22 30.0001 22Z" stroke="#A4A4A4" stroke-width="1.5" stroke-linecap="round" stroke-linejoin="round"/>
</svg>
