<svg width="24" height="24" viewBox="0 0 24 24" fill="none" xmlns="http://www.w3.org/2000/svg">
<path d="M6.99183 12C6.99183 14.761 9.23783 17.007 11.9988 17.007C14.7598 17.007 17.0058 14.761 17.0058 12C17.0058 9.23895 14.7598 6.99295 11.9988 6.99295C9.23783 6.99295 6.99183 9.23895 6.99183 12ZM11.9988 8.99295C13.6568 8.99295 15.0058 10.342 15.0058 12C15.0058 13.658 13.6568 15.007 11.9988 15.007C10.3408 15.007 8.99183 13.658 8.99183 12C8.99183 10.342 10.3408 8.99295 11.9988 8.99295ZM10.9968 20C10.9968 19.4477 11.4445 19 11.9968 19C12.5491 19 12.9968 19.4477 12.9968 20V21C12.9968 21.5522 12.5491 22 11.9968 22C11.4445 22 10.9968 21.5522 10.9968 21V20ZM10.9968 2.99995C10.9968 2.44767 11.4445 1.99995 11.9968 1.99995C12.5491 1.99995 12.9968 2.44767 12.9968 2.99995V3.99995C12.9968 4.55224 12.5491 4.99995 11.9968 4.99995C11.4445 4.99995 10.9968 4.55224 10.9968 3.99995V2.99995ZM1.99683 12C1.99683 11.4477 2.44454 11 2.99683 11H3.99683C4.54911 11 4.99683 11.4477 4.99683 12C4.99683 12.5522 4.54911 13 3.99683 13H2.99683C2.44454 13 1.99683 12.5522 1.99683 12ZM18.9968 12C18.9968 11.4477 19.4445 11 19.9968 11H20.9968C21.5491 11 21.9968 11.4477 21.9968 12C21.9968 12.5522 21.5491 13 20.9968 13H19.9968C19.4445 13 18.9968 12.5522 18.9968 12ZM4.92524 19.0699C4.53453 18.6794 4.53427 18.0462 4.92466 17.6555L5.63083 16.9486C6.02128 16.5578 6.65464 16.5575 7.04541 16.948C7.43612 17.3385 7.43638 17.9717 7.04599 18.3625L6.33983 19.0693C5.94937 19.4601 5.31602 19.4604 4.92524 19.0699ZM16.9458 7.05095C16.5554 6.66049 16.5554 6.02742 16.9458 5.63695L17.6538 4.92895C18.0443 4.53849 18.6774 4.53849 19.0678 4.92895C19.4583 5.31942 19.4583 5.95249 19.0678 6.34295L18.3598 7.05095C17.9694 7.44142 17.3363 7.44142 16.9458 7.05095ZM7.04774 7.05154C6.65736 7.44219 6.02418 7.4423 5.63366 7.05179L4.92616 6.34429C4.53555 5.95368 4.53566 5.32034 4.92641 4.92987C5.31709 4.53947 5.9503 4.53973 6.34066 4.93045L7.04783 5.63829C7.43783 6.02866 7.4378 6.66121 7.04774 7.05154ZM19.0678 17.657C19.4583 18.0474 19.4583 18.6805 19.0678 19.071C18.6774 19.4614 18.0443 19.4614 17.6538 19.071L16.9458 18.363C16.5554 17.9725 16.5554 17.3394 16.9458 16.949C17.3363 16.5585 17.9694 16.5585 18.3598 16.949L19.0678 17.657Z" fill="#1C1C1C"/>
</svg>
