<svg width="48" height="48" viewBox="0 0 48 48" fill="none" xmlns="http://www.w3.org/2000/svg">
<rect width="48" height="48" rx="8" fill="#00000000"/>
<path d="M18.1304 30.1255L18.8903 30.3324C18.9716 30.0336 18.8704 29.715 18.6316 29.518L18.1304 30.1255ZM17.3478 33L16.588 32.7931C16.5074 33.0893 16.6061 33.4052 16.841 33.6028C17.0759 33.8003 17.4042 33.8433 17.6821 33.713L17.3478 33ZM20.4783 31.5326L20.7747 30.803C20.5714 30.7204 20.3428 30.7264 20.144 30.8196L20.4783 31.5326ZM18.8592 26.7566C18.6064 27.1105 18.6884 27.6023 19.0423 27.8551C19.3962 28.1079 19.888 28.0259 20.1408 27.672L18.8592 26.7566ZM22.7143 22.7143L23.1868 22.0843L22.542 21.6007L22.0735 22.2566L22.7143 22.7143ZM25.2857 24.6429L24.8132 25.2729L25.4117 25.7217L25.8907 25.147L25.2857 24.6429ZM29.105 21.2899C29.3834 20.9557 29.3383 20.4592 29.0041 20.1807C28.67 19.9023 28.1735 19.9475 27.895 20.2816L29.105 21.2899ZM24 14.2125C18.6273 14.2125 14.2125 18.3868 14.2125 23.6087H15.7875C15.7875 19.3219 19.4305 15.7875 24 15.7875V14.2125ZM14.2125 23.6087C14.2125 26.4691 15.5492 29.017 17.6293 30.733L18.6316 29.518C16.8847 28.0769 15.7875 25.962 15.7875 23.6087H14.2125ZM17.3706 29.9186L16.588 32.7931L18.1077 33.2069L18.8903 30.3324L17.3706 29.9186ZM17.6821 33.713L20.8125 32.2457L20.144 30.8196L17.0136 32.287L17.6821 33.713ZM20.1818 32.2622C21.3565 32.7395 22.6466 33.0049 24 33.0049V31.4299C22.8538 31.4299 21.7648 31.2054 20.7747 30.803L20.1818 32.2622ZM24 33.0049C29.3727 33.0049 33.7875 28.8306 33.7875 23.6087H32.2125C32.2125 27.8955 28.5695 31.4299 24 31.4299V33.0049ZM33.7875 23.6087C33.7875 18.3868 29.3727 14.2125 24 14.2125V15.7875C28.5695 15.7875 32.2125 19.3219 32.2125 23.6087H33.7875ZM20.1408 27.672L23.3551 23.172L22.0735 22.2566L18.8592 26.7566L20.1408 27.672ZM22.2418 23.3443L24.8132 25.2729L25.7582 24.0129L23.1868 22.0843L22.2418 23.3443ZM25.8907 25.147L29.105 21.2899L27.895 20.2816L24.6807 24.1387L25.8907 25.147Z" fill="white"/>
</svg>
