<svg width="18" height="22" viewBox="0 0 18 22" fill="none" xmlns="http://www.w3.org/2000/svg">
<path d="M5.33257 13.5727L3.56025 11.8367C2.9361 11.2252 1.94249 11.2717 1.37491 11.939C0.86196 12.5419 0.87706 13.4466 1.40982 14.0312L7.1871 20.3696C7.55473 20.7729 8.06732 21.0017 8.6048 21.0017C9.65973 21.0017 11.3941 21.0017 13.1109 21.0017C15.4443 21.0017 17 19.0016 17 17.0015C17 17.0015 17 10.1441 17 8.42969" stroke="#1C1C1C" stroke-width="1.5" stroke-linecap="round" stroke-linejoin="round"/>
<path d="M14.084 9.00067C14.084 9.00067 14.084 8.87554 14.084 8.42921C14.084 6.14339 17.0008 6.14339 17.0008 8.42921" stroke="#1C1C1C" stroke-width="1.5" stroke-linecap="round" stroke-linejoin="round"/>
<path d="M11.166 8.99904C11.166 8.99904 11.166 8.17734 11.166 7.28468C11.166 4.99886 14.0829 4.99886 14.0829 7.28468C14.0829 7.50784 14.0829 8.20442 14.0829 8.42758C14.0829 8.87393 14.0829 8.99904 14.0829 8.99904" stroke="#1C1C1C" stroke-width="1.5" stroke-linecap="round" stroke-linejoin="round"/>
<path d="M8.25 8.99968C8.25 8.99968 8.25 7.61536 8.25 6.49952C8.25 4.2137 11.1669 4.2137 11.1669 6.49952C11.1669 6.49952 11.1669 7.0621 11.1669 7.28527C11.1669 8.17794 11.1669 8.99968 11.1669 8.99968" stroke="#1C1C1C" stroke-width="1.5" stroke-linecap="round" stroke-linejoin="round"/>
<path d="M5.33203 13.572V2.50007C5.33203 1.6716 5.98499 1 6.79046 1C7.5959 1 8.24889 1.67059 8.24889 2.49906C8.24889 3.6898 8.24889 5.34176 8.24889 6.50026C8.24889 7.61609 8.24889 9.00037 8.24889 9.00037" stroke="#1C1C1C" stroke-width="1.5" stroke-linecap="round" stroke-linejoin="round"/>
</svg>
