<svg width="20" height="20" viewBox="0 0 20 20" fill="none" xmlns="http://www.w3.org/2000/svg">
<g id="Icon Frame">
<circle id="Ellipse 41" cx="9.99992" cy="10.0002" r="1.66667" stroke="#A4A4A4" stroke-width="1.25"/>
<path id="Vector" d="M4.49811 4.89941C3.72333 5.73448 3.16073 6.7255 2.83315 7.78723L4.16591 8.5567C5.27702 9.1982 5.27702 10.802 4.16591 11.4435L2.83172 12.2137C2.9944 12.7388 3.2177 13.254 3.50412 13.7501C3.79053 14.2461 4.12505 14.6971 4.49838 15.1005L5.8326 14.3302C6.94371 13.6887 8.3326 14.4906 8.3326 15.7736L8.3326 17.3126C9.41587 17.5597 10.5554 17.568 11.666 17.3146L11.666 15.7736C11.666 14.4906 13.0549 13.6888 14.166 14.3303L15.5005 15.1007C16.2753 14.2657 16.8379 13.2746 17.1655 12.2129L15.8327 11.4434C14.7215 10.8019 14.7215 9.19816 15.8327 8.55666L17.1669 7.78635C17.0042 7.26133 16.7809 6.74614 16.4945 6.25007C16.2081 5.75398 15.8735 5.30299 15.5002 4.8996L14.166 5.66989C13.0549 6.31139 11.666 5.50952 11.666 4.22652L11.666 2.68757C10.5827 2.4404 9.44318 2.43212 8.3326 2.68556L8.3326 4.2265C8.3326 5.5095 6.94371 6.31137 5.8326 5.66987L4.49811 4.89941Z" stroke="#A4A4A4" stroke-width="1.25" stroke-linejoin="round"/>
</g>
</svg>
