<svg width="24" height="24" viewBox="0 0 24 24" fill="none" xmlns="http://www.w3.org/2000/svg">
<g id="i24 / sort">
<path id="Vector" d="M18.6664 7.00065C18.6664 7.17746 18.5962 7.34703 18.4712 7.47206C18.3462 7.59708 18.1766 7.66732 17.9998 7.66732H11.9998C11.823 7.66732 11.6534 7.59708 11.5284 7.47206C11.4034 7.34703 11.3331 7.17746 11.3331 7.00065C11.3331 6.82384 11.4034 6.65427 11.5284 6.52925C11.6534 6.40422 11.823 6.33398 11.9998 6.33398H17.9998C18.1766 6.33398 18.3462 6.40422 18.4712 6.52925C18.5962 6.65427 18.6664 6.82384 18.6664 7.00065ZM17.9998 9.66732H13.3331C13.1563 9.66732 12.9867 9.73756 12.8617 9.86258C12.7367 9.9876 12.6664 10.1572 12.6664 10.334C12.6664 10.5108 12.7367 10.6804 12.8617 10.8054C12.9867 10.9304 13.1563 11.0007 13.3331 11.0007H17.9998C18.1766 11.0007 18.3462 10.9304 18.4712 10.8054C18.5962 10.6804 18.6664 10.5108 18.6664 10.334C18.6664 10.1572 18.5962 9.9876 18.4712 9.86258C18.3462 9.73756 18.1766 9.66732 17.9998 9.66732ZM17.9998 13.0007H14.6664C14.4896 13.0007 14.3201 13.0709 14.195 13.1959C14.07 13.3209 13.9998 13.4905 13.9998 13.6673C13.9998 13.8441 14.07 14.0137 14.195 14.1387C14.3201 14.2637 14.4896 14.334 14.6664 14.334H17.9998C18.1766 14.334 18.3462 14.2637 18.4712 14.1387C18.5962 14.0137 18.6664 13.8441 18.6664 13.6673C18.6664 13.4905 18.5962 13.3209 18.4712 13.1959C18.3462 13.0709 18.1766 13.0007 17.9998 13.0007ZM17.9998 16.334H15.9998C15.823 16.334 15.6534 16.4042 15.5284 16.5292C15.4034 16.6543 15.3331 16.8238 15.3331 17.0007C15.3331 17.1775 15.4034 17.347 15.5284 17.4721C15.6534 17.5971 15.823 17.6673 15.9998 17.6673H17.9998C18.1766 17.6673 18.3462 17.5971 18.4712 17.4721C18.5962 17.347 18.6664 17.1775 18.6664 17.0007C18.6664 16.8238 18.5962 16.6543 18.4712 16.5292C18.3462 16.4042 18.1766 16.334 17.9998 16.334ZM7.99978 5.33398C7.82297 5.33398 7.6534 5.40422 7.52838 5.52925C7.40335 5.65427 7.33312 5.82384 7.33312 6.00065V16.3913L6.47112 15.5293C6.34538 15.4079 6.17698 15.3407 6.00218 15.3422C5.82738 15.3437 5.66018 15.4138 5.53657 15.5374C5.41297 15.661 5.34285 15.8283 5.34133 16.0031C5.33981 16.1778 5.40701 16.3463 5.52845 16.472L7.52845 18.472C7.59038 18.5341 7.66394 18.5833 7.74494 18.6169C7.82593 18.6505 7.91276 18.6678 8.00045 18.6678C8.08814 18.6678 8.17497 18.6505 8.25596 18.6169C8.33695 18.5833 8.41052 18.5341 8.47245 18.472L10.4724 16.472C10.5939 16.3463 10.6611 16.1778 10.6596 16.0031C10.658 15.8283 10.5879 15.661 10.4643 15.5374C10.3407 15.4138 10.1735 15.3437 9.99872 15.3422C9.82392 15.3407 9.65552 15.4079 9.52978 15.5293L8.66645 16.3913V6.00065C8.66645 5.82384 8.59621 5.65427 8.47119 5.52925C8.34616 5.40422 8.17659 5.33398 7.99978 5.33398Z" fill="#A4A4A4"/>
</g>
</svg>
