<svg width="24" height="24" viewBox="0 0 24 24" fill="none" xmlns="http://www.w3.org/2000/svg">
<g id="i24 / sort">
<path id="Vector" d="M18.6669 6.99967C18.6669 7.17649 18.5967 7.34605 18.4717 7.47108C18.3467 7.5961 18.1771 7.66634 18.0003 7.66634H12.0003C11.8235 7.66634 11.6539 7.5961 11.5289 7.47108C11.4038 7.34605 11.3336 7.17649 11.3336 6.99967C11.3336 6.82286 11.4038 6.65329 11.5289 6.52827C11.6539 6.40325 11.8235 6.33301 12.0003 6.33301H18.0003C18.1771 6.33301 18.3467 6.40325 18.4717 6.52827C18.5967 6.65329 18.6669 6.82286 18.6669 6.99967ZM18.0003 9.66634H13.3336C13.1568 9.66634 12.9872 9.73658 12.8622 9.8616C12.7372 9.98663 12.6669 10.1562 12.6669 10.333C12.6669 10.5098 12.7372 10.6794 12.8622 10.8044C12.9872 10.9294 13.1568 10.9997 13.3336 10.9997H18.0003C18.1771 10.9997 18.3467 10.9294 18.4717 10.8044C18.5967 10.6794 18.6669 10.5098 18.6669 10.333C18.6669 10.1562 18.5967 9.98663 18.4717 9.8616C18.3467 9.73658 18.1771 9.66634 18.0003 9.66634ZM18.0003 12.9997H14.6669C14.4901 12.9997 14.3206 13.0699 14.1955 13.1949C14.0705 13.32 14.0003 13.4895 14.0003 13.6663C14.0003 13.8432 14.0705 14.0127 14.1955 14.1377C14.3206 14.2628 14.4901 14.333 14.6669 14.333H18.0003C18.1771 14.333 18.3467 14.2628 18.4717 14.1377C18.5967 14.0127 18.6669 13.8432 18.6669 13.6663C18.6669 13.4895 18.5967 13.32 18.4717 13.1949C18.3467 13.0699 18.1771 12.9997 18.0003 12.9997ZM18.0003 16.333H16.0003C15.8235 16.333 15.6539 16.4032 15.5289 16.5283C15.4038 16.6533 15.3336 16.8229 15.3336 16.9997C15.3336 17.1765 15.4038 17.3461 15.5289 17.4711C15.6539 17.5961 15.8235 17.6663 16.0003 17.6663H18.0003C18.1771 17.6663 18.3467 17.5961 18.4717 17.4711C18.5967 17.3461 18.6669 17.1765 18.6669 16.9997C18.6669 16.8229 18.5967 16.6533 18.4717 16.5283C18.3467 16.4032 18.1771 16.333 18.0003 16.333ZM8.00027 5.33301C7.82346 5.33301 7.65389 5.40325 7.52887 5.52827C7.40384 5.65329 7.3336 5.82286 7.3336 5.99967V16.3903L6.4716 15.5283C6.34587 15.4069 6.17747 15.3397 6.00267 15.3412C5.82787 15.3427 5.66066 15.4129 5.53706 15.5365C5.41345 15.6601 5.34334 15.8273 5.34182 16.0021C5.3403 16.1769 5.4075 16.3453 5.52894 16.471L7.52894 18.471C7.59087 18.5331 7.66443 18.5823 7.74543 18.616C7.82642 18.6496 7.91325 18.6669 8.00094 18.6669C8.08863 18.6669 8.17546 18.6496 8.25645 18.616C8.33744 18.5823 8.41101 18.5331 8.47294 18.471L10.4729 16.471C10.5944 16.3453 10.6616 16.1769 10.6601 16.0021C10.6585 15.8273 10.5884 15.6601 10.4648 15.5365C10.3412 15.4129 10.174 15.3427 9.99921 15.3412C9.82441 15.3397 9.65601 15.4069 9.53027 15.5283L8.66694 16.3903V5.99967C8.66694 5.82286 8.5967 5.65329 8.47168 5.52827C8.34665 5.40325 8.17708 5.33301 8.00027 5.33301Z" fill="#A4A4A4"/>
</g>
</svg>
