<svg width="24" height="24" viewBox="0 0 24 24" fill="none" xmlns="http://www.w3.org/2000/svg">
<path d="M6.99207 12C6.99207 14.761 9.23807 17.007 11.9991 17.007C14.7601 17.007 17.0061 14.761 17.0061 12C17.0061 9.239 14.7601 6.993 11.9991 6.993C9.23807 6.993 6.99207 9.239 6.99207 12ZM11.9991 8.993C13.6571 8.993 15.0061 10.342 15.0061 12C15.0061 13.658 13.6571 15.007 11.9991 15.007C10.3411 15.007 8.99207 13.658 8.99207 12C8.99207 10.342 10.3411 8.993 11.9991 8.993ZM10.9971 20C10.9971 19.4477 11.4448 19 11.9971 19C12.5494 19 12.9971 19.4477 12.9971 20V21C12.9971 21.5523 12.5494 22 11.9971 22C11.4448 22 10.9971 21.5523 10.9971 21V20ZM10.9971 3C10.9971 2.44772 11.4448 2 11.9971 2C12.5494 2 12.9971 2.44772 12.9971 3V4C12.9971 4.55228 12.5494 5 11.9971 5C11.4448 5 10.9971 4.55228 10.9971 4V3ZM1.99707 12C1.99707 11.4477 2.44479 11 2.99707 11H3.99707C4.54936 11 4.99707 11.4477 4.99707 12C4.99707 12.5523 4.54936 13 3.99707 13H2.99707C2.44479 13 1.99707 12.5523 1.99707 12ZM18.9971 12C18.9971 11.4477 19.4448 11 19.9971 11H20.9971C21.5494 11 21.9971 11.4477 21.9971 12C21.9971 12.5523 21.5494 13 20.9971 13H19.9971C19.4448 13 18.9971 12.5523 18.9971 12ZM4.92549 19.0699C4.53478 18.6795 4.53452 18.0463 4.9249 17.6555L5.63107 16.9487C6.02152 16.5578 6.65488 16.5576 7.04565 16.9481C7.43636 17.3385 7.43662 17.9717 7.04624 18.3625L6.34007 19.0693C5.94962 19.4602 5.31626 19.4604 4.92549 19.0699ZM16.9461 7.051C16.5556 6.66053 16.5556 6.02747 16.9461 5.637L17.6541 4.929C18.0445 4.53853 18.6776 4.53853 19.0681 4.929C19.4585 5.31947 19.4585 5.95253 19.0681 6.343L18.3601 7.051C17.9696 7.44147 17.3365 7.44147 16.9461 7.051ZM7.04799 7.05158C6.65761 7.44224 6.02442 7.44235 5.6339 7.05183L4.9264 6.34433C4.53579 5.95372 4.53591 5.32039 4.92665 4.92992C5.31734 4.53951 5.95054 4.53977 6.3409 4.9305L7.04807 5.63833C7.43808 6.02871 7.43804 6.66125 7.04799 7.05158ZM19.0681 17.657C19.4585 18.0475 19.4585 18.6805 19.0681 19.071C18.6776 19.4615 18.0445 19.4615 17.6541 19.071L16.9461 18.363C16.5556 17.9725 16.5556 17.3395 16.9461 16.949C17.3365 16.5585 17.9696 16.5585 18.3601 16.949L19.0681 17.657Z" fill="#A4A4A4"/>
</svg>
