<svg width="24" height="24" viewBox="0 0 24 24" fill="none" xmlns="http://www.w3.org/2000/svg">
<mask id="path-1-inside-1_2_188124" fill="white">
<path d="M19.5 3H17.25V2.25C17.25 2.05109 17.171 1.86032 17.0303 1.71967C16.8897 1.57902 16.6989 1.5 16.5 1.5C16.3011 1.5 16.1103 1.57902 15.9697 1.71967C15.829 1.86032 15.75 2.05109 15.75 2.25V3H8.25V2.25C8.25 2.05109 8.17098 1.86032 8.03033 1.71967C7.88968 1.57902 7.69891 1.5 7.5 1.5C7.30109 1.5 7.11032 1.57902 6.96967 1.71967C6.82902 1.86032 6.75 2.05109 6.75 2.25V3H4.5C4.10218 3 3.72064 3.15804 3.43934 3.43934C3.15804 3.72064 3 4.10218 3 4.5V19.5C3 19.8978 3.15804 20.2794 3.43934 20.5607C3.72064 20.842 4.10218 21 4.5 21H19.5C19.8978 21 20.2794 20.842 20.5607 20.5607C20.842 20.2794 21 19.8978 21 19.5V4.5C21 4.10218 20.842 3.72064 20.5607 3.43934C20.2794 3.15804 19.8978 3 19.5 3ZM6.75 4.5V5.25C6.75 5.44891 6.82902 5.63968 6.96967 5.78033C7.11032 5.92098 7.30109 6 7.5 6C7.69891 6 7.88968 5.92098 8.03033 5.78033C8.17098 5.63968 8.25 5.44891 8.25 5.25V4.5H15.75V5.25C15.75 5.44891 15.829 5.63968 15.9697 5.78033C16.1103 5.92098 16.3011 6 16.5 6C16.6989 6 16.8897 5.92098 17.0303 5.78033C17.171 5.63968 17.25 5.44891 17.25 5.25V4.5H19.5V7.5H4.5V4.5H6.75ZM19.5 19.5H4.5V9H19.5V19.5ZM15.9056 11.4694C15.9754 11.539 16.0307 11.6217 16.0684 11.7128C16.1062 11.8038 16.1256 11.9014 16.1256 12C16.1256 12.0986 16.1062 12.1962 16.0684 12.2872C16.0307 12.3783 15.9754 12.461 15.9056 12.5306L11.4056 17.0306C11.336 17.1004 11.2533 17.1557 11.1622 17.1934C11.0712 17.2312 10.9736 17.2506 10.875 17.2506C10.7764 17.2506 10.6788 17.2312 10.5878 17.1934C10.4967 17.1557 10.414 17.1004 10.3444 17.0306L8.09437 14.7806C7.95364 14.6399 7.87458 14.449 7.87458 14.25C7.87458 14.051 7.95364 13.8601 8.09437 13.7194C8.23511 13.5786 8.42598 13.4996 8.625 13.4996C8.82402 13.4996 9.01489 13.5786 9.15563 13.7194L10.875 15.4397L14.8444 11.4694C14.914 11.3996 14.9967 11.3443 15.0878 11.3066C15.1788 11.2688 15.2764 11.2494 15.375 11.2494C15.4736 11.2494 15.5712 11.2688 15.6622 11.3066C15.7533 11.3443 15.836 11.3996 15.9056 11.4694Z"/>
</mask>
<path d="M19.5 3H17.25V2.25C17.25 2.05109 17.171 1.86032 17.0303 1.71967C16.8897 1.57902 16.6989 1.5 16.5 1.5C16.3011 1.5 16.1103 1.57902 15.9697 1.71967C15.829 1.86032 15.75 2.05109 15.75 2.25V3H8.25V2.25C8.25 2.05109 8.17098 1.86032 8.03033 1.71967C7.88968 1.57902 7.69891 1.5 7.5 1.5C7.30109 1.5 7.11032 1.57902 6.96967 1.71967C6.82902 1.86032 6.75 2.05109 6.75 2.25V3H4.5C4.10218 3 3.72064 3.15804 3.43934 3.43934C3.15804 3.72064 3 4.10218 3 4.5V19.5C3 19.8978 3.15804 20.2794 3.43934 20.5607C3.72064 20.842 4.10218 21 4.5 21H19.5C19.8978 21 20.2794 20.842 20.5607 20.5607C20.842 20.2794 21 19.8978 21 19.5V4.5C21 4.10218 20.842 3.72064 20.5607 3.43934C20.2794 3.15804 19.8978 3 19.5 3ZM6.75 4.5V5.25C6.75 5.44891 6.82902 5.63968 6.96967 5.78033C7.11032 5.92098 7.30109 6 7.5 6C7.69891 6 7.88968 5.92098 8.03033 5.78033C8.17098 5.63968 8.25 5.44891 8.25 5.25V4.5H15.75V5.25C15.75 5.44891 15.829 5.63968 15.9697 5.78033C16.1103 5.92098 16.3011 6 16.5 6C16.6989 6 16.8897 5.92098 17.0303 5.78033C17.171 5.63968 17.25 5.44891 17.25 5.25V4.5H19.5V7.5H4.5V4.5H6.75ZM19.5 19.5H4.5V9H19.5V19.5ZM15.9056 11.4694C15.9754 11.539 16.0307 11.6217 16.0684 11.7128C16.1062 11.8038 16.1256 11.9014 16.1256 12C16.1256 12.0986 16.1062 12.1962 16.0684 12.2872C16.0307 12.3783 15.9754 12.461 15.9056 12.5306L11.4056 17.0306C11.336 17.1004 11.2533 17.1557 11.1622 17.1934C11.0712 17.2312 10.9736 17.2506 10.875 17.2506C10.7764 17.2506 10.6788 17.2312 10.5878 17.1934C10.4967 17.1557 10.414 17.1004 10.3444 17.0306L8.09437 14.7806C7.95364 14.6399 7.87458 14.449 7.87458 14.25C7.87458 14.051 7.95364 13.8601 8.09437 13.7194C8.23511 13.5786 8.42598 13.4996 8.625 13.4996C8.82402 13.4996 9.01489 13.5786 9.15563 13.7194L10.875 15.4397L14.8444 11.4694C14.914 11.3996 14.9967 11.3443 15.0878 11.3066C15.1788 11.2688 15.2764 11.2494 15.375 11.2494C15.4736 11.2494 15.5712 11.2688 15.6622 11.3066C15.7533 11.3443 15.836 11.3996 15.9056 11.4694Z" fill="#1C1C1C"/>
<path d="M19.5 3V1.5V3ZM17.25 3H15.75V4.5H17.25V3ZM16.5 1.5V0V1.5ZM15.75 3V4.5H17.25V3H15.75ZM8.25 3H6.75V4.5H8.25V3ZM7.5 1.5V0V1.5ZM6.75 3V4.5H8.25V3H6.75ZM4.5 3V1.5V3ZM3 4.5H1.5H3ZM3 19.5H1.5H3ZM6.75 4.5H8.25V3H6.75V4.5ZM8.25 4.5V3H6.75V4.5H8.25ZM15.75 4.5H17.25V3H15.75V4.5ZM17.25 4.5V3H15.75V4.5H17.25ZM19.5 4.5H21V3H19.5V4.5ZM19.5 7.5V9H21V7.5H19.5ZM4.5 7.5H3V9H4.5V7.5ZM4.5 4.5V3H3V4.5H4.5ZM19.5 19.5V21H21V19.5H19.5ZM4.5 19.5H3V21H4.5V19.5ZM4.5 9V7.5H3V9H4.5ZM19.5 9H21V7.5H19.5V9ZM15.9056 11.4694L14.8444 12.5294L14.8456 12.5306L15.9056 11.4694ZM15.9056 12.5306L14.8456 11.4694L14.845 11.47L15.9056 12.5306ZM11.4056 17.0306L10.345 15.97L10.3444 15.9706L11.4056 17.0306ZM10.3444 17.0306L11.4056 15.9706L11.405 15.97L10.3444 17.0306ZM7.87458 14.25H6.37458H7.87458ZM9.15563 13.7194L10.2166 12.659L10.2163 12.6587L9.15563 13.7194ZM10.875 15.4397L9.81405 16.5001L10.8748 17.5614L11.9358 16.5002L10.875 15.4397ZM14.8444 11.4694L15.9052 12.5299L15.9056 12.5294L14.8444 11.4694ZM19.5 1.5H17.25V4.5H19.5V1.5ZM18.75 3V2.25H15.75V3H18.75ZM18.75 2.25C18.75 1.65327 18.5129 1.08097 18.091 0.65901L15.9697 2.78033C15.829 2.63968 15.75 2.44891 15.75 2.25H18.75ZM18.091 0.65901C17.669 0.237052 17.0967 0 16.5 0V3C16.3011 3 16.1103 2.92098 15.9697 2.78033L18.091 0.65901ZM16.5 0C15.9033 0 15.331 0.237052 14.909 0.65901L17.0303 2.78033C16.8897 2.92098 16.6989 3 16.5 3V0ZM14.909 0.65901C14.4871 1.08097 14.25 1.65327 14.25 2.25H17.25C17.25 2.44891 17.171 2.63968 17.0303 2.78033L14.909 0.65901ZM14.25 2.25V3H17.25V2.25H14.25ZM15.75 1.5H8.25V4.5H15.75V1.5ZM9.75 3V2.25H6.75V3H9.75ZM9.75 2.25C9.75 1.65326 9.51295 1.08097 9.09099 0.65901L6.96967 2.78033C6.82902 2.63968 6.75 2.44891 6.75 2.25H9.75ZM9.09099 0.65901C8.66903 0.237053 8.09674 0 7.5 0V3C7.30109 3 7.11032 2.92098 6.96967 2.78033L9.09099 0.65901ZM7.5 0C6.90326 0 6.33097 0.237053 5.90901 0.65901L8.03033 2.78033C7.88968 2.92098 7.69891 3 7.5 3V0ZM5.90901 0.65901C5.48705 1.08097 5.25 1.65326 5.25 2.25H8.25C8.25 2.44891 8.17098 2.63968 8.03033 2.78033L5.90901 0.65901ZM5.25 2.25V3H8.25V2.25H5.25ZM6.75 1.5H4.5V4.5H6.75V1.5ZM4.5 1.5C3.70435 1.5 2.94129 1.81607 2.37868 2.37868L4.5 4.5H4.5V1.5ZM2.37868 2.37868C1.81607 2.94129 1.5 3.70435 1.5 4.5H4.5H4.5L2.37868 2.37868ZM1.5 4.5V19.5H4.5V4.5H1.5ZM1.5 19.5C1.5 20.2957 1.81607 21.0587 2.37868 21.6213L4.5 19.5H4.5H1.5ZM2.37868 21.6213C2.94129 22.1839 3.70435 22.5 4.5 22.5V19.5H4.5L2.37868 21.6213ZM4.5 22.5H19.5V19.5H4.5V22.5ZM19.5 22.5C20.2957 22.5 21.0587 22.1839 21.6213 21.6213L19.5 19.5V22.5ZM21.6213 21.6213C22.1839 21.0587 22.5 20.2957 22.5 19.5H19.5L21.6213 21.6213ZM22.5 19.5V4.5H19.5V19.5H22.5ZM22.5 4.5C22.5 3.70435 22.1839 2.94129 21.6213 2.37868L19.5 4.5H22.5ZM21.6213 2.37868C21.0587 1.81607 20.2957 1.5 19.5 1.5V4.5L21.6213 2.37868ZM5.25 4.5V5.25H8.25V4.5H5.25ZM5.25 5.25C5.25 5.84674 5.48705 6.41903 5.90901 6.84099L8.03033 4.71967C8.17098 4.86032 8.25 5.05109 8.25 5.25H5.25ZM5.90901 6.84099C6.33097 7.26295 6.90326 7.5 7.5 7.5V4.5C7.69891 4.5 7.88968 4.57902 8.03033 4.71967L5.90901 6.84099ZM7.5 7.5C8.09674 7.5 8.66903 7.26295 9.09099 6.84099L6.96967 4.71967C7.11032 4.57902 7.30109 4.5 7.5 4.5V7.5ZM9.09099 6.84099C9.51295 6.41903 9.75 5.84674 9.75 5.25H6.75C6.75 5.05109 6.82902 4.86032 6.96967 4.71967L9.09099 6.84099ZM9.75 5.25V4.5H6.75V5.25H9.75ZM8.25 6H15.75V3H8.25V6ZM14.25 4.5V5.25H17.25V4.5H14.25ZM14.25 5.25C14.25 5.84673 14.4871 6.41903 14.909 6.84099L17.0303 4.71967C17.171 4.86032 17.25 5.05109 17.25 5.25H14.25ZM14.909 6.84099C15.331 7.26295 15.9033 7.5 16.5 7.5V4.5C16.6989 4.5 16.8897 4.57902 17.0303 4.71967L14.909 6.84099ZM16.5 7.5C17.0967 7.5 17.669 7.26295 18.091 6.84099L15.9697 4.71967C16.1103 4.57902 16.3011 4.5 16.5 4.5V7.5ZM18.091 6.84099C18.5129 6.41903 18.75 5.84673 18.75 5.25H15.75C15.75 5.05109 15.829 4.86032 15.9697 4.71967L18.091 6.84099ZM18.75 5.25V4.5H15.75V5.25H18.75ZM17.25 6H19.5V3H17.25V6ZM18 4.5V7.5H21V4.5H18ZM19.5 6H4.5V9H19.5V6ZM6 7.5V4.5H3V7.5H6ZM4.5 6H6.75V3H4.5V6ZM19.5 18H4.5V21H19.5V18ZM6 19.5V9H3V19.5H6ZM4.5 10.5H19.5V7.5H4.5V10.5ZM18 9V19.5H21V9H18ZM14.8456 12.5306C14.7758 12.461 14.7205 12.3783 14.6828 12.2872L17.4541 11.1384C17.3408 10.8652 17.1749 10.6171 16.9657 10.4081L14.8456 12.5306ZM14.6828 12.2872C14.645 12.1961 14.6256 12.0985 14.6256 12H17.6256C17.6256 11.7043 17.5673 11.4115 17.4541 11.1384L14.6828 12.2872ZM14.6256 12C14.6256 11.9015 14.645 11.8039 14.6828 11.7128L17.4541 12.8616C17.5673 12.5885 17.6256 12.2957 17.6256 12H14.6256ZM14.6828 11.7128C14.7205 11.6217 14.7758 11.539 14.8456 11.4694L16.9657 13.5919C17.1749 13.3829 17.3408 13.1348 17.4541 12.8616L14.6828 11.7128ZM14.845 11.47L10.345 15.97L12.4663 18.0913L16.9663 13.5913L14.845 11.47ZM10.3444 15.9706C10.414 15.9008 10.4967 15.8455 10.5878 15.8078L11.7366 18.5791C12.0098 18.4659 12.2579 18.2999 12.4669 18.0907L10.3444 15.9706ZM10.5878 15.8078C10.6789 15.77 10.7765 15.7506 10.875 15.7506V18.7506C11.1707 18.7506 11.4635 18.6923 11.7366 18.5791L10.5878 15.8078ZM10.875 15.7506C10.9735 15.7506 11.0711 15.77 11.1622 15.8078L10.0134 18.5791C10.2865 18.6923 10.5793 18.7506 10.875 18.7506V15.7506ZM11.1622 15.8078C11.2533 15.8455 11.336 15.9008 11.4056 15.9706L9.28312 18.0907C9.49209 18.2999 9.74024 18.4659 10.0134 18.5791L11.1622 15.8078ZM11.405 15.97L9.15504 13.72L7.03371 15.8413L9.28371 18.0913L11.405 15.97ZM9.15504 13.72C9.29561 13.8605 9.37458 14.0512 9.37458 14.25H6.37458C6.37458 14.8468 6.61168 15.4192 7.03371 15.8413L9.15504 13.72ZM9.37458 14.25C9.37458 14.4488 9.29561 14.6395 9.15504 14.78L7.03371 12.6587C6.61168 13.0808 6.37458 13.6532 6.37458 14.25H9.37458ZM9.15504 14.78C9.01446 14.9206 8.8238 14.9996 8.625 14.9996V11.9996C8.02815 11.9996 7.45575 12.2367 7.03371 12.6587L9.15504 14.78ZM8.625 14.9996C8.4262 14.9996 8.23554 14.9206 8.09496 14.78L10.2163 12.6587C9.79425 12.2367 9.22185 11.9996 8.625 11.9996V14.9996ZM8.09468 14.7797L9.81405 16.5001L11.9359 14.3793L10.2166 12.659L8.09468 14.7797ZM11.9358 16.5002L15.9052 12.5299L13.7836 10.4088L9.81421 14.3792L11.9358 16.5002ZM15.9056 12.5294C15.836 12.5992 15.7532 12.6545 15.6622 12.6922L14.5134 9.92092C14.2402 10.0341 13.9921 10.2001 13.7831 10.4093L15.9056 12.5294ZM15.6622 12.6922C15.5712 12.73 15.4736 12.7494 15.375 12.7494V9.74941C15.0793 9.74941 14.7865 9.80769 14.5134 9.92092L15.6622 12.6922ZM15.375 12.7494C15.2764 12.7494 15.1788 12.73 15.0878 12.6922L16.2366 9.92092C15.9635 9.80769 15.6707 9.74941 15.375 9.74941V12.7494ZM15.0878 12.6922C14.9968 12.6545 14.914 12.5992 14.8444 12.5294L16.9669 10.4093C16.7579 10.2001 16.5098 10.0341 16.2366 9.92092L15.0878 12.6922Z" fill="#1C1C1C" mask="url(#path-1-inside-1_2_188124)"/>
</svg>
