<svg width="40" height="40" viewBox="0 0 40 40" fill="none" xmlns="http://www.w3.org/2000/svg">
<g clip-path="url(#clip0_1057_483876)">
<rect width="40" height="40" rx="8" fill="white"/>
<path fill-rule="evenodd" clip-rule="evenodd" d="M-8 26.6667H48V40H-8V26.6667Z" fill="#249F58"/>
<path fill-rule="evenodd" clip-rule="evenodd" d="M23.92 19.2C23.9733 19.4587 24 19.7253 24 20C24 22.208 22.208 24 20 24C17.792 24 16 22.208 16 20C16 19.7253 16.0267 19.4587 16.08 19.2C16.4533 20.416 18.064 21.3333 20 21.3333C21.936 21.3333 23.5467 20.416 23.92 19.2ZM20 18.6667C20.736 18.6667 21.3333 18.0693 21.3333 17.3333C21.3333 16.5973 20.736 16 20 16C19.264 16 18.6667 16.5973 18.6667 17.3333C18.6667 18.0693 19.264 18.6667 20 18.6667Z" fill="#FFDA2C"/>
<path fill-rule="evenodd" clip-rule="evenodd" d="M-8 0H48V13.3333H-8V0Z" fill="#AF010D"/>
</g>
<rect x="0.5" y="0.5" width="39" height="39" rx="7.5" stroke="#A4A4A4"/>
<defs>
<clipPath id="clip0_1057_483876">
<rect width="40" height="40" rx="8" fill="white"/>
</clipPath>
</defs>
</svg>
