<svg width="40" height="40" viewBox="0 0 40 40" fill="none" xmlns="http://www.w3.org/2000/svg">
<rect x="0.5" y="0.5" width="39" height="39" rx="7.5" fill="#F93939"/>
<rect x="0.5" y="0.5" width="39" height="39" rx="7.5" stroke="#A4A4A4"/>
<path fill-rule="evenodd" clip-rule="evenodd" d="M29.3388 23.0721L26.2401 24.6988L26.8321 21.2508L24.3254 18.8054L27.7921 18.2988L29.3388 15.1628L30.8854 18.3014L34.3521 18.8081L31.8454 21.2481L32.4374 24.6961" fill="white"/>
<path fill-rule="evenodd" clip-rule="evenodd" d="M17.3333 29.3334C22.488 29.3334 26.6667 25.1547 26.6667 20C26.6667 14.8454 22.488 10.6667 17.3333 10.6667C12.1787 10.6667 8 14.8454 8 20C8 25.1547 12.1787 29.3334 17.3333 29.3334ZM20 26.6667C23.68 26.6667 26.6667 23.68 26.6667 20C26.6667 16.32 23.68 13.3334 20 13.3334C16.32 13.3334 13.3333 16.32 13.3333 20C13.3333 23.68 16.32 26.6667 20 26.6667Z" fill="white"/>
</svg>
