<svg width="44" height="44" viewBox="0 0 44 44" fill="none" xmlns="http://www.w3.org/2000/svg">
<g filter="url(#filter0_ii_142_541272)">
<path fill-rule="evenodd" clip-rule="evenodd" d="M27.6838 3.66666L36.8504 12.8332V37.4C36.8504 39.02 35.5371 40.3333 33.9171 40.3333H10.0837C8.46369 40.3333 7.15039 39.02 7.15039 37.4V6.59999C7.15039 4.97996 8.46369 3.66666 10.0837 3.66666H27.6838Z" fill="#8289AD"/>
</g>
<path d="M35.9902 11.974H28.543L36.8503 20.2813L36.8503 12.8333L35.9902 11.974Z" fill="url(#paint0_linear_142_541272)"/>
<path d="M30.6163 12.8333L36.8496 12.8333L27.6829 3.66668L27.6829 9.90001C27.6829 11.52 28.9962 12.8333 30.6163 12.8333Z" fill="#CDCFDE"/>
<g filter="url(#filter1_dd_142_541272)">
<path d="M22.14 31.24C21.8333 31.24 21.6 31.16 21.44 31C21.28 30.8267 21.2 30.5867 21.2 30.28V18.58H16.82C16.5667 18.58 16.3667 18.5133 16.22 18.38C16.0733 18.2333 16 18.0333 16 17.78C16 17.5267 16.0733 17.3333 16.22 17.2C16.3667 17.0667 16.5667 17 16.82 17H27.44C27.7067 17 27.9067 17.0667 28.04 17.2C28.1867 17.3333 28.26 17.5267 28.26 17.78C28.26 18.0333 28.1867 18.2333 28.04 18.38C27.9067 18.5133 27.7067 18.58 27.44 18.58H23.06V30.28C23.06 30.5867 22.98 30.8267 22.82 31C22.6733 31.16 22.4467 31.24 22.14 31.24Z" fill="white"/>
</g>
<defs>
<filter id="filter0_ii_142_541272" x="7.15039" y="3.48332" width="29.6992" height="37.0333" filterUnits="userSpaceOnUse" color-interpolation-filters="sRGB">
<feFlood flood-opacity="0" result="BackgroundImageFix"/>
<feBlend mode="normal" in="SourceGraphic" in2="BackgroundImageFix" result="shape"/>
<feColorMatrix in="SourceAlpha" type="matrix" values="0 0 0 0 0 0 0 0 0 0 0 0 0 0 0 0 0 0 127 0" result="hardAlpha"/>
<feOffset dy="-0.366667"/>
<feGaussianBlur stdDeviation="0.0916667"/>
<feComposite in2="hardAlpha" operator="arithmetic" k2="-1" k3="1"/>
<feColorMatrix type="matrix" values="0 0 0 0 0 0 0 0 0 0 0 0 0 0 0 0 0 0 0.3 0"/>
<feBlend mode="normal" in2="shape" result="effect1_innerShadow_142_541272"/>
<feColorMatrix in="SourceAlpha" type="matrix" values="0 0 0 0 0 0 0 0 0 0 0 0 0 0 0 0 0 0 127 0" result="hardAlpha"/>
<feOffset dy="0.366667"/>
<feGaussianBlur stdDeviation="0.0916667"/>
<feComposite in2="hardAlpha" operator="arithmetic" k2="-1" k3="1"/>
<feColorMatrix type="matrix" values="0 0 0 0 1 0 0 0 0 1 0 0 0 0 1 0 0 0 0.3 0"/>
<feBlend mode="normal" in2="effect1_innerShadow_142_541272" result="effect2_innerShadow_142_541272"/>
</filter>
<filter id="filter1_dd_142_541272" x="15.8167" y="16.8167" width="13.9098" height="16.2567" filterUnits="userSpaceOnUse" color-interpolation-filters="sRGB">
<feFlood flood-opacity="0" result="BackgroundImageFix"/>
<feColorMatrix in="SourceAlpha" type="matrix" values="0 0 0 0 0 0 0 0 0 0 0 0 0 0 0 0 0 0 127 0" result="hardAlpha"/>
<feOffset dx="0.733333" dy="1.1"/>
<feGaussianBlur stdDeviation="0.366667"/>
<feColorMatrix type="matrix" values="0 0 0 0 0 0 0 0 0 0 0 0 0 0 0 0 0 0 0.1 0"/>
<feBlend mode="normal" in2="BackgroundImageFix" result="effect1_dropShadow_142_541272"/>
<feColorMatrix in="SourceAlpha" type="matrix" values="0 0 0 0 0 0 0 0 0 0 0 0 0 0 0 0 0 0 127 0" result="hardAlpha"/>
<feOffset/>
<feGaussianBlur stdDeviation="0.0916667"/>
<feColorMatrix type="matrix" values="0 0 0 0 0 0 0 0 0 0 0 0 0 0 0 0 0 0 0.4 0"/>
<feBlend mode="normal" in2="effect1_dropShadow_142_541272" result="effect2_dropShadow_142_541272"/>
<feBlend mode="normal" in="SourceGraphic" in2="effect2_dropShadow_142_541272" result="shape"/>
</filter>
<linearGradient id="paint0_linear_142_541272" x1="28.543" y1="11.8369" x2="38.7122" y2="18.4193" gradientUnits="userSpaceOnUse">
<stop stop-opacity="0.2"/>
<stop offset="1" stop-opacity="0"/>
</linearGradient>
</defs>
</svg>
