<svg width="25" height="24" viewBox="0 0 25 24" fill="none" xmlns="http://www.w3.org/2000/svg">
<g filter="url(#filter0_ii_142_541279)">
<path fill-rule="evenodd" clip-rule="evenodd" d="M5.86367 2.00018C4.98002 2.00018 4.26367 2.71653 4.26367 3.60018V20.4002C4.26367 21.2838 4.98002 22.0002 5.86367 22.0002H18.8637C19.7473 22.0002 20.4637 21.2838 20.4637 20.4002V7.00031L15.4637 2.00036H18.8878C18.8797 2.00024 18.8717 2.00018 18.8637 2.00018H5.86367Z" fill="#8289AD"/>
</g>
<path d="M19.9938 6.53107H15.9316L20.4629 11.0623V6.99982L19.9938 6.53107Z" fill="url(#paint0_linear_142_541279)"/>
<path d="M17.0629 6.99982L20.4629 6.99982L15.4629 1.99982L15.4629 5.39982C15.4629 6.28347 16.1792 6.99982 17.0629 6.99982Z" fill="#CDCFDE"/>
<g filter="url(#filter1_dd_142_541279)">
<path d="M12.07 16.12C11.9167 16.12 11.8 16.08 11.72 16C11.64 15.9133 11.6 15.7933 11.6 15.64V9.79H9.41C9.28333 9.79 9.18333 9.75667 9.11 9.69C9.03667 9.61667 9 9.51667 9 9.39C9 9.26333 9.03667 9.16667 9.11 9.1C9.18333 9.03333 9.28333 9 9.41 9H14.72C14.8533 9 14.9533 9.03333 15.02 9.1C15.0933 9.16667 15.13 9.26333 15.13 9.39C15.13 9.51667 15.0933 9.61667 15.02 9.69C14.9533 9.75667 14.8533 9.79 14.72 9.79H12.53V15.64C12.53 15.7933 12.49 15.9133 12.41 16C12.3367 16.08 12.2233 16.12 12.07 16.12Z" fill="white"/>
</g>
<defs>
<filter id="filter0_ii_142_541279" x="4.26367" y="1.90018" width="16.1992" height="20.2" filterUnits="userSpaceOnUse" color-interpolation-filters="sRGB">
<feFlood flood-opacity="0" result="BackgroundImageFix"/>
<feBlend mode="normal" in="SourceGraphic" in2="BackgroundImageFix" result="shape"/>
<feColorMatrix in="SourceAlpha" type="matrix" values="0 0 0 0 0 0 0 0 0 0 0 0 0 0 0 0 0 0 127 0" result="hardAlpha"/>
<feOffset dy="-0.2"/>
<feGaussianBlur stdDeviation="0.05"/>
<feComposite in2="hardAlpha" operator="arithmetic" k2="-1" k3="1"/>
<feColorMatrix type="matrix" values="0 0 0 0 0 0 0 0 0 0 0 0 0 0 0 0 0 0 0.3 0"/>
<feBlend mode="normal" in2="shape" result="effect1_innerShadow_142_541279"/>
<feColorMatrix in="SourceAlpha" type="matrix" values="0 0 0 0 0 0 0 0 0 0 0 0 0 0 0 0 0 0 127 0" result="hardAlpha"/>
<feOffset dy="0.2"/>
<feGaussianBlur stdDeviation="0.05"/>
<feComposite in2="hardAlpha" operator="arithmetic" k2="-1" k3="1"/>
<feColorMatrix type="matrix" values="0 0 0 0 1 0 0 0 0 1 0 0 0 0 1 0 0 0 0.3 0"/>
<feBlend mode="normal" in2="effect1_innerShadow_142_541279" result="effect2_innerShadow_142_541279"/>
</filter>
<filter id="filter1_dd_142_541279" x="8.9" y="8.9" width="7.03086" height="8.22" filterUnits="userSpaceOnUse" color-interpolation-filters="sRGB">
<feFlood flood-opacity="0" result="BackgroundImageFix"/>
<feColorMatrix in="SourceAlpha" type="matrix" values="0 0 0 0 0 0 0 0 0 0 0 0 0 0 0 0 0 0 127 0" result="hardAlpha"/>
<feOffset dx="0.4" dy="0.6"/>
<feGaussianBlur stdDeviation="0.2"/>
<feColorMatrix type="matrix" values="0 0 0 0 0 0 0 0 0 0 0 0 0 0 0 0 0 0 0.1 0"/>
<feBlend mode="normal" in2="BackgroundImageFix" result="effect1_dropShadow_142_541279"/>
<feColorMatrix in="SourceAlpha" type="matrix" values="0 0 0 0 0 0 0 0 0 0 0 0 0 0 0 0 0 0 127 0" result="hardAlpha"/>
<feOffset/>
<feGaussianBlur stdDeviation="0.05"/>
<feColorMatrix type="matrix" values="0 0 0 0 0 0 0 0 0 0 0 0 0 0 0 0 0 0 0.4 0"/>
<feBlend mode="normal" in2="effect1_dropShadow_142_541279" result="effect2_dropShadow_142_541279"/>
<feBlend mode="normal" in="SourceGraphic" in2="effect2_dropShadow_142_541279" result="shape"/>
</filter>
<linearGradient id="paint0_linear_142_541279" x1="15.9316" y1="6.4563" x2="21.4785" y2="10.0467" gradientUnits="userSpaceOnUse">
<stop stop-opacity="0.2"/>
<stop offset="1" stop-opacity="0"/>
</linearGradient>
</defs>
</svg>
