<svg width="40" height="40" viewBox="0 0 40 40" fill="none" xmlns="http://www.w3.org/2000/svg">
<g clip-path="url(#clip0_1057_483841)">
<rect width="40" height="40" rx="8" fill="#F93939"/>
<path fill-rule="evenodd" clip-rule="evenodd" d="M-5.33325 29.3333H50.6667V40H-5.33325V29.3333Z" fill="#00B731"/>
<path fill-rule="evenodd" clip-rule="evenodd" d="M-5.33325 0H50.6667V10.6667H-5.33325V0Z" fill="#03BCDB"/>
<path fill-rule="evenodd" clip-rule="evenodd" d="M0 13.3333H56V26.6667H0V13.3333ZM13.3333 10.44C12.9173 10.5867 12.4667 10.6667 12 10.6667C9.792 10.6667 8 8.87466 8 6.66666C8 4.45866 9.792 2.66666 12 2.66666C12.4667 2.66666 12.9173 2.74666 13.3333 2.89332C11.7787 3.44266 10.6667 4.92532 10.6667 6.66666C10.6667 8.40799 11.7787 9.89332 13.3333 10.44Z" fill="white"/>
<path opacity="0.5" fill-rule="evenodd" clip-rule="evenodd" d="M16 5.33332H18.6667V7.99999H16V5.33332ZM18.6667 2.66666H21.3333V5.33332H18.6667V2.66666ZM21.3333 5.33332H24V7.99999H21.3333V5.33332ZM24 2.66666H26.6667V5.33332H24V2.66666ZM26.6667 5.33332H29.3333V7.99999H26.6667V5.33332ZM24 7.99999H26.6667V10.6667H24V7.99999ZM18.6667 7.99999H21.3333V10.6667H18.6667V7.99999Z" fill="#1A47B8"/>
<rect y="13.3333" width="13.3333" height="13.3333" fill="white"/>
</g>
<rect x="0.5" y="0.5" width="39" height="39" rx="7.5" stroke="#A4A4A4"/>
<defs>
<clipPath id="clip0_1057_483841">
<rect width="40" height="40" rx="8" fill="white"/>
</clipPath>
</defs>
</svg>
