<svg width="44" height="44" viewBox="0 0 44 44" fill="none" xmlns="http://www.w3.org/2000/svg">
<g filter="url(#filter0_ii_142_541293)">
<path fill-rule="evenodd" clip-rule="evenodd" d="M27.6837 3.66666L36.8503 12.8332V6.58028C36.8504 6.58684 36.8504 6.59341 36.8504 6.59999V37.4C36.8504 39.02 35.5371 40.3333 33.9171 40.3333H10.0837C8.46369 40.3333 7.15039 39.02 7.15039 37.4V6.59999C7.15039 4.97996 8.46369 3.66666 10.0837 3.66666H27.6837Z" fill="#4876F9"/>
</g>
<path d="M35.9902 11.974H28.543L36.8503 20.2813L36.8503 12.8333L35.9902 11.974Z" fill="url(#paint0_linear_142_541293)"/>
<path d="M30.6163 12.8333L36.8496 12.8333L27.6829 3.66668L27.6829 9.90001C27.6829 11.52 28.9962 12.8333 30.6163 12.8333Z" fill="#B5C8FC"/>
<g filter="url(#filter1_dd_142_541293)">
<path d="M17.481 31.38C17.2143 31.38 17.001 31.3133 16.841 31.18C16.681 31.0467 16.5477 30.8333 16.441 30.54L12.081 18.1C11.961 17.7933 11.9743 17.5333 12.121 17.32C12.281 17.1067 12.541 17 12.901 17C13.1543 17 13.3543 17.06 13.501 17.18C13.6477 17.3 13.7677 17.5 13.861 17.78L17.881 29.58H17.161L21.281 17.82C21.3877 17.54 21.5143 17.3333 21.661 17.2C21.8077 17.0667 22.001 17 22.241 17C22.4943 17 22.6877 17.0667 22.821 17.2C22.9677 17.3333 23.0877 17.5467 23.181 17.84L27.221 29.58H26.581L30.641 17.78C30.7343 17.5133 30.8543 17.32 31.001 17.2C31.1477 17.0667 31.3543 17 31.621 17C31.9277 17 32.1543 17.1067 32.301 17.32C32.4477 17.5333 32.4677 17.7933 32.361 18.1L27.961 30.56C27.8677 30.84 27.741 31.0467 27.581 31.18C27.421 31.3133 27.2077 31.38 26.941 31.38C26.661 31.38 26.441 31.3133 26.281 31.18C26.121 31.0467 25.9877 30.8333 25.881 30.54L21.981 19.34H22.421L18.501 30.56C18.3943 30.84 18.261 31.0467 18.101 31.18C17.9543 31.3133 17.7477 31.38 17.481 31.38Z" fill="white"/>
</g>
<defs>
<filter id="filter0_ii_142_541293" x="7.15039" y="3.48332" width="29.6992" height="37.0333" filterUnits="userSpaceOnUse" color-interpolation-filters="sRGB">
<feFlood flood-opacity="0" result="BackgroundImageFix"/>
<feBlend mode="normal" in="SourceGraphic" in2="BackgroundImageFix" result="shape"/>
<feColorMatrix in="SourceAlpha" type="matrix" values="0 0 0 0 0 0 0 0 0 0 0 0 0 0 0 0 0 0 127 0" result="hardAlpha"/>
<feOffset dy="-0.366667"/>
<feGaussianBlur stdDeviation="0.0916667"/>
<feComposite in2="hardAlpha" operator="arithmetic" k2="-1" k3="1"/>
<feColorMatrix type="matrix" values="0 0 0 0 0 0 0 0 0 0 0 0 0 0 0 0 0 0 0.3 0"/>
<feBlend mode="normal" in2="shape" result="effect1_innerShadow_142_541293"/>
<feColorMatrix in="SourceAlpha" type="matrix" values="0 0 0 0 0 0 0 0 0 0 0 0 0 0 0 0 0 0 127 0" result="hardAlpha"/>
<feOffset dy="0.366667"/>
<feGaussianBlur stdDeviation="0.0916667"/>
<feComposite in2="hardAlpha" operator="arithmetic" k2="-1" k3="1"/>
<feColorMatrix type="matrix" values="0 0 0 0 1 0 0 0 0 1 0 0 0 0 1 0 0 0 0.3 0"/>
<feBlend mode="normal" in2="effect1_innerShadow_142_541293" result="effect2_innerShadow_142_541293"/>
</filter>
<filter id="filter1_dd_142_541293" x="11.8167" y="16.8167" width="22.0777" height="16.3967" filterUnits="userSpaceOnUse" color-interpolation-filters="sRGB">
<feFlood flood-opacity="0" result="BackgroundImageFix"/>
<feColorMatrix in="SourceAlpha" type="matrix" values="0 0 0 0 0 0 0 0 0 0 0 0 0 0 0 0 0 0 127 0" result="hardAlpha"/>
<feOffset dx="0.733333" dy="1.1"/>
<feGaussianBlur stdDeviation="0.366667"/>
<feColorMatrix type="matrix" values="0 0 0 0 0 0 0 0 0 0 0 0 0 0 0 0 0 0 0.1 0"/>
<feBlend mode="normal" in2="BackgroundImageFix" result="effect1_dropShadow_142_541293"/>
<feColorMatrix in="SourceAlpha" type="matrix" values="0 0 0 0 0 0 0 0 0 0 0 0 0 0 0 0 0 0 127 0" result="hardAlpha"/>
<feOffset/>
<feGaussianBlur stdDeviation="0.0916667"/>
<feColorMatrix type="matrix" values="0 0 0 0 0 0 0 0 0 0 0 0 0 0 0 0 0 0 0.4 0"/>
<feBlend mode="normal" in2="effect1_dropShadow_142_541293" result="effect2_dropShadow_142_541293"/>
<feBlend mode="normal" in="SourceGraphic" in2="effect2_dropShadow_142_541293" result="shape"/>
</filter>
<linearGradient id="paint0_linear_142_541293" x1="30.4049" y1="10.112" x2="38.7122" y2="18.4193" gradientUnits="userSpaceOnUse">
<stop stop-opacity="0.2"/>
<stop offset="1" stop-opacity="0"/>
</linearGradient>
</defs>
</svg>
