<svg width="18" height="18" viewBox="0 0 18 18" fill="none" xmlns="http://www.w3.org/2000/svg">
<g id="i24 / Menu / Workers">
<g id="Vector">
<path fill-rule="evenodd" clip-rule="evenodd" d="M13.0629 2.64014C12.3645 2.64014 11.8047 3.19991 11.8047 3.89826C11.8047 4.57058 12.3218 5.11243 12.9764 5.15489C13.0313 5.15001 13.0875 5.15001 13.1424 5.15489C13.7959 5.11247 14.3152 4.57132 14.321 3.89642C14.32 3.20448 13.7593 2.64014 13.0629 2.64014ZM10.7735 3.89826C10.7735 2.63037 11.795 1.60889 13.0629 1.60889C14.3321 1.60889 15.3522 2.63854 15.3522 3.89826V3.90195C15.3434 5.13871 14.3699 6.14286 13.1434 6.1873C13.1154 6.18832 13.0873 6.18704 13.0594 6.18349C13.0316 6.18704 13.0035 6.18832 12.9754 6.1873C11.7496 6.14289 10.7735 5.13853 10.7735 3.89826Z" fill="white"/>
<path fill-rule="evenodd" clip-rule="evenodd" d="M12.307 6.83475C13.3522 6.65164 14.544 6.82621 15.4105 7.40113L15.4114 7.40174C16.0036 7.79654 16.368 8.36862 16.368 9.00639C16.368 9.64417 16.0036 10.2162 15.4114 10.611C14.5514 11.1866 13.3738 11.3606 12.3312 11.1855C12.0504 11.1384 11.861 10.8725 11.9081 10.5916C11.9553 10.3108 12.2211 10.1214 12.502 10.1685C13.3428 10.3097 14.241 10.1538 14.8384 9.75361L14.8394 9.75299C15.2165 9.50154 15.3368 9.22112 15.3368 9.00639C15.3368 8.79176 15.2166 8.51148 14.8398 8.26011C14.235 7.859 13.3233 7.70367 12.485 7.85053C12.2045 7.89967 11.9372 7.71211 11.8881 7.43161C11.839 7.15111 12.0265 6.88389 12.307 6.83475Z" fill="white"/>
<path fill-rule="evenodd" clip-rule="evenodd" d="M2.62662 3.89826C2.62662 2.63854 3.6468 1.60889 4.916 1.60889C6.18389 1.60889 7.20537 2.63037 7.20537 3.89826C7.20537 5.13853 6.22922 6.14289 5.00341 6.1873C4.97535 6.18832 4.94726 6.18704 4.91943 6.18349C4.8916 6.18704 4.86351 6.18832 4.83545 6.1873C3.609 6.14286 2.63547 5.13871 2.62663 3.90195L2.62662 3.89826ZM3.65787 3.89643C3.66363 4.57132 4.18297 5.11247 4.83642 5.15489C4.89132 5.15001 4.94755 5.15001 5.00246 5.15489C5.65703 5.11243 6.17412 4.57058 6.17412 3.89826C6.17412 3.19991 5.61435 2.64014 4.916 2.64014C4.21956 2.64014 3.65886 3.20448 3.65787 3.89643Z" fill="white"/>
<path fill-rule="evenodd" clip-rule="evenodd" d="M3.13905 8.26011C3.74388 7.85899 4.65558 7.70367 5.4939 7.85053C5.7744 7.89967 6.04162 7.71211 6.09076 7.43161C6.1399 7.15111 5.95234 6.88389 5.67184 6.83475C4.62663 6.65164 3.43482 6.82621 2.56841 7.40113L2.56748 7.40174C1.97528 7.79654 1.61084 8.36862 1.61084 9.00639C1.61084 9.644 1.97509 10.2159 2.56701 10.6107C3.42705 11.1866 4.60484 11.3606 5.64761 11.1855C5.92846 11.1384 6.1179 10.8725 6.07075 10.5916C6.0236 10.3108 5.75772 10.1214 5.47687 10.1685C4.63609 10.3097 3.73787 10.1538 3.14045 9.75361L3.13951 9.75299C2.76234 9.50154 2.64209 9.22112 2.64209 9.00639C2.64209 8.79175 2.76224 8.51147 3.13905 8.26011Z" fill="white"/>
<path fill-rule="evenodd" clip-rule="evenodd" d="M8.93787 7.77576C8.23952 7.77576 7.67974 8.33553 7.67974 9.03389C7.67974 9.70621 8.19684 10.2481 8.85141 10.2905C8.90709 10.2856 8.96412 10.2856 9.01976 10.2907C9.66791 10.2536 10.1902 9.71059 10.196 9.03205C10.195 8.34011 9.6343 7.77576 8.93787 7.77576ZM6.6485 9.03389C6.6485 7.76599 7.66997 6.74451 8.93787 6.74451C10.2071 6.74451 11.2272 7.77417 11.2272 9.03389V9.03757C11.2184 10.271 10.2474 11.2873 9.01468 11.323C8.98786 11.3238 8.96103 11.3225 8.93443 11.3191C8.9066 11.3227 8.87851 11.3239 8.85045 11.3229C7.62464 11.2785 6.6485 10.2742 6.6485 9.03389Z" fill="white"/>
<path fill-rule="evenodd" clip-rule="evenodd" d="M9.00232 11.9111C9.80567 11.9111 10.6367 12.1111 11.2864 12.5442C11.8786 12.939 12.243 13.5111 12.243 14.1489C12.243 14.7866 11.8787 15.3586 11.2866 15.7534C10.6342 16.1895 9.80344 16.3919 8.99974 16.3919C8.19606 16.3919 7.36529 16.1895 6.71288 15.7534C6.12081 15.3586 5.75646 14.7866 5.75646 14.1489C5.75646 13.5111 6.1209 12.939 6.7131 12.5442L6.71434 12.5434C7.36677 12.1112 8.19883 11.9111 9.00232 11.9111ZM7.28453 13.4027C6.90784 13.654 6.78771 13.9343 6.78771 14.1489C6.78771 14.3636 6.90796 14.644 7.28514 14.8955C7.73267 15.1948 8.35297 15.3606 8.99974 15.3606C9.64652 15.3606 10.2662 15.1952 10.7137 14.8959C11.0909 14.6444 11.2118 14.3636 11.2118 14.1489C11.2118 13.9342 11.0915 13.6537 10.7144 13.4023C10.2709 13.1066 9.65132 12.9423 9.00232 12.9423C8.35378 12.9423 7.73206 13.1064 7.28453 13.4027Z" fill="white"/>
</g>
</g>
</svg>
