<svg width="284" height="162" viewBox="0 0 284 162" fill="none" xmlns="http://www.w3.org/2000/svg">
<g clip-path="url(#clip0_917_322390)">
<rect width="284" height="162" rx="8" fill="#F9FAFB"/>
<path d="M0 4C0 1.79086 1.79086 0 4 0H280C282.209 0 284 1.79086 284 4V16H0V4Z" fill="#E8E8E8"/>
<rect x="8" y="5" width="6" height="6" rx="3" fill="white"/>
<rect x="72" y="24" width="32" height="6" rx="2" fill="#E8E8E8"/>
<rect x="106" y="24" width="32" height="6" rx="2" fill="#E8E8E8"/>
<rect x="140" y="24" width="32" height="6" rx="2" fill="#E8E8E8"/>
<rect x="244" y="24" width="32" height="6" rx="2" fill="#4876F9"/>
<rect x="8" y="24" width="56" height="130" rx="2" fill="#E8E8E8"/>
<rect x="72" y="34" width="204" height="22" rx="2" fill="#E8E8E8"/>
<rect x="72" y="60" width="204" height="94" rx="2" fill="#E8E8E8"/>
<rect x="20" y="5" width="6" height="6" rx="3" fill="white"/>
<rect x="32" y="5" width="6" height="6" rx="3" fill="white"/>
</g>
<rect x="0.739583" y="0.739583" width="282.521" height="160.521" rx="3.26042" stroke="#E8E8E8" stroke-width="1.47917"/>
<defs>
<clipPath id="clip0_917_322390">
<rect width="284" height="162" rx="4" fill="white"/>
</clipPath>
</defs>
</svg>
